<?xml version="1.0" standalone="no"?>
<!DOCTYPE svg PUBLIC "-//W3C//DTD SVG 1.1//EN" "http://www.w3.org/Graphics/SVG/1.1/DTD/svg11.dtd" >
<svg xmlns="http://www.w3.org/2000/svg" xmlns:xlink="http://www.w3.org/1999/xlink" version="1.1" viewBox="-10 0 1044 1024">
  <g transform="matrix(1 0 0 -1 0 960)">
   <path fill="currentColor"
d="M781 353q-12 5 -24.5 0.5t-17.5 -16.5q0 -1 -13 -23.5t-40.5 -49.5t-71 -50t-104.5 -23q-1 0 -2 -0.5l-1 -0.5q-58 0 -99.5 22.5t-68.5 49t-40.5 50t-14.5 25.5q-6 12 -18 16.5t-24 -0.5q-13 -6 -17.5 -18t1.5 -25q1 -2 17.5 -31.5t50.5 -63t86.5 -61.5t125.5 -28
q1 0 2 0.5t2 0.5q77 0 131 28t88.5 61.5t50.5 62.5t17 32q6 12 1 24t-17 18v0zM512 960q-106 0 -199.5 -40t-163 -109.5t-109.5 -163t-40 -199.5t40 -199.5t109.5 -163t163 -109.5t199.5 -40t199.5 40t163 109.5t109.5 163t40 199.5t-40 199.5t-109.5 163t-163 109.5
t-199.5 40zM512 0q-93 0 -174.5 35.5t-142 96t-96 142t-35.5 174.5t35.5 174.5t96 142t142 96t174.5 35.5t174.5 -35.5t142 -96t96 -142t35.5 -174.5t-35.5 -174.5t-96 -142t-142 -96t-174.5 -35.5zM352 480q26 0 44.5 19t18.5 45t-18.5 45t-44.5 19q-27 0 -45.5 -19
t-18.5 -45t18.5 -45t45.5 -19zM672 480q26 0 44.5 19t18.5 45t-18.5 45t-44.5 19q-27 0 -45.5 -19t-18.5 -45t18.5 -45t45.5 -19z" />
  </g>

</svg>
