<?xml version="1.0" standalone="no"?>
<!DOCTYPE svg PUBLIC "-//W3C//DTD SVG 1.1//EN" "http://www.w3.org/Graphics/SVG/1.1/DTD/svg11.dtd" >
<svg xmlns="http://www.w3.org/2000/svg" xmlns:xlink="http://www.w3.org/1999/xlink" version="1.1" viewBox="-10 0 1034 1024">
  <g transform="matrix(1 0 0 -1 0 960)">
   <path fill="currentColor"
d="M508 -63q-90 0 -166 29.5t-130.5 82.5t-85 126t-30.5 159q0 46 11.5 91.5t25.5 82.5t26 60.5t14 25.5q4 9 13 13t18 3q10 -1 17.5 -7.5t9.5 -15.5q1 -1 14 -43t32 -73q14 -21 27.5 -36t28.5 -25q-10 44 -15 107t8 131q17 93 57 152.5t82 94.5t75 48.5t36 14.5q8 2 16 0
t15 -7q6 -6 8.5 -14t0.5 -16l-4 -30t-3.5 -77t9.5 -104t34 -113q5 -10 11.5 -21.5t13.5 -23.5q2 16 5 33t8 34q18 66 54.5 92t38.5 27q8 4 16.5 3t15.5 -7q7 -5 10.5 -13.5t1.5 -17.5q0 -2 1.5 -42.5t40.5 -104.5q34 -57 46.5 -103.5t12.5 -118.5q0 -86 -31.5 -159
t-87.5 -126t-132.5 -82.5t-168.5 -29.5v0zM196 492q-13 -33 -24.5 -75t-11.5 -82q0 -73 25.5 -134t72 -105.5t110.5 -69.5t140 -25q78 0 143 25t112.5 69.5t74 105.5t26.5 134q0 62 -10 100t-40 88q-20 34 -31 63t-15 53q-5 -7 -9.5 -16.5t-7.5 -21.5q-14 -51 -14 -99.5
v-48.5q0 -11 -5.5 -20t-16.5 -13q-10 -3 -20 0t-16 12q-2 3 -34 50.5t-51 87.5q-19 43 -29.5 85.5t-15 82.5t-4 75t2.5 62q-39 -23 -89.5 -78.5t-69.5 -160.5q-10 -51 -7.5 -100t9.5 -87t14.5 -62l7.5 -24q3 -8 1.5 -17t-7.5 -16q-6 -6 -14.5 -9t-16.5 -1q-3 1 -56 24.5
t-97 92.5q-7 12 -14 26.5t-13 28.5v0z" />
  </g>

</svg>
