<?xml version="1.0" standalone="no"?>
<!DOCTYPE svg PUBLIC "-//W3C//DTD SVG 1.1//EN" "http://www.w3.org/Graphics/SVG/1.1/DTD/svg11.dtd" >
<svg xmlns="http://www.w3.org/2000/svg" xmlns:xlink="http://www.w3.org/1999/xlink" version="1.1" viewBox="-10 0 1042 1024">
  <g transform="matrix(1 0 0 -1 0 960)">
   <path fill="currentColor"
d="M34 896h448q13 0 22.5 9.5t9.5 22.5t-9.5 22.5t-22.5 9.5h-448q-13 0 -22.5 -9.5t-9.5 -22.5t9 -22.5t23 -9.5v0zM34 704h448q13 0 22.5 9.5t9.5 22.5t-9.5 22.5t-22.5 9.5h-448q-13 0 -22.5 -9.5t-9.5 -22.5t9 -22.5t23 -9.5v0zM514 544q0 13 -9.5 22.5t-22.5 9.5h-448
q-13 0 -22.5 -9.5t-9.5 -22.5t9.5 -22.5t22.5 -9.5h448q13 0 22.5 9.5t9.5 22.5zM1013 635l-313 313q-7 8 -17.5 9.5t-19.5 -3.5q-9 -3 -15 -11t-6 -19v-708q-26 19 -58.5 29.5t-69.5 10.5q-79 0 -135.5 -47t-56.5 -113t56.5 -113t135.5 -47q80 0 136 47t56 113v6v6v744
l262 -262q9 -9 22 -9t23 9q9 10 9 23t-9 22v0zM642 93q-2 -33 -37.5 -63t-90.5 -30q-57 0 -93 31t-36 65t36 65t93 31q55 0 90.5 -30t37.5 -63v-6z" />
  </g>

</svg>
