<?xml version="1.0" standalone="no"?>
<!DOCTYPE svg PUBLIC "-//W3C//DTD SVG 1.1//EN" "http://www.w3.org/Graphics/SVG/1.1/DTD/svg11.dtd" >
<svg xmlns="http://www.w3.org/2000/svg" xmlns:xlink="http://www.w3.org/1999/xlink" version="1.1" viewBox="-10 0 1034 1024">
  <g transform="matrix(1 0 0 -1 0 960)">
   <path fill="currentColor"
d="M511 256h7q67 0 110.5 44t43.5 112v381q0 70 -44.5 118.5t-109.5 48.5h-7q-66 0 -112.5 -49t-46.5 -118v-381q0 -67 45.5 -111.5t113.5 -44.5v0zM416 793q0 43 28 73t67 30h7q39 0 64.5 -29.5t25.5 -73.5v-381q0 -41 -24.5 -66.5t-65.5 -25.5h-7q-42 0 -68.5 25.5
t-26.5 66.5v381v0zM800 608q-13 0 -22.5 -9.5t-9.5 -22.5v-133q0 -71 -13 -124.5t-38.5 -88.5t-64.5 -52.5t-92 -17.5h-95q-68 0 -109.5 26t-63.5 67t-29 91.5t-7 98.5v133q0 13 -9.5 22.5t-22.5 9.5t-22.5 -9.5t-9.5 -22.5v-133q0 -83 17 -147.5t51.5 -109t85.5 -67.5
t119 -23h15v-96h-160q-13 0 -22.5 -9.5t-9.5 -22.5t9.5 -22.5t22.5 -9.5h384q13 0 22.5 9.5t9.5 22.5t-9.5 22.5t-22.5 9.5h-160v96h16q47 0 95 14t87.5 52t64.5 105.5t25 175.5v133q0 13 -9.5 22.5t-22.5 9.5z" />
  </g>

</svg>
