<?xml version="1.0" standalone="no"?>
<!DOCTYPE svg PUBLIC "-//W3C//DTD SVG 1.1//EN" "http://www.w3.org/Graphics/SVG/1.1/DTD/svg11.dtd" >
<svg xmlns="http://www.w3.org/2000/svg" xmlns:xlink="http://www.w3.org/1999/xlink" version="1.1" viewBox="-11 0 1046 1024">
  <g transform="matrix(1 0 0 -1 0 960)">
   <path fill="currentColor"
d="M0 32v512q0 40 28 68q27 27 68 29h97q32 0 61 -25q12 6 34 16q126 66 128 232q0 40 28 68q29 29 68 28q58 0 108 -66q49 -65 50 -150q0 -68 -8 -106q242 -6 272 -14q44 -12 67 -44q24 -32 23 -64v-24q-2 -40 -28 -70q18 -34 12 -76q-8 -56 -42 -88q16 -38 0 -85
q-18 -61 -54 -85q8 -28 0 -56q-6 -18 -14 -35q-34 -61 -114 -61h-176q-94 0 -190 22q-94 22 -130 30h-2q0 2 -3 2h-4v2q-29 -56 -86 -56h-97q-40 0 -68 28q-29 27 -28 68v0zM65 32q0 -14 8 -23q8 -10 23 -10h97q13 0 22 10q9 9 9 23v512q0 14 -9 23t-22 9h-97q-14 0 -23 -9
q-10 -9 -8 -23v-512zM96 80q0 20 14 34q13 15 34 15q22 0 34 -15q12 -14 15 -34q2 -19 -15 -34q-16 -16 -34 -14q-17 2 -34 14q-18 11 -14 34v0zM128 80q0 -16 16 -16q17 0 16 16q-1 17 -16 16q-14 -1 -16 -16zM256 83q0 -23 28 -27q22 -6 148 -36q90 -21 176 -21h176
q42 0 58 29q6 16 8 24q6 12 -2 28q-8 17 -30 16h-50q-16 0 -16 16q0 17 16 17h52q32 0 50 10q19 10 23 20t11 31q22 67 -40 67h-64q-16 0 -16 15t16 16h76q58 0 70 68q2 22 -9 41q-11 18 -43 19h-63q-15 0 -15 16q0 15 15 16h65q62 0 63 46v22q0 38 -37 48q-46 12 -345 12
q19 60 24 86t5 82q0 58 -33 105q-32 48 -61 46q-32 0 -32 -31q-2 -94 -47 -177t-145 -125q-2 0 -4 -1l-2 -1q-26 -8 -26 -34v-443v0z" />
  </g>

</svg>
