<?xml version="1.0" standalone="no"?>
<!DOCTYPE svg PUBLIC "-//W3C//DTD SVG 1.1//EN" "http://www.w3.org/Graphics/SVG/1.1/DTD/svg11.dtd" >
<svg xmlns="http://www.w3.org/2000/svg" xmlns:xlink="http://www.w3.org/1999/xlink" version="1.1" viewBox="-10 0 1034 1024">
  <g transform="matrix(1 0 0 -1 0 960)">
   <path fill="currentColor"
d="M262 923q28 -39 61.5 -89t72.5 -111q10 -16 8.5 -36t-14.5 -43q-5 -10 -17 -32t-31 -57q21 -30 53.5 -67t75.5 -80q44 -44 80.5 -76.5t65.5 -53.5q34 20 56.5 32.5t32.5 17.5q12 7 24.5 10.5t23.5 3.5q9 0 16.5 -2t14.5 -6q45 -27 95 -60.5t107 -73.5q10 -7 16 -18t8 -24
q1 -14 -3 -28.5t-14 -29.5q-4 -7 -12 -17t-19 -23q-10 -13 -26 -29.5t-38 -36.5q-21 -20 -38.5 -30t-30.5 -10h-2q-52 2 -109 22.5t-120 58.5t-132 95t-144 131q-75 75 -131.5 144t-95 132t-58.5 120.5t-22 108.5q0 14 10 31.5t30 39.5t36 37.5t29 25.5q12 9 23 17t19 14
q11 8 23 11.5t26 3.5q16 0 28.5 -5.5t21.5 -17.5v0zM198 882q-20 -14 -39 -30.5t-37 -34.5t-28.5 -31t-13.5 -22q2 -45 21 -96t55 -108.5t89 -121t123 -133.5t133.5 -123t121 -89t109 -55t96.5 -22q7 3 20 14t31 29t34 37.5t31 39.5q3 4 4 7.5t0 6.5q-58 41 -106.5 73
t-87.5 57q-4 0 -9 -1.5t-11 -4.5q-8 -5 -30 -17t-57 -31l-33 -20l-33 22q-32 22 -70.5 56.5t-84.5 80.5q-45 46 -79 84.5t-56 70.5l-24 31l20 35q19 35 31 56.5t17 30.5q3 6 4.5 11t1.5 9q-35 55 -66.5 103t-60.5 90h-2q-4 0 -7.5 -1t-6.5 -3v0z" />
  </g>

</svg>
