<?xml version="1.0" standalone="no"?>
<!DOCTYPE svg PUBLIC "-//W3C//DTD SVG 1.1//EN" "http://www.w3.org/Graphics/SVG/1.1/DTD/svg11.dtd" >
<svg xmlns="http://www.w3.org/2000/svg" xmlns:xlink="http://www.w3.org/1999/xlink" version="1.1" viewBox="-10 0 1045 1024">
  <g transform="matrix(1 0 0 -1 0 960)">
   <path fill="currentColor"
d="M64 0v65q0 19 10.5 26.5t15.5 10.5l281 133q15 7 25 20.5t12 29.5q2 17 -4 32t-19 26q-50 40 -74 113t-24 120v160q0 25 20 53t52 52t72 39.5t80 15.5q41 0 81 -15.5t72 -39t51.5 -51.5t19.5 -54v-160q0 -46 -21.5 -119.5t-72.5 -113.5q-13 -11 -19.5 -26.5t-4.5 -31.5
q2 -17 12 -30.5t25 -20.5l162 -77l38 54l-173 81q33 26 55.5 63t36.5 76.5t20 77.5t6 67v160q0 40 -25 80t-66 72t-92.5 52t-104.5 20t-104.5 -20t-92.5 -52t-66 -72t-25 -80v-160q0 -26 6.5 -63.5t21 -77.5t37.5 -77.5t56 -64.5l-281 -133l-31.5 -18.5t-31.5 -45.5v-96
q0 -26 18.5 -45t44.5 -19h640l-52 64h-587v0zM1012 236q-10 9 -23.5 7t-21.5 -12l-137 -209l-85 85q-9 10 -22.5 10t-22.5 -10q-9 -9 -9 -22t9 -23l113 -113q10 -9 23 -9t23 9q2 2 3.5 4.5t2.5 5.5l153 233q8 10 6.5 23t-12.5 21v0z" />
  </g>

</svg>
