<?xml version="1.0" standalone="no"?>
<!DOCTYPE svg PUBLIC "-//W3C//DTD SVG 1.1//EN" "http://www.w3.org/Graphics/SVG/1.1/DTD/svg11.dtd" >
<svg xmlns="http://www.w3.org/2000/svg" xmlns:xlink="http://www.w3.org/1999/xlink" version="1.1" viewBox="-10 0 1044 1024">
  <g transform="matrix(1 0 0 -1 0 960)">
   <path fill="currentColor"
d="M733 680l-313 -135q-4 -2 -7.5 -5.5t-5.5 -7.5l-144 -289q-4 -9 -2.5 -18.5t8.5 -16.5q4 -4 9.5 -6.5t11.5 -2.5q4 0 7 0.5t6 2.5l306 127q4 2 7.5 5t5.5 7l151 297q5 9 3.5 19t-7.5 17q-7 7 -17 8.5t-19 -2.5v0zM358 295l87 178l88 -110zM585 400l-89 112l177 69
l-88 -181v0zM512 960q-106 0 -199.5 -40t-163 -109.5t-109.5 -163t-40 -199.5t40 -199.5t109.5 -163t163 -109.5t199.5 -40t199.5 40t163 109.5t109.5 163t40 199.5t-40 199.5t-109.5 163t-163 109.5t-199.5 40zM512 -1q-93 0 -174.5 35.5t-142 96.5t-96 142.5t-35.5 174.5
t35.5 174.5t96 142t142 96t174.5 35.5t174.5 -35.5t142 -96t96 -142t35.5 -174.5t-35.5 -174.5t-96 -142.5t-142 -96.5t-174.5 -35.5z" />
  </g>

</svg>
