<?xml version="1.0" standalone="no"?>
<!DOCTYPE svg PUBLIC "-//W3C//DTD SVG 1.1//EN" "http://www.w3.org/Graphics/SVG/1.1/DTD/svg11.dtd" >
<svg xmlns="http://www.w3.org/2000/svg" xmlns:xlink="http://www.w3.org/1999/xlink" version="1.1" viewBox="-10 0 1034 1024">
  <g transform="matrix(1 0 0 -1 0 960)">
   <path fill="currentColor"
d="M992 255v0.5v0.5v667v5.5t-1 5.5q-2 11 -10.5 18.5t-20.5 7.5q-5 0 -9 -1t-7 -3l-598 -156q-8 -2 -14 -7.5t-8 -13.5q-2 -3 -3 -7t-1 -8v-572q-23 15 -51.5 23.5t-60.5 8.5q-73 0 -125 -42t-52 -102t52 -102t125 -42t125 42t52 102q0 3 -0.5 6t-0.5 6v0v0v652l544 141
v-533q-23 15 -51.5 23.5t-60.5 8.5q-73 0 -125 -42t-52 -102t52 -102t125 -42t125 42t52 102q0 4 -0.5 7.5t-0.5 7.5v0zM209 0q-50 0 -81.5 26t-31.5 54t31.5 54t81.5 26q44 0 74 -21t37 -46v-1q0 -2 0.5 -4.5t0.5 -4.5q0 -1 0.5 -1.5t0.5 -1.5q0 -28 -31.5 -54t-81.5 -26v0
zM816 160q-50 0 -81 26t-31 54t31 54t81 26q49 0 80.5 -26t31.5 -54t-31.5 -54t-80.5 -26z" />
  </g>

</svg>
