<?xml version="1.0" standalone="no"?>
<!DOCTYPE svg PUBLIC "-//W3C//DTD SVG 1.1//EN" "http://www.w3.org/Graphics/SVG/1.1/DTD/svg11.dtd" >
<svg xmlns="http://www.w3.org/2000/svg" xmlns:xlink="http://www.w3.org/1999/xlink" version="1.1" viewBox="-10 0 1034 1024">
  <g transform="matrix(1 0 0 -1 0 960)">
   <path fill="currentColor"
d="M511 960q-96 0 -180.5 -36.5t-147.5 -99.5t-99.5 -147.5t-36.5 -180.5q0 -90 33 -170.5t90 -143t134.5 -101.5t166.5 -47l-92 -47q-8 -4 -12 -13.5t1 -17.5l3 -8q5 -9 14.5 -11.5t18.5 2.5l153 78v1h1l10 5q4 3 7 6.5t4 7.5t0.5 9t-3.5 9l-6 10v0v0l-95 148
q-5 8 -14.5 11t-18.5 -2l-7 -5q-9 -5 -9.5 -15t4.5 -18l55 -87v0v0q-79 5 -147 38.5t-118.5 87.5t-79.5 124t-29 149q0 83 31.5 155.5t86 127t127.5 86t155 31.5q83 0 156 -31.5t127.5 -86t86 -127t31.5 -155.5q0 -48 -10.5 -93t-31 -86t-50.5 -76.5t-68 -64.5
q-10 -8 -12 -21t6 -24q8 -10 21 -12t24 6q44 33 78.5 74.5t58 89t36 100t12.5 107.5q0 96 -36.5 180.5t-100 147.5t-148 99.5t-180.5 36.5z" />
  </g>

</svg>
