<?xml version="1.0" standalone="no"?>
<!DOCTYPE svg PUBLIC "-//W3C//DTD SVG 1.1//EN" "http://www.w3.org/Graphics/SVG/1.1/DTD/svg11.dtd" >
<svg xmlns="http://www.w3.org/2000/svg" xmlns:xlink="http://www.w3.org/1999/xlink" version="1.1" viewBox="-10 0 1034 1024">
  <g transform="matrix(1 0 0 -1 0 960)">
   <path fill="currentColor"
d="M908 816q-9 8 -20.5 12.5t-23.5 4.5h-2h-2t-8 -0.5t-19 -0.5q-20 0 -55.5 2.5t-72.5 11.5q-48 12 -95.5 52t-63.5 50q-8 6 -17 8.5t-18 2.5q-10 0 -19 -2.5t-17 -8.5q-2 -1 -50 -44.5t-105 -57.5q-37 -9 -73 -11.5t-56 -2.5q-12 0 -19 0.5t-8 0.5h-2h-2q-12 0 -23.5 -4.5
t-20.5 -13.5q-10 -9 -15 -21t-5 -25v-160q0 -222 60.5 -354t134.5 -202t138 -92t70 -23q3 -1 6 -1h6h5t6 1q6 1 70.5 23t139 92t135.5 202t61 354v160q0 13 -5 25t-15 22v0zM864 609q0 -205 -55 -325.5t-121.5 -183t-121.5 -81l-55 -18.5l-55 18.5t-121 81t-120.5 183
t-54.5 325.5v132v28l8.5 -0.5t22.5 -0.5q26 0 65 3t80 13q66 16 120.5 63.5l54.5 47.5l56 -47.5t122 -63.5q41 -10 79.5 -13t64.5 -3q14 0 22.5 0.5l8.5 0.5v-28v-132v0zM648 614q-10 9 -23 9t-23 -9l-90 -91l-91 91q-9 9 -22.5 9t-22.5 -9q-9 -10 -9 -23t9 -22l91 -91
l-91 -91q-9 -9 -9 -22t9 -23q9 -9 22.5 -9t22.5 9l91 91l90 -91q10 -9 23 -9t23 9q9 10 9 23t-9 22l-91 91l91 91q9 9 9 22t-9 23v0z" />
  </g>

</svg>
