<?xml version="1.0" standalone="no"?>
<!DOCTYPE svg PUBLIC "-//W3C//DTD SVG 1.1//EN" "http://www.w3.org/Graphics/SVG/1.1/DTD/svg11.dtd" >
<svg xmlns="http://www.w3.org/2000/svg" xmlns:xlink="http://www.w3.org/1999/xlink" version="1.1" viewBox="-10 0 1044 1024">
  <g transform="matrix(1 0 0 -1 0 960)">
   <path fill="currentColor"
d="M512 960q-106 0 -199.5 -40t-163 -109.5t-109.5 -163t-40 -199.5t40 -199.5t109.5 -163t163 -109.5t199.5 -40t199.5 40t163 109.5t109.5 163t40 199.5t-40 199.5t-109.5 163t-163 109.5t-199.5 40zM640 877q54 -16 101.5 -45t86.5 -67.5t68 -86.5t45 -102h-208
q-17 29 -40.5 52.5t-52.5 40.5v208zM704 448q0 -80 -56.5 -136t-135.5 -56t-135.5 56t-56.5 136q0 79 56.5 135.5t135.5 56.5t135.5 -56.5t56.5 -135.5zM448 891q16 2 32 3.5t32 1.5t32 -1.5t32 -3.5v-196q-15 4 -31 6.5t-33 2.5t-33 -2.5t-31 -6.5v196zM384 877v-208
q-29 -17 -52.5 -40.5t-40.5 -52.5h-208q16 54 45 102t68 86.5t86.5 67.5t101.5 45v0zM64 448q0 16 1.5 32t3.5 32h196q-4 -15 -6.5 -31.5t-2.5 -32.5q0 -17 2.5 -33t5.5 -31h-195q-2 16 -3.5 32t-1.5 32v0zM384 19q-54 16 -102 44.5t-86.5 67.5t-67.5 87t-45 102h208
q16 -29 40 -53t53 -40v-208v0zM576 5q-16 -3 -32 -4t-32 -1t-32 1t-32 4v195q15 -4 31 -6t33 -2t33 2t31 6v-195zM640 19v208q29 16 52.5 40t40.5 53h208q-16 -54 -45 -102t-67.5 -87t-86.5 -67.5t-102 -44.5zM760 384q3 15 5.5 31t2.5 33q0 16 -2.5 32.5t-6.5 31.5h196
q2 -16 3.5 -32t1.5 -32t-1.5 -32t-3.5 -32h-195v0z" />
  </g>

</svg>
