<?xml version="1.0" standalone="no"?>
<!DOCTYPE svg PUBLIC "-//W3C//DTD SVG 1.1//EN" "http://www.w3.org/Graphics/SVG/1.1/DTD/svg11.dtd" >
<svg xmlns="http://www.w3.org/2000/svg" xmlns:xlink="http://www.w3.org/1999/xlink" version="1.1" viewBox="-10 0 1044 1024">
  <g transform="matrix(1 0 0 -1 0 960)">
   <path fill="currentColor"
d="M952 958l-423 -114q-8 -2 -22.5 -2t-22.5 2l-412 114q-28 8 -50 -9t-22 -45v-778q0 -24 16 -44.5t39 -27.5l412 -114q8 -2 18.5 -3.5t21.5 -1.5q8 0 18.5 1t20.5 4l423 115q23 6 39 26.5t16 44.5v778q0 28 -22 45t-50 9v0zM480 3l-409 113q-2 1 -4.5 4t-2.5 6v768
l403 -112q3 0 6.5 -1t6.5 -1v-777v0zM960 126q0 -3 -3 -6t-5 -4l-408 -110v776h0.5h1.5l414 112v-768v0zM642 594h4.5t4.5 1l224 63q12 4 18.5 15.5t3.5 23.5q-4 13 -15.5 19.5t-24.5 3.5l-224 -63q-12 -4 -18.5 -15.5t-3.5 -24.5q3 -11 12 -17t19 -6v0zM642 402h4.5t4.5 1
l224 63q12 4 18.5 15.5t3.5 23.5q-4 13 -15.5 19.5t-24.5 3.5l-224 -63q-12 -4 -18.5 -15.5t-3.5 -24.5q3 -11 12 -17t19 -6zM642 210h4.5t4.5 1l224 63q12 4 18.5 15.5t3.5 23.5q-4 13 -15.5 19.5t-24.5 3.5l-224 -63q-12 -4 -18.5 -15.5t-3.5 -24.5q3 -11 12 -17t19 -6v0z
M395 657l-224 63q-13 3 -24.5 -3.5t-15.5 -19.5q-3 -12 3.5 -23.5t18.5 -15.5l224 -63q2 -1 4.5 -1h4.5q10 0 19 6t12 17q3 13 -3.5 24.5t-18.5 15.5v0zM395 465l-224 63q-13 3 -24.5 -3.5t-15.5 -19.5q-3 -12 3.5 -23.5t18.5 -15.5l224 -63q2 -1 4.5 -1h4.5q10 0 19 6
t12 17q3 13 -3.5 24.5t-18.5 15.5v0zM395 273l-224 63q-13 3 -24.5 -3.5t-15.5 -19.5q-3 -12 3.5 -23.5t18.5 -15.5l224 -63q2 -1 4.5 -1h4.5q10 0 19 6t12 17q3 13 -3.5 24.5t-18.5 15.5v0z" />
  </g>

</svg>
