<?xml version="1.0" standalone="no"?>
<!DOCTYPE svg PUBLIC "-//W3C//DTD SVG 1.1//EN" "http://www.w3.org/Graphics/SVG/1.1/DTD/svg11.dtd" >
<svg xmlns="http://www.w3.org/2000/svg" xmlns:xlink="http://www.w3.org/1999/xlink" version="1.1" viewBox="-10 0 1044 1024">
  <g transform="matrix(1 0 0 -1 0 960)">
   <path fill="currentColor"
d="M638 737q1 0 1.5 -1t0.5 -2v-127q0 -18 9.5 -33.5t24.5 -23.5q8 -4 15.5 -5.5t14.5 -1.5q10 0 20 2.5t18 8.5l218 123v-457l-219 120q-8 6 -17.5 8.5t-19.5 2.5q-7 0 -14.5 -1.5t-14.5 -5.5q-16 -8 -25.5 -23.5t-9.5 -33.5v-125q0 -1 -0.5 -2t-1.5 -1h-572q-1 0 -1.5 1
t-0.5 2v572q0 1 0.5 2t1.5 1h572v0zM990 769q-5 0 -13.5 -2t-14.5 -8l-258 -152v127q0 28 -19 47.5t-47 19.5h-572q-27 0 -46.5 -19.5t-19.5 -47.5v-572q0 -28 19.5 -47.5t46.5 -19.5h572q27 0 46.5 19.5t19.5 47.5v125l263 -153q6 -6 12 -6.5t12 -0.5q5 0 8.5 1.5t4.5 1.5
q9 4 14.5 12t5.5 18v575q0 11 -5.5 19t-14.5 12q-1 0 -4.5 1.5t-9.5 1.5v0v0z" />
  </g>

</svg>
