<?xml version="1.0" standalone="no"?>
<!DOCTYPE svg PUBLIC "-//W3C//DTD SVG 1.1//EN" "http://www.w3.org/Graphics/SVG/1.1/DTD/svg11.dtd" >
<svg xmlns="http://www.w3.org/2000/svg" xmlns:xlink="http://www.w3.org/1999/xlink" version="1.1" viewBox="-11 0 1045 1024">
  <g transform="matrix(1 0 0 -1 0 960)">
   <path fill="currentColor"
d="M34 18h0.5h0.5q12 0 19.5 8.5t8.5 20.5q0 4 12.5 51.5t60.5 102.5t144 100t264 45l1 -184q0 -9 5 -17t13 -12q9 -4 18 -3t16 7l415 344q6 5 9 11.5t3 13.5t-3 13.5t-9 11.5l-415 340q-7 6 -16 7t-18 -3q-8 -4 -13 -11.5t-5 -17.5l-1 -179q-70 -2 -131.5 -14.5t-115 -34.5
t-97.5 -53.5t-79 -72.5q-57 -67 -82.5 -143.5t-33.5 -142.5t-4.5 -111.5t3.5 -49.5q2 -12 10 -19.5t20 -7.5v0zM577 410v0v0q-120 0 -205.5 -18.5t-145 -47.5t-97.5 -65.5t-64 -72.5q7 58 31.5 123t73.5 121q32 38 74 66.5t93.5 48t111.5 29t128 9.5q13 0 22.5 9.5t9.5 22.5
v144l333 -273l-333 -276v148q0 7 -2.5 12.5t-6.5 10.5q-5 4 -11 6.5t-12 2.5z" />
  </g>

</svg>
