<?xml version="1.0" standalone="no"?>
<!DOCTYPE svg PUBLIC "-//W3C//DTD SVG 1.1//EN" "http://www.w3.org/Graphics/SVG/1.1/DTD/svg11.dtd" >
<svg xmlns="http://www.w3.org/2000/svg" xmlns:xlink="http://www.w3.org/1999/xlink" version="1.1" viewBox="-10 0 1044 1024">
  <g transform="matrix(1 0 0 -1 0 960)">
   <path fill="currentColor"
d="M746 125l-201 111q56 45 75.5 118t19.5 122v135q0 34 -20.5 67.5t-54 60.5t-76.5 44t-88 17q-44 0 -87.5 -17t-77.5 -44t-55 -60.5t-21 -67.5v-135q0 -44 22 -119t79 -120l-207 -112l-27 -16t-27 -38v-81q0 -23 16 -38.5t38 -15.5h692q22 0 38 15.5t16 38.5v81
q0 24 -27 39zM736 0h-672v57l7.5 5t8.5 4q1 1 2 1.5t2 0.5l207 113q14 7 23 20.5t10 29.5q2 16 -4.5 31t-18.5 25q-41 32 -59 91.5t-18 97.5v135q0 35 54.5 80t122.5 45q70 0 122.5 -45t52.5 -80v-135q0 -38 -15 -97.5t-56 -91.5q-13 -10 -19.5 -25t-4.5 -31q1 -16 10 -29.5
t23 -21.5l201 -111q2 -1 3.5 -2t2.5 -1l8 -4t7 -5v-57v0zM970 284l-204 112q56 44 77 117.5t21 121.5v135q0 34 -21 68t-55 61t-77.5 44.5t-88.5 17.5q-58 0 -113 -28t-90 -69q20 -1 41 -2t40 -7q25 19 56.5 30t65.5 11q70 0 124 -45t54 -81v-135q0 -37 -16.5 -96.5
t-57.5 -92.5q-13 -10 -19.5 -25t-4.5 -31q1 -16 10 -29.5t23 -21.5l204 -111q2 -1 3.5 -1.5t2.5 -1.5q4 -1 8 -3.5t7 -4.5v-57h-129q14 -11 20.5 -27t12.5 -37h106q22 0 38 15.5t16 38.5v80q0 24 -27 39l-27 15v0z" />
  </g>

</svg>
