<?xml version="1.0" standalone="no"?>
<!DOCTYPE svg PUBLIC "-//W3C//DTD SVG 1.1//EN" "http://www.w3.org/Graphics/SVG/1.1/DTD/svg11.dtd" >
<svg xmlns="http://www.w3.org/2000/svg" xmlns:xlink="http://www.w3.org/1999/xlink" version="1.1" viewBox="-10 0 1034 1024">
  <g transform="matrix(1 0 0 -1 0 960)">
   <path fill="currentColor"
d="M512 960q-86 0 -161.5 -35t-132 -95.5t-89.5 -141.5t-33 -173v-547q0 -10 6 -18t15 -12q3 -1 5.5 -1.5t5.5 -0.5q7 0 13 2.5t11 7.5l121 134l94 -131q5 -6 11.5 -9.5t14.5 -3.5v0q8 0 14.5 3.5t11.5 9.5l94 127l94 -127q4 -6 11 -9.5t14 -3.5q8 0 15 3.5t11 9.5l96 130
l118 -132q6 -8 16 -10.5t19 1.5t15 12t6 18v547q0 92 -33 173t-89.5 141.5t-132 95.5t-161.5 35v0zM864 52l-89 99q-5 6 -11.5 8.5t-13.5 2.5t-13.5 -3.5t-10.5 -9.5l-94 -127l-93 127q-4 6 -11 9.5t-14 3.5v0q-8 0 -15 -3.5t-11 -9.5l-95 -127l-92 127q-4 6 -10.5 9.5
t-13.5 3.5h-0.5h-1.5q-6 0 -12.5 -2.5t-10.5 -7.5l-92 -101v464q0 78 28 147.5t75.5 121.5t111.5 82t137 30t137 -30t111.5 -82t75.5 -121.5t28 -147.5v-463v0zM672 608q-26 0 -45 -19t-19 -45t19 -45t45 -19t45 19t19 45t-19 45t-45 19v0zM352 608q-26 0 -45 -19t-19 -45
t19 -45t45 -19t45 19t19 45t-19 45t-45 19v0z" />
  </g>

</svg>
