<?xml version="1.0" standalone="no"?>
<!DOCTYPE svg PUBLIC "-//W3C//DTD SVG 1.1//EN" "http://www.w3.org/Graphics/SVG/1.1/DTD/svg11.dtd" >
<svg xmlns="http://www.w3.org/2000/svg" xmlns:xlink="http://www.w3.org/1999/xlink" version="1.1" viewBox="-10 0 1044 1024">
  <g transform="matrix(1 0 0 -1 0 960)">
   <path fill="currentColor"
d="M992 160h-128v594l119 119q10 10 10 23t-10 22q-9 10 -22 10t-23 -10l-118 -118h-596v128q0 13 -9.5 22.5t-22.5 9.5t-22.5 -9.5t-9.5 -22.5v-128h-128q-13 0 -22.5 -9.5t-9.5 -22.5t9.5 -22.5t22.5 -9.5h128v-608q0 -2 0.5 -4t1.5 -4v-2v-2q3 -6 7.5 -10.5t10.5 -7.5h2
h2q2 -1 4 -1.5t4 -0.5h608v-128q0 -13 9.5 -22.5t22.5 -9.5t22.5 9.5t9.5 22.5v128h128q13 0 22.5 9.5t9.5 22.5t-9.5 22.5t-22.5 9.5v0zM755 736l-531 -531v531h531zM269 160l531 530v-530h-531z" />
  </g>

</svg>
