<?xml version="1.0" standalone="no"?>
<!DOCTYPE svg PUBLIC "-//W3C//DTD SVG 1.1//EN" "http://www.w3.org/Graphics/SVG/1.1/DTD/svg11.dtd" >
<svg xmlns="http://www.w3.org/2000/svg" xmlns:xlink="http://www.w3.org/1999/xlink" version="1.1" viewBox="-10 0 1044 1024">
  <g transform="matrix(1 0 0 -1 0 960)">
   <path fill="currentColor"
d="M512 960q-106 0 -199.5 -40t-163 -109.5t-109.5 -163t-40 -199.5t40 -199.5t109.5 -163t163 -109.5t199.5 -40t199.5 40t163 109.5t109.5 163t40 199.5t-40 199.5t-109.5 163t-163 109.5t-199.5 40v0zM512 -1q-93 0 -174.5 35.5t-142 96.5t-96 142.5t-35.5 174.5
t35.5 174.5t96 142t142 96t174.5 35.5t174.5 -35.5t142 -96t96 -142t35.5 -174.5t-35.5 -174.5t-96 -142.5t-142 -96.5t-174.5 -35.5zM465 160h80v81h-80v-81zM511 736q-35 0 -64 -9t-52 -28t-34 -53t-10 -65l1 -3h74q0 19 6 42t19 32q12 10 27 15t33 5q21 0 36.5 -6
t26.5 -17t16.5 -27t5.5 -36q0 -18 -4 -32.5t-12 -27.5q-8 -12 -22 -29.5t-33 -40.5q-20 -18 -32.5 -32.5t-16.5 -25.5q-5 -11 -7.5 -30.5t-2.5 -47.5h77q0 17 1 30.5t3 21.5t8.5 17.5t17.5 20.5q22 22 40.5 43.5t32.5 41.5q13 21 20 44t7 49q0 35 -10.5 62.5t-31.5 46.5
q-22 20 -51.5 29.5t-68.5 9.5v0z" />
  </g>

</svg>
