<?xml version="1.0" standalone="no"?>
<!DOCTYPE svg PUBLIC "-//W3C//DTD SVG 1.1//EN" "http://www.w3.org/Graphics/SVG/1.1/DTD/svg11.dtd" >
<svg xmlns="http://www.w3.org/2000/svg" xmlns:xlink="http://www.w3.org/1999/xlink" version="1.1" viewBox="-10 0 1044 1024">
  <g transform="matrix(1 0 0 -1 0 960)">
   <path fill="currentColor"
d="M624 960q-83 0 -156 -31.5t-127 -85.5t-85.5 -127t-31.5 -156q0 -74 25 -140t69 -118l-127 -128l-135 136q-10 10 -23 10t-22 -10q-10 -9 -10 -22.5t10 -22.5l135 -137l-136 -137q-10 -9 -10 -22.5t10 -22.5q9 -9 22.5 -9t22.5 9l136 137l137 -138q9 -9 22 -9t23 9
q9 10 9 23t-9 22l-137 138l128 129q52 -45 118.5 -71t141.5 -26q83 0 155.5 31.5t127 86t86 127t31.5 155.5t-31.5 156t-86 127t-127 85.5t-155.5 31.5v0zM624 224q-70 0 -131.5 26.5t-107 72t-72 107t-26.5 130.5q0 70 26.5 131.5t72 107t107 72t131.5 26.5
q69 0 130.5 -26.5t107 -72t72 -107t26.5 -131.5q0 -69 -26.5 -130.5t-72 -107t-107 -72t-130.5 -26.5z" />
  </g>

</svg>
