<?xml version="1.0" standalone="no"?>
<!DOCTYPE svg PUBLIC "-//W3C//DTD SVG 1.1//EN" "http://www.w3.org/Graphics/SVG/1.1/DTD/svg11.dtd" >
<svg xmlns="http://www.w3.org/2000/svg" xmlns:xlink="http://www.w3.org/1999/xlink" version="1.1" viewBox="-10 0 1044 1024">
  <g transform="matrix(1 0 0 -1 0 960)">
   <path fill="currentColor"
d="M960 864h-896q-26 0 -45 -18.5t-19 -45.5v-544q0 -26 19 -45t45 -19h416v-96h-160q-13 0 -22.5 -9.5t-9.5 -22.5t9.5 -22.5t22.5 -9.5h384q13 0 22.5 9.5t9.5 22.5t-9.5 22.5t-22.5 9.5h-160v96h416q26 0 45 19t19 45v544q0 27 -19 45.5t-45 18.5zM960 256h-896v544h896
v-544z" />
  </g>

</svg>
