<?xml version="1.0" encoding="utf-8"?>
<!DOCTYPE svg PUBLIC "-//W3C//DTD SVG 1.1//EN" "http://www.w3.org/Graphics/SVG/1.1/DTD/svg11.dtd">
<svg viewBox="-10 0 1044 1024" xmlns="http://www.w3.org/2000/svg" xmlns:xlink= "http://www.w3.org/1999/xlink">
  <g transform="matrix(1 0 0 -1 0 960)">
   <path fill="currentColor"
d="M1023 17l-84 504q-5 49 -44 84t-88 35h-71v85q0 49 -16.5 92t-46 75t-70.5 50.5t-90 18.5t-90 -18.5t-71 -50.5t-47 -75t-17 -92v-85h-77q-49 0 -88 -35t-44 -82l-77 -505q-3 -20 1 -35.5t14 -26.5q9 -10 22.5 -15.5t31.5 -5.5h873q25 0 40 8t22 16t13 22t4 36v0z
M352 725q0 71 45 121.5t116 50.5t115 -50.5t44 -121.5v-85h-320v85v0zM947 0l-872 -1q-4 0 -7.5 2.5t-2.5 8.5l77 504q3 25 23.5 43.5t45.5 18.5h77v-73q-14 -9 -23 -23.5t-9 -31.5q0 -27 18.5 -45.5t45.5 -18.5t45.5 18.5t18.5 45.5q0 17 -9 31.5t-23 23.5v73h320v-73
q-14 -9 -23 -23.5t-9 -31.5q0 -27 18.5 -45.5t45.5 -18.5t45.5 18.5t18.5 45.5q0 17 -9 31.5t-23 23.5v73h71q25 0 45.5 -18.5t23.5 -45.5l83 -503q1 -3 -2 -6t-10 -3v0z" />
  </g>
</svg>
