<?xml version="1.0" standalone="no"?>
<!DOCTYPE svg PUBLIC "-//W3C//DTD SVG 1.1//EN" "http://www.w3.org/Graphics/SVG/1.1/DTD/svg11.dtd" >
<svg xmlns="http://www.w3.org/2000/svg" xmlns:xlink="http://www.w3.org/1999/xlink" version="1.1" viewBox="-12 0 1048 1024">
  <g transform="matrix(1 0 0 -1 0 960)">
   <path fill="currentColor"
d="M1021 120l-187 346q14 33 22 68.5t8 73.5q0 73 -28 137t-75.5 112t-111.5 75.5t-137 27.5t-137 -27.5t-112 -75.5t-75.5 -112t-27.5 -137q0 -39 8 -75.5t23 -69.5l-188 -343q-5 -8 -4 -17.5t7 -16.5q5 -8 14 -11.5t18 -0.5l161 36l55 -153q3 -9 10.5 -14.5t17.5 -6.5h0.5
h1.5q9 0 16.5 4.5t11.5 12.5l164 305q9 -1 18 -1.5t18 -0.5q8 0 16.5 0.5t16.5 1.5l167 -305q4 -8 11.5 -12.5t16.5 -4.5h1.5h1.5q9 1 16.5 6.5t10.5 14.5l55 153l161 -36q9 -3 18 0.5t14 10.5q6 8 7 17.5t-4 17.5v0zM290 47l-40 112q-5 11 -15.5 17t-22.5 3l-119 -27
l136 247q33 -45 79.5 -78t101.5 -50zM224 608q0 59 22.5 111.5t62 91.5t91.5 62t112 23q59 0 111.5 -23t91.5 -62t61.5 -91.5t22.5 -111.5t-22.5 -111.5t-61.5 -91.5t-91.5 -62t-111.5 -23q-60 0 -112 23t-91.5 62t-62 91.5t-22.5 111.5zM812 179q-12 3 -22.5 -3t-15.5 -17
l-40 -113l-123 224q56 17 103.5 51t81.5 80l135 -249l-119 27v0z" />
  </g>

</svg>
