<?xml version="1.0" standalone="no"?>
<!DOCTYPE svg PUBLIC "-//W3C//DTD SVG 1.1//EN" "http://www.w3.org/Graphics/SVG/1.1/DTD/svg11.dtd" >
<svg xmlns="http://www.w3.org/2000/svg" xmlns:xlink="http://www.w3.org/1999/xlink" version="1.1" viewBox="-10 0 1043 1024">
  <g transform="matrix(1 0 0 -1 0 960)">
   <path fill="currentColor"
d="M934 894v0q8 0 13.5 -1t8.5 -2q3 -9 1 -38.5t-36 -63.5l-231 -231l2 -28q3 -45 7 -118t9 -142q3 -61 6 -111t4 -55q0 -3 -0.5 -5t-3.5 -6q-7 -8 -19 -21.5t-23 -25.5q-9 24 -21.5 58t-26.5 71.5t-27 73.5t-23 64l-35 94l-71 -71l-130 -125l-19 -19v-25v-41v-49v-31.5
v-22.5q-1 -1 1.5 -1.5t1.5 -0.5q-2 3 -4 6.5t-4 7.5q-20 31 -43 68t-31 50l-9 13l-13 9q-36 22 -73 45t-62 39q1 0 1.5 -1.5t1.5 -1.5h2h20h26q19 0 39 -0.5t37 -0.5h11.5h9.5l26 1l18 18l126 130l71 71l-94 34q-27 10 -63.5 23.5t-74.5 27.5t-73 27t-58 22q12 12 25 23.5
t22 18.5q2 2 4 3t3 1h2q6 0 61 -3.5t119 -7.5q67 -5 136.5 -9.5t112.5 -6.5l29 -2l231 231q24 24 46 30.5t34 6.5v0zM934 958q-28 0 -61 -12.5t-64 -43.5l-211 -210q-44 2 -116 7t-140.5 9.5t-119.5 7.5t-54 3h-2h-3q-8 0 -20.5 -3t-27.5 -15q-18 -15 -45.5 -40.5
l-27.5 -25.5q-9 -9 -13.5 -19.5t-2.5 -21.5q0 -6 5 -16t21 -16q4 -1 39.5 -14.5t82.5 -31t97 -36t85 -31.5l-126 -130h-9.5h-10.5q-29 0 -66.5 0.5t-55.5 0.5h-4h-3q-6 0 -19.5 -2.5t-42.5 -26.5l-3 -3q-9 -9 -12 -17.5t-3 -14.5t2.5 -14t11.5 -15q5 -4 60 -39t110 -68
q7 -11 23 -37t33.5 -54t31.5 -50t15 -24q5 -8 12.5 -12.5t16.5 -4.5v0h1q8 0 17 4.5t18 12.5q26 30 27.5 43.5t1.5 18.5q1 17 0.5 69t0.5 79l130 126q13 -34 31 -84t35.5 -96.5t30.5 -81.5t15 -40q6 -15 15.5 -20t15.5 -6h2.5h2.5q9 0 18.5 4.5t17.5 12.5l25.5 27.5
t40.5 45.5t17 32t1 22q0 2 -3 52.5t-7 119t-8.5 139.5t-6.5 115l211 211q56 56 55.5 114t-20.5 78q-10 10 -27.5 16t-40.5 6v0v0z" />
  </g>

</svg>
