<?xml version="1.0" standalone="no"?>
<!DOCTYPE svg PUBLIC "-//W3C//DTD SVG 1.1//EN" "http://www.w3.org/Graphics/SVG/1.1/DTD/svg11.dtd" >
<svg xmlns="http://www.w3.org/2000/svg" xmlns:xlink="http://www.w3.org/1999/xlink" version="1.1" viewBox="-10 0 1040 1024">
  <g transform="matrix(1 0 0 -1 0 960)">
   <path fill="currentColor"
d="M102 630q-14 0 -23.5 -9.5t-9.5 -23.5t9.5 -23.5t23.5 -9.5q113 0 209.5 -39.5t166.5 -110t109.5 -167.5t39.5 -210q0 -14 9.5 -23.5t23.5 -9.5t23.5 9.5t9.5 23.5q0 127 -44.5 236t-123.5 188t-187 124t-236 45v0zM102 957q-13 0 -23 -9.5t-10 -22.5q0 -14 10 -23.5
t23 -9.5q176 0 331.5 -67t271.5 -183t183 -271.5t67 -331.5q0 -13 9.5 -23t23.5 -10q13 0 22.5 10t9.5 23q0 190 -72 357t-197 292t-292 197t-357 72v0zM184 300q-75 0 -127.5 -53t-52.5 -127q0 -75 52.5 -128t127.5 -53t127.5 53t52.5 128q0 74 -52.5 127t-127.5 53zM184 2
q-48 0 -82.5 34.5t-34.5 83.5q0 48 34.5 82.5t82.5 34.5t82.5 -34.5t34.5 -82.5q0 -49 -34.5 -83.5t-82.5 -34.5v0z" />
  </g>

</svg>
