<?xml version="1.0" standalone="no"?>
<!DOCTYPE svg PUBLIC "-//W3C//DTD SVG 1.1//EN" "http://www.w3.org/Graphics/SVG/1.1/DTD/svg11.dtd" >
<svg xmlns="http://www.w3.org/2000/svg" xmlns:xlink="http://www.w3.org/1999/xlink" version="1.1" viewBox="-12 0 1048 1024">
  <g transform="matrix(1 0 0 -1 0 960)">
   <path fill="currentColor"
d="M1025 308q0 5 -8.5 56.5t-19 114.5t-20.5 121t-13 76q0 4 -0.5 7.5t-1.5 7.5q-5 37 -30 89t-135 52q-14 0 -23 -9.5t-9 -22.5t9 -22.5t23 -9.5q68 0 82.5 -24.5t19.5 -60.5q0 -4 0.5 -8.5t1.5 -8.5q3 -17 13.5 -75.5t21.5 -125.5q-28 21 -62.5 33.5t-72.5 12.5
q-61 0 -112.5 -30.5t-81.5 -79.5q-14 6 -38.5 11.5t-56.5 5.5q-33 0 -56.5 -5.5t-37.5 -11.5q-30 49 -80.5 79.5t-112.5 30.5q-40 0 -76 -13.5t-65 -36.5q11 67 22 127.5t14 77.5q0 4 1 8.5t1 8.5q5 36 19.5 60.5t82.5 24.5q13 0 22.5 9.5t9.5 22.5t-9.5 22.5t-22.5 9.5
q-110 0 -135.5 -52t-29.5 -89q-1 -4 -1.5 -7.5t-0.5 -7.5q-3 -18 -12.5 -75.5t-19.5 -120.5t-18 -114t-8 -56q-1 -2 -0.5 -4.5t0.5 -4.5v-6.5v-7.5q0 -46 18 -86.5t49 -71t72 -48t87 -17.5q47 0 87.5 17.5t71 48t48 71t17.5 86.5q0 14 -2 27.5t-5 26.5q10 4 27.5 8.5
t42.5 4.5q24 0 42 -4t28 -8q-4 -13 -5.5 -26.5t-1.5 -28.5q0 -46 18 -86.5t49 -71t72 -48t87 -17.5q47 0 87.5 17.5t71 48t48 71t17.5 86.5q0 3 -0.5 5.5t-0.5 4.5q1 3 1.5 5.5t-0.5 5.5v0zM225 128q-66 0 -114 47.5t-48 111.5q0 65 48 112.5t114 47.5t113 -47t47 -113
t-47 -112.5t-113 -46.5v0zM801 128q-66 0 -114 47.5t-48 111.5q0 65 48 112.5t114 47.5q57 0 100.5 -36t55.5 -89q0 -5 0.5 -9.5t0.5 -8.5q1 -2 1.5 -4t0.5 -4t0.5 -4t0.5 -5q0 -66 -47 -112.5t-113 -46.5v0z" />
  </g>

</svg>
