<?xml version="1.0" standalone="no"?>
<!DOCTYPE svg PUBLIC "-//W3C//DTD SVG 1.1//EN" "http://www.w3.org/Graphics/SVG/1.1/DTD/svg11.dtd" >
<svg xmlns="http://www.w3.org/2000/svg" xmlns:xlink="http://www.w3.org/1999/xlink" version="1.1" viewBox="-10 0 1044 1024">
  <g transform="matrix(1 0 0 -1 0 960)">
   <path fill="currentColor"
d="M763 700q-17 44 -43 80t-62 61t-81 38.5t-99 13.5q-70 0 -127.5 -24t-100 -66.5t-68 -100t-29.5 -124.5q-67 -21 -110 -83t-43 -139q0 -47 17.5 -89t47 -74t68.5 -50.5t83 -18.5h28q14 0 23 9.5t9 22.5t-9 22.5t-23 9.5h-28q-62 0 -107.5 50t-45.5 118q0 60 37 108t90 57
l29 5l-2 30h-1q0 58 18.5 108.5t53 87t82.5 57t108 20.5q95 0 150.5 -44.5t80.5 -124.5l7 -22l23 -1q45 0 85 -17.5t71 -47t49 -69t18 -84.5q0 -41 -13 -82t-37 -74.5t-57.5 -54t-74.5 -20.5h-9q-13 0 -22.5 -9.5t-9.5 -22.5t9.5 -22.5t22.5 -9.5v0q60 2 107 29t79.5 68.5
t49.5 93.5t17 104q0 55 -20.5 103.5t-56 86t-83 61.5t-101.5 30v0zM646 185q-6 7 -15.5 7t-16.5 -7l-70 -78v322q0 13 -9.5 22.5t-22.5 9.5q-14 0 -23 -9.5t-9 -22.5v-322l-68 76q-7 7 -16.5 8t-16.5 -6l-8 -5q-7 -7 -7 -17t7 -17l116 -127v-1v0l8 -8q3 -4 7.5 -5.5
t8.5 -1.5q5 0 9 1.5t8 5.5l8 8v0v1l118 129q7 7 7 15t-7 15l-8 7v0z" />
  </g>

</svg>
