<?xml version="1.0" standalone="no"?>
<!DOCTYPE svg PUBLIC "-//W3C//DTD SVG 1.1//EN" "http://www.w3.org/Graphics/SVG/1.1/DTD/svg11.dtd" >
<svg xmlns="http://www.w3.org/2000/svg" xmlns:xlink="http://www.w3.org/1999/xlink" version="1.1" viewBox="-10 0 1034 1024">
  <g transform="matrix(1 0 0 -1 0 960)">
   <path fill="currentColor"
d="M512 960q-74 0 -138.5 -28.5t-112 -77t-75 -114t-27.5 -139.5q0 -112 44 -172.5t87 -99.5q28 -25 45 -42.5t17 -36.5v-54q0 -1 0.5 -2t0.5 -2h-1v-93q0 -73 44 -118t117 -45q71 0 115 45t44 118v93h-1q0 1 0.5 2t0.5 2v54q0 29 19 49.5t51 48.5q43 38 83 93t40 160
q0 74 -27.5 139.5t-75 114t-112 77t-138.5 28.5zM511 0q-45 0 -70 26.5t-25 72.5v43q17 -6 40.5 -10t55.5 -4q31 0 55 4.5t41 10.5v-44q0 -47 -25.5 -73t-71.5 -26v0zM700 396q-33 -28 -62.5 -61t-29.5 -85v-40q-12 -6 -34.5 -12.5t-62.5 -6.5q-41 0 -63 6t-32 12v41
q0 41 -26.5 70t-56.5 56q-41 37 -75.5 85.5t-34.5 139.5q0 61 22 114.5t61 94t92 63.5t114 23t114 -23t92 -63.5t61 -94t22 -114.5q0 -83 -30.5 -126.5t-70.5 -78.5z" />
  </g>

</svg>
