<?xml version="1.0" standalone="no"?>
<!DOCTYPE svg PUBLIC "-//W3C//DTD SVG 1.1//EN" "http://www.w3.org/Graphics/SVG/1.1/DTD/svg11.dtd" >
<svg xmlns="http://www.w3.org/2000/svg" xmlns:xlink="http://www.w3.org/1999/xlink" version="1.1" viewBox="-10 0 1043 1024">
  <g transform="matrix(1 0 0 -1 0 960)">
   <path fill="currentColor"
d="M512 896q40 0 80.5 -15.5t72 -39t51.5 -51.5t20 -54v-160q0 -46 -21.5 -119.5t-73.5 -113.5q-13 -10 -19.5 -25.5t-4.5 -32.5t12 -30.5t25 -20.5l279 -132q1 0 13.5 -6.5t12.5 -32.5v-62l-895 -1v65q0 20 10.5 27.5t16.5 9.5l281 133q15 7 24.5 20.5t12.5 29.5
q2 17 -4.5 32.5t-19.5 25.5q-50 40 -73.5 113t-23.5 120v160q0 25 19.5 53t51.5 52t72 39.5t81 15.5zM512 960q-53 0 -105 -20t-92.5 -52t-65.5 -72t-25 -80v-160q0 -26 6 -63.5t20.5 -77t37.5 -77.5t57 -65l-281 -133l-32 -18.5t-32 -44.5v-97q0 -26 18.5 -44.5t45.5 -18.5
h896q26 0 44.5 18.5t18.5 44.5v97q0 28 -31.5 45.5l-31.5 17.5l-279 133q33 26 56 62.5t37 76t20 77.5t6 67v160q0 40 -25.5 80t-66 72t-92 52t-104.5 20v0v0z" />
  </g>

</svg>
