<?xml version="1.0" standalone="no"?>
<!DOCTYPE svg PUBLIC "-//W3C//DTD SVG 1.1//EN" "http://www.w3.org/Graphics/SVG/1.1/DTD/svg11.dtd" >
<svg xmlns="http://www.w3.org/2000/svg" xmlns:xlink="http://www.w3.org/1999/xlink" version="1.1" viewBox="-11 0 1046 1024">
  <g transform="matrix(1 0 0 -1 0 960)">
   <path fill="currentColor"
d="M512 883l137 -286l313 -46l-226 -226l7 -45l46 -270l-277 148l-277 -148l46 270l7 45l-226 226l312 46l21 43l117 243v0zM512 944q-22 0 -40 -11t-27 -30l-116 -241l-267 -39q-20 -3 -36 -16.5t-23 -32.5q-6 -19 -1.5 -38.5t19.5 -34.5l195 -195l-45 -271q-4 -20 4.5 -39
t25.5 -31q10 -7 20.5 -10t22.5 -3q9 0 18 2t17 7l233 125l232 -125q9 -5 18 -7t18 -2q11 0 22 3t21 10q17 12 25.5 31t4.5 39l-45 271l195 195q15 15 19.5 34.5t-1.5 38.5q-7 20 -23 33t-36 16l-267 39l-116 241q-9 19 -27 30t-40 11v0v0z" />
  </g>

</svg>
