<?xml version="1.0" standalone="no"?>
<!DOCTYPE svg PUBLIC "-//W3C//DTD SVG 1.1//EN" "http://www.w3.org/Graphics/SVG/1.1/DTD/svg11.dtd" >
<svg xmlns="http://www.w3.org/2000/svg" xmlns:xlink="http://www.w3.org/1999/xlink" version="1.1" viewBox="-10 0 1044 1024">
  <g transform="matrix(1 0 0 -1 0 960)">
   <path fill="currentColor"
d="M960 752h-480l-96 96h-320q-26 0 -45 -18.5t-19 -45.5v-160v0v-64v0v-448q0 -27 19 -45.5t45 -18.5h896q27 0 45.5 18.5t18.5 45.5v576q0 27 -18.5 45.5t-45.5 18.5v0zM64 784h291l79 -77l20 -19h506v-64h-896v160v0zM64 112v448h896v-448h-896z" />
  </g>

</svg>
