<?xml version="1.0" standalone="no"?>
<!DOCTYPE svg PUBLIC "-//W3C//DTD SVG 1.1//EN" "http://www.w3.org/Graphics/SVG/1.1/DTD/svg11.dtd" >
<svg xmlns="http://www.w3.org/2000/svg" xmlns:xlink="http://www.w3.org/1999/xlink" version="1.1" viewBox="-12 0 1048 1024">
  <g transform="matrix(1 0 0 -1 0 960)">
   <path fill="currentColor"
d="M1000 188q-6 5 -36 25t-65.5 43.5t-67 44t-39.5 25.5q-7 4 -15 6.5t-17 2.5q-12 0 -24.5 -3.5t-25.5 -10.5q-12 -6 -42.5 -23.5t-48.5 -27.5q-16 11 -54 42.5t-98 91.5q-59 59 -90.5 97t-42.5 54q10 19 27 49t24 42q12 24 13 46t-8 37q-5 8 -25.5 39t-44 66.5t-44 66
t-24.5 36.5q-8 12 -22 18t-30 6q-13 0 -26 -4t-25 -12q-1 -1 -24.5 -19t-51.5 -44.5t-51.5 -56t-22.5 -53.5q2 -65 32 -134.5t75.5 -137.5t100.5 -131.5t108 -116.5t116.5 -108.5t131.5 -101t138 -75.5t136 -32h1q23 0 52.5 23.5t55.5 51.5t44 51.5l18 23.5q21 31 16.5 60.5
t-24.5 42.5v0zM956 123q-30 -42 -67 -79.5t-54 -44.5q-45 3 -98.5 23.5t-113.5 58t-126.5 92t-136.5 124.5q-69 70 -123.5 136t-92.5 126t-58.5 113.5t-22.5 98.5q6 17 43.5 54t79.5 67q3 2 6.5 3.5t7.5 1.5h1t1 -1q7 -9 26 -38t40.5 -61t40.5 -61t25 -39q0 -2 -1 -7.5
t-5 -13.5t-17.5 -31.5t-32.5 -57.5l-20 -35l23 -33q13 -19 46.5 -59t94.5 -102q61 -61 101.5 -94t58.5 -46l33 -24l36 20q25 15 52 30t37 20q8 5 13 6t7 1v0h1l37.5 -25l61.5 -41t62 -41t39 -26q0 -2 -0.5 -6t-4.5 -9zM644 583q3 -3 7 -4.5t9 -1.5h12v0h1l229 -1q10 1 17 8
t7 16v17q-1 11 -9 17.5t-18 6.5h-151l262 262q9 9 9 22t-9 23q-10 9 -23 9t-23 -9l-262 -263l1 155q0 10 -7 17t-16 7h-17q-9 0 -16 -5.5t-8 -15.5v-231h0.5h0.5l-2 -12q0 -5 1.5 -9t4.5 -8v0z" />
  </g>

</svg>
