<?xml version="1.0" standalone="no"?>
<!DOCTYPE svg PUBLIC "-//W3C//DTD SVG 1.1//EN" "http://www.w3.org/Graphics/SVG/1.1/DTD/svg11.dtd" >
<svg xmlns="http://www.w3.org/2000/svg" xmlns:xlink="http://www.w3.org/1999/xlink" version="1.1" viewBox="-10 0 1044 1024">
  <g transform="matrix(1 0 0 -1 0 960)">
   <path fill="currentColor"
d="M960 157l-278 132q27 14 106 23.5t88 34.5l-30.5 58t-41.5 144q-4 33 -10.5 78t-13.5 107q-5 49 -28 91t-58.5 72t-82 46.5t-99.5 16.5v0v0v0v0q-53 0 -99.5 -16.5t-82 -46.5t-58.5 -72t-28 -91q-7 -62 -13.5 -107t-10.5 -78q-11 -86 -41.5 -144l-30.5 -58
q9 -25 88 -34.5t106 -23.5l-278 -132l-32 -17.5t-32 -57.5v-85q0 -26 18.5 -43.5t45.5 -17.5h896q27 0 45.5 17.5t18.5 43.5v85q0 40 -32 57.5l-32 17.5v0zM64 0v82q0 2 7.5 7t14.5 8l3 1.5t2 1.5l279 132q16 7 26 22.5t10 34.5q1 18 -8.5 33.5t-26.5 24.5q-16 8 -38.5 13
t-56.5 11q-8 1 -18.5 3t-20.5 4q13 31 26.5 73t19.5 91q2 12 3.5 25.5t3.5 28.5q4 26 8.5 58.5t8.5 71.5q9 75 66 122.5t139 47.5v0v0v0v0q82 0 139 -47.5t66 -122.5q4 -39 8.5 -71.5t8.5 -58.5q2 -15 3.5 -28.5t3.5 -25.5q6 -49 19.5 -91t26.5 -73q-10 -2 -20.5 -4
t-18.5 -3q-34 -6 -56.5 -11t-38.5 -13q-17 -9 -26.5 -24.5t-8.5 -33.5q0 -19 10 -34.5t26 -22.5l279 -133q1 0 2 -0.5l3 -1.5q7 -3 14 -8t8 -7v-82h-896v0z" />
  </g>

</svg>
