<?xml version="1.0" standalone="no"?>
<!DOCTYPE svg PUBLIC "-//W3C//DTD SVG 1.1//EN" "http://www.w3.org/Graphics/SVG/1.1/DTD/svg11.dtd" >
<svg xmlns="http://www.w3.org/2000/svg" xmlns:xlink="http://www.w3.org/1999/xlink" version="1.1" viewBox="-13 0 1047 1024">
  <g transform="matrix(1 0 0 -1 0 960)">
   <path fill="currentColor"
d="M1015 -9l-283 285q45 54 71 122.5t26 144.5q0 87 -32.5 162.5t-89 132.5t-132.5 89.5t-162 32.5t-162 -32.5t-132.5 -89.5t-89 -132.5t-32.5 -162.5q0 -86 32.5 -162t89 -132.5t132.5 -89t162 -32.5q79 0 149 27.5t125 75.5l282 -284q10 -10 23 -10t23 10q9 9 9 22.5
t-9 22.5zM413 192q-73 0 -137 28t-112 75.5t-75.5 111.5t-27.5 137t27.5 137t75.5 111.5t112 75.5t137 28q72 0 136 -28t112 -75.5t76 -111.5t28 -137t-28 -137t-76 -111.5t-112 -75.5t-136 -28zM573 576h-128v128q0 13 -9.5 22.5t-22.5 9.5q-14 0 -23 -9.5t-9 -22.5v-128
h-128q-14 0 -23 -9.5t-9 -22.5t9 -22.5t23 -9.5h128v-128q0 -13 9 -22.5t23 -9.5q13 0 22.5 9.5t9.5 22.5v128h128q13 0 22.5 9.5t9.5 22.5t-9.5 22.5t-22.5 9.5z" />
  </g>

</svg>
