<?xml version="1.0" standalone="no"?>
<!DOCTYPE svg PUBLIC "-//W3C//DTD SVG 1.1//EN" "http://www.w3.org/Graphics/SVG/1.1/DTD/svg11.dtd" >
<svg xmlns="http://www.w3.org/2000/svg" xmlns:xlink="http://www.w3.org/1999/xlink" version="1.1" viewBox="-10 0 1044 1024">
  <g transform="matrix(1 0 0 -1 0 960)">
   <path fill="currentColor"
d="M512 960q-106 0 -199.5 -40t-163 -109.5t-109.5 -163t-40 -199.5t40 -199.5t109.5 -163t163 -109.5t199.5 -40t199.5 40t163 109.5t109.5 163t40 199.5t-40 199.5t-109.5 163t-163 109.5t-199.5 40zM64 448q0 42 7.5 82t22 77.5t34.5 71t46 63.5l632 -632
q-30 -26 -63.5 -46.5t-71 -35t-77.5 -22t-82 -7.5q-93 0 -174.5 35.5t-142 96.5t-96 142.5t-35.5 174.5zM851 155l-632 632q30 25 63.5 45.5t70.5 34.5t77 21.5t82 7.5q93 0 174.5 -35.5t142 -96t96 -142t35.5 -174.5q0 -42 -7.5 -82t-21.5 -77t-34.5 -70.5t-45.5 -63.5z
" />
  </g>

</svg>
