<?xml version="1.0" standalone="no"?>
<!DOCTYPE svg PUBLIC "-//W3C//DTD SVG 1.1//EN" "http://www.w3.org/Graphics/SVG/1.1/DTD/svg11.dtd" >
<svg xmlns="http://www.w3.org/2000/svg" xmlns:xlink="http://www.w3.org/1999/xlink" version="1.1" viewBox="-10 0 1034 1024">
  <g transform="matrix(1 0 0 -1 0 960)">
   <path fill="currentColor"
d="M833 895h-64v-215q0 -78 -43.5 -138.5t-135.5 -106.5q95 -48 137.5 -110t42.5 -149q0 -57 -0.5 -103t-0.5 -72h64q13 0 22.5 -9.5t9.5 -22.5q0 -14 -9.5 -23t-22.5 -9h-642q-13 0 -22.5 9t-9.5 23q0 13 9.5 22.5t22.5 9.5h66q0 26 -0.5 72t-0.5 103q0 87 42 149t136 110
q-90 46 -133.5 106.5t-43.5 138.5v215h-66q-13 0 -22.5 9.5t-9.5 22.5q0 14 9.5 23t22.5 9h642q13 0 22.5 -9t9.5 -23q0 -13 -9.5 -22.5t-22.5 -9.5v0zM320 176q0 -58 0.5 -103.5t0.5 -71.5h384q0 26 0.5 72t0.5 103q0 66 -37 120t-157 104q-120 -50 -156 -104t-36 -120z
M705 895h-384v-215q0 -46 32 -102t159 -109q128 53 160.5 109t32.5 102v215z" />
  </g>

</svg>
