<?xml version="1.0" standalone="no"?>
<!DOCTYPE svg PUBLIC "-//W3C//DTD SVG 1.1//EN" "http://www.w3.org/Graphics/SVG/1.1/DTD/svg11.dtd" >
<svg xmlns="http://www.w3.org/2000/svg" xmlns:xlink="http://www.w3.org/1999/xlink" version="1.1" viewBox="-11 0 1045 1024">
  <g transform="matrix(1 0 0 -1 0 960)">
   <path fill="currentColor"
d="M799 576v160q0 40 -25 80t-66 72t-92.5 52t-104.5 20t-104.5 -20t-92.5 -52t-66 -72t-25 -80v-160q0 -26 6.5 -63.5t21 -77t37.5 -77.5t56 -65l-281 -133l-32 -18.5t-32 -45.5v-96q0 -26 19 -45t45 -19h608v64h-608v65q0 19 10.5 27t16.5 10l281 133q15 7 25 20.5
t12 29.5q2 17 -4 32.5t-19 25.5q-50 40 -74 113t-24 120v160q0 25 20 53t52 52t72 39.5t80 15.5q41 0 81 -15.5t72 -39t51.5 -51.5t19.5 -54v-160q0 -46 -21.5 -119.5t-72.5 -113.5q-13 -11 -19.5 -26t-4.5 -32t12 -30.5t25 -20.5l18 -8l28 52l-20 15q34 26 56.5 62.5
t36.5 76t20 77.5t6 67v0zM925 81l90 91q9 9 9 22.5t-9 22.5t-22.5 9t-22.5 -9l-91 -91l-90 91q-9 9 -22.5 9t-22.5 -9q-10 -9 -10 -22.5t10 -22.5l90 -91l-90 -90q-10 -10 -10 -23t10 -23q9 -9 22.5 -9t22.5 9l90 91l91 -91q9 -9 22.5 -9t22.5 9q9 10 9 23t-9 23l-90 90v0z
" />
  </g>

</svg>
