<?xml version="1.0" standalone="no"?>
<!DOCTYPE svg PUBLIC "-//W3C//DTD SVG 1.1//EN" "http://www.w3.org/Graphics/SVG/1.1/DTD/svg11.dtd" >
<svg xmlns="http://www.w3.org/2000/svg" xmlns:xlink="http://www.w3.org/1999/xlink" version="1.1" viewBox="-10 0 1044 1024">
  <g transform="matrix(1 0 0 -1 0 960)">
   <path fill="currentColor"
d="M512 960q-106 0 -199.5 -40t-163 -109.5t-109.5 -163t-40 -199.5t40 -199.5t109.5 -163t163 -109.5t199.5 -40t199.5 40t163 109.5t109.5 163t40 199.5t-40 199.5t-109.5 163t-163 109.5t-199.5 40zM512 -1q-93 0 -174.5 35.5t-142 96.5t-96 142.5t-35.5 174.5
t35.5 174.5t96 142t142 96t174.5 35.5t174.5 -35.5t142 -96t96 -142t35.5 -174.5t-35.5 -174.5t-96 -142.5t-142 -96.5t-174.5 -35.5zM716 635l-300 -302l-135 135q-10 10 -23 10t-23 -10q-9 -9 -9 -22.5t9 -22.5l159 -158q9 -10 22.5 -10t22.5 10l2 2l2 2l319 321
q9 9 9 22.5t-9 22.5q-10 10 -23 10t-23 -10z" />
  </g>

</svg>
