<?xml version="1.0" standalone="no"?>
<!DOCTYPE svg PUBLIC "-//W3C//DTD SVG 1.1//EN" "http://www.w3.org/Graphics/SVG/1.1/DTD/svg11.dtd" >
<svg xmlns="http://www.w3.org/2000/svg" xmlns:xlink="http://www.w3.org/1999/xlink" version="1.1" viewBox="-10 0 1034 1024">
  <g transform="matrix(1 0 0 -1 0 960)">
   <path fill="currentColor"
d="M514 960q-60 0 -112.5 -22.5t-92 -61.5t-62.5 -91t-23 -111v-452q0 -59 23 -111t62.5 -91t92 -61.5t112.5 -22.5q59 0 111 22.5t91 61.5t61.5 91t22.5 111v452q0 59 -22.5 111t-61.5 91t-91 61.5t-111 22.5zM736 222q0 -46 -17.5 -86.5t-47.5 -70.5t-70.5 -47.5
t-86.5 -17.5t-87 17.5t-72 47.5t-49 70.5t-18 86.5v452q0 46 18 86.5t49 70.5t72 47.5t87 17.5t86.5 -17.5t70.5 -47.5t47.5 -70.5t17.5 -86.5v-452zM512 768q-13 0 -22.5 -9.5t-9.5 -22.5v-160q0 -13 9.5 -22.5t22.5 -9.5q14 0 23 9.5t9 22.5v160q0 13 -9 22.5t-23 9.5z
" />
  </g>

</svg>
