<?xml version="1.0" standalone="no"?>
<!DOCTYPE svg PUBLIC "-//W3C//DTD SVG 1.1//EN" "http://www.w3.org/Graphics/SVG/1.1/DTD/svg11.dtd" >
<svg xmlns="http://www.w3.org/2000/svg" xmlns:xlink="http://www.w3.org/1999/xlink" version="1.1" viewBox="-10 0 1044 1024">
  <g transform="matrix(1 0 0 -1 0 960)">
   <path fill="currentColor"
d="M425 281q86 0 161 23.5t130 66.5t86 103.5t30 133.5q0 65 -32.5 122t-88.5 99t-131.5 66.5t-161.5 24.5q-87 0 -163 -24.5t-133 -66.5t-89.5 -99t-32.5 -122q0 -40 10 -81t30 -78t51 -68t72 -52v-1v-1q0 -35 -21.5 -76.5t-33.5 -61.5h1q-1 -2 -1.5 -4t-0.5 -5
q0 -10 6.5 -17t16.5 -7q2 0 4 0.5l2 0.5h1v0q31 5 66.5 22t67.5 38t55.5 40t30.5 27q14 -2 24.5 -2.5t21.5 -0.5h10.5h11.5v0zM331 350l-41 -34q-7 -9 -33.5 -30.5t-53.5 -37.5q17 46 19 63.5l2 17.5l3 39l-35 18q-66 34 -97 97t-31 125q0 52 27.5 97t76 78.5t113 53
t137.5 19.5t137 -19.5t111 -53t74.5 -78.5t27.5 -97q0 -57 -26 -105.5t-71.5 -84t-108 -55t-135.5 -19.5h-19t-42 3l-35 3v0zM1024 350q0 65 -27.5 115t-90.5 87q-2 -17 -6.5 -35t-9.5 -34q41 -29 55.5 -60t14.5 -73q0 -52 -25 -90.5t-82 -67.5l-31 -15l2 -44t6 -59
q-47 34 -65.5 59l-18.5 25l-34 -5q-10 -2 -29.5 -2h-19.5q-65 0 -115 15.5t-91 47.5q11 1 -39.5 1t-52.5 -2q24 -29 55 -52.5t69 -40t81.5 -25t92.5 -8.5h9.5h9.5q10 0 19 0.5t21 1.5q11 -14 65 -59t107 -54v0h1h2h3q9 0 15 6t6 15q0 2 -0.5 4t-1.5 4v0q-10 17 -22 58
t-12 72v0.5v1.5q71 36 105 89.5t34 123.5v0z" />
  </g>

</svg>
