<?xml version="1.0" standalone="no"?>
<!DOCTYPE svg PUBLIC "-//W3C//DTD SVG 1.1//EN" "http://www.w3.org/Graphics/SVG/1.1/DTD/svg11.dtd" >
<svg xmlns="http://www.w3.org/2000/svg" xmlns:xlink="http://www.w3.org/1999/xlink" version="1.1" viewBox="-10 0 1034 1024">
  <g transform="matrix(1 0 0 -1 0 960)">
   <path fill="currentColor"
d="M656 960q-60 0 -112.5 -22.5t-91.5 -62t-61.5 -92t-22.5 -111.5q0 -54 18 -102t51 -85q-7 0 -13.5 -2.5t-11.5 -7.5l-322 -324q-10 -9 -10 -22.5t10 -22.5v-0.5v-0.5h0.5h0.5l157 -160q9 -9 22 -9t23 9q9 9 9 22.5t-9 22.5l-136 138l83 83l136 -138q9 -9 22 -9t23 9
q9 9 9 22.5t-9 22.5l-136 139l172 173q5 5 7.5 11.5t2.5 12.5q38 -33 86 -52t103 -19q59 0 111.5 22.5t91.5 62t62 92t23 112.5q0 59 -23 111.5t-62 92t-91.5 62t-111.5 22.5v0zM656 448q-47 0 -87.5 17.5t-71 48t-48 71.5t-17.5 87t17.5 87t48 71.5t71 48t87.5 17.5
q46 0 86.5 -17.5t71 -48t48.5 -71.5t18 -87t-18 -87t-48.5 -71.5t-71 -48t-86.5 -17.5z" />
  </g>

</svg>
