<?xml version="1.0" standalone="no"?>
<!DOCTYPE svg PUBLIC "-//W3C//DTD SVG 1.1//EN" "http://www.w3.org/Graphics/SVG/1.1/DTD/svg11.dtd" >
<svg xmlns="http://www.w3.org/2000/svg" xmlns:xlink="http://www.w3.org/1999/xlink" version="1.1" viewBox="-10 0 1044 1024">
  <g transform="matrix(1 0 0 -1 0 960)">
   <path fill="currentColor"
d="M928 736h-147l-77 128h-384l-77 -128h-147q-24 0 -60 -24t-36 -71v-513q0 -40 29 -68t60 -28h841q31 0 62.5 28.5t31.5 66.5v513q0 24 -24 60t-72 36zM960 127q0 -9 -11.5 -19.5t-18.5 -11.5h-840q-6 0 -16 9.5t-10 22.5v513q0 15 14 23t18 8h183l77 128h314l57 -97
l18 -31h183q17 0 24.5 -15t7.5 -17v-513v0zM512 640q-46 0 -87 -17.5t-71.5 -48t-48 -71.5t-17.5 -87t17.5 -87t48 -71.5t71.5 -48t87 -17.5t87 17.5t71.5 48t48 71.5t17.5 87t-17.5 87t-48 71.5t-71.5 48t-87 17.5zM512 256q-66 0 -113 47t-47 113t47 113t113 47t113 -47
t47 -113t-47 -113t-113 -47z" />
  </g>

</svg>
