<?xml version="1.0" standalone="no"?>
<!DOCTYPE svg PUBLIC "-//W3C//DTD SVG 1.1//EN" "http://www.w3.org/Graphics/SVG/1.1/DTD/svg11.dtd" >
<svg xmlns="http://www.w3.org/2000/svg" xmlns:xlink="http://www.w3.org/1999/xlink" version="1.1" viewBox="-10 0 1034 1024">
  <g transform="matrix(1 0 0 -1 0 960)">
   <path fill="currentColor"
d="M389 64v13v14q0 1 0.5 3t1.5 3q6 43 38 73.5t74 32.5q47 4 83 -20.5t49 -68.5q2 -5 3.5 -11t2.5 -12v-14v-13q0 -2 -0.5 -3l-1.5 -3q-6 -39 -32.5 -67.5t-65.5 -36.5q-3 -1 -6 -1.5t-6 -1.5h-14h-13q-2 0 -3 0.5l-3 1.5q-39 6 -66.5 32t-36.5 64q-1 4 -2 7.5t-2 7.5z
M641 832v-13v-14q0 -1 -0.5 -3t-1.5 -3q-6 -43 -38 -73.5t-75 -32.5q-46 -3 -82.5 21.5t-49.5 68.5q-1 5 -2.5 11t-2.5 11v14v13q0 2 0.5 3l1.5 3q7 39 29.5 64.5t60.5 37.5q5 1 10 2.5t10 2.5h14h14q1 0 2.5 -1t2.5 -1q39 -6 67 -32t37 -65q0 -3 1 -6.5t2 -7.5v0zM641 462
v-14v-14q0 -1 -0.5 -2.5t-1.5 -3.5q-7 -43 -39.5 -73.5t-74.5 -32.5q-48 -2 -84.5 24t-47.5 70q-1 4 -2 9t-2 9v14v14q0 1 1 2.5t1 3.5q6 43 39 73.5t75 32.5q48 2 84.5 -24t47.5 -70q1 -4 2 -9t2 -9v0z" />
  </g>

</svg>
