<?xml version="1.0" standalone="no"?>
<!DOCTYPE svg PUBLIC "-//W3C//DTD SVG 1.1//EN" "http://www.w3.org/Graphics/SVG/1.1/DTD/svg11.dtd" >
<svg xmlns="http://www.w3.org/2000/svg" xmlns:xlink="http://www.w3.org/1999/xlink" version="1.1" viewBox="-10 0 1044 1024">
  <g transform="matrix(1 0 0 -1 0 960)">
   <path fill="currentColor"
d="M512 832q93 0 174.5 -25t142 -68.5t96 -102t35.5 -124.5t-35.5 -124.5t-96 -102t-142 -68.5t-174.5 -25h-27q-13 0 -23 0.5t-24 2.5l-35 5l-23 -28q-8 -9 -44 -36.5t-81 -48.5q10 24 16 49.5t6 51.5l1 2v45l-35 18q-43 21 -76 49.5t-56 61.5t-35 70.5t-12 77.5
q0 66 35.5 124.5t96 102t142 68.5t174.5 25zM512 896q-106 0 -199.5 -30t-163 -82.5t-109.5 -122t-40 -149.5q0 -50 14.5 -95.5t41.5 -86t67 -74.5t91 -60q0 -1 -0.5 -1.5t-0.5 -1.5q0 -43 -18.5 -85.5t-32.5 -67.5v0q-1 -2 -1.5 -5t-0.5 -6q0 -12 8.5 -20.5t20.5 -8.5h4.5
h3.5v0v0q38 7 75.5 24.5t69.5 38t55.5 40t31.5 29.5q17 -3 29.5 -3.5t26.5 -0.5h12.5h14.5q106 0 199.5 30t163 82.5t109.5 122t40 149.5t-40 149.5t-109.5 122t-163 82.5t-199.5 30v0v0z" />
  </g>

</svg>
