<?xml version="1.0" standalone="no"?>
<!DOCTYPE svg PUBLIC "-//W3C//DTD SVG 1.1//EN" "http://www.w3.org/Graphics/SVG/1.1/DTD/svg11.dtd" >
<svg xmlns="http://www.w3.org/2000/svg" xmlns:xlink="http://www.w3.org/1999/xlink" version="1.1" viewBox="-11 0 1046 1024">
  <g transform="matrix(1 0 0 -1 0 960)">
   <path fill="currentColor"
d="M1025 448q0 102 -37.5 192.5t-103 159t-153.5 111t-188 48.5q-4 0 -8.5 0.5t-8.5 0.5h-2.5h-2.5h-4.5h-4.5q-106 0 -199.5 -40.5t-163 -110t-110 -162.5t-40.5 -199t40.5 -199t110 -162.5t163 -110t199.5 -40.5h4.5h4.5h2.5h2.5q4 0 8.5 0.5t8.5 0.5q100 6 188 48.5
t153.5 111t103 159t37.5 192.5v0zM930 283q-14 4 -48 11.5t-92 14.5q4 33 7 68t3 71q0 29 -2 56.5t-5 54.5q74 9 108.5 18t37.5 10l-12 33q16 -39 25 -82.5t9 -89.5q0 -44 -8 -85.5t-23 -79.5v0zM285 448q0 27 2 53t5 51q39 -3 85.5 -5t101.5 -2v-222q-53 -1 -98.5 -3
t-84.5 -5q-5 32 -8 65t-3 68v0zM543 892q29 -9 56 -33t50 -60t40.5 -82.5t29.5 -100.5q-37 -3 -80.5 -5t-95.5 -3v284v0zM479 891v-283q-51 1 -95 3t-81 5q12 53 30 99.5t40.5 82t49.5 60t56 33.5v0zM479 259v-254q-27 9 -52 30.5t-47 53.5t-40 73.5t-30 89.5q36 3 78 4.5
t91 2.5zM543 4v255q49 -1 91.5 -2.5t77.5 -4.5q-12 -49 -29.5 -91t-39.5 -74t-47.5 -53.5t-52.5 -29.5v0zM543 323v222q55 0 101.5 2t84.5 6q3 -26 5 -52t2 -53q0 -35 -3 -68t-8 -65q-38 3 -83.5 5t-98.5 3zM915 646q-7 -2 -39 -9.5t-92 -14.5q-14 72 -38 132.5t-55 104.5
q73 -32 131 -87t93 -126zM359 869q-39 -45 -70 -108t-48 -140q-55 6 -88 12t-46 10q19 39 45.5 73.5t58.5 63.5t69 51.5t79 37.5v0zM84 583q9 -3 44.5 -10.5t100.5 -14.5q-4 -26 -5.5 -54t-1.5 -56q0 -36 3 -71t9 -68q-56 -6 -91 -12.5t-50 -9.5q-15 37 -22.5 77.5
t-7.5 83.5q0 35 5.5 69t15.5 66zM121 228q18 3 49 8.5t78 10.5q18 -68 46.5 -124t64.5 -96q-38 13 -72.5 33.5t-64.5 46t-55.5 56t-45.5 65.5v0zM691 37q28 40 50.5 93t36.5 116q48 -6 78 -11.5t45 -9.5q-36 -63 -90 -111t-120 -77v0z" />
  </g>

</svg>
