<?xml version="1.0" standalone="no"?>
<!DOCTYPE svg PUBLIC "-//W3C//DTD SVG 1.1//EN" "http://www.w3.org/Graphics/SVG/1.1/DTD/svg11.dtd" >
<svg xmlns="http://www.w3.org/2000/svg" xmlns:xlink="http://www.w3.org/1999/xlink" version="1.1" viewBox="-10 0 1044 1024">
  <g transform="matrix(1 0 0 -1 0 960)">
   <path fill="currentColor"
d="M64 65q0 19 10.5 27t16.5 10l281 133q15 7 25 20.5t12 29.5q2 17 -4.5 32.5t-19.5 25.5q-50 40 -73.5 113t-23.5 120v160q0 25 19.5 53t51.5 52t72 39.5t81 15.5t81 -15.5t71.5 -39t51.5 -51.5t20 -54v-160q0 -46 -21.5 -119.5t-73.5 -113.5q-13 -11 -19 -26t-5 -32
q2 -17 12 -30.5t25 -20.5l96 -45l16 64l-85 39q33 27 56 63.5t37 76t20 77.5t6 67v160q0 40 -25.5 80t-66 72t-92 52t-104.5 20t-104.5 -20t-92.5 -52t-66 -72t-25 -80v-160q0 -26 6 -63.5t20.5 -77.5t37.5 -77.5t57 -64.5l-281 -133l-32 -18.5t-32 -45.5v-96q0 -26 19 -45
t45 -19h704v64h-704v65v0zM992 128h-96v96q0 13 -9.5 22.5t-22.5 9.5t-22.5 -9.5t-9.5 -22.5v-96h-96q-13 0 -22.5 -9.5t-9.5 -22.5t9.5 -22.5t22.5 -9.5h96v-96q0 -13 9.5 -22.5t22.5 -9.5t22.5 9.5t9.5 22.5v96h96q13 0 22.5 9.5t9.5 22.5t-9.5 22.5t-22.5 9.5z" />
  </g>

</svg>
