<?xml version="1.0" standalone="no"?>
<!DOCTYPE svg PUBLIC "-//W3C//DTD SVG 1.1//EN" "http://www.w3.org/Graphics/SVG/1.1/DTD/svg11.dtd" >
<svg xmlns="http://www.w3.org/2000/svg" xmlns:xlink="http://www.w3.org/1999/xlink" version="1.1" viewBox="-10 0 1044 1024">
  <g transform="matrix(1 0 0 -1 0 960)">
   <path fill="currentColor"
d="M1006 744q-8 4 -16.5 2.5t-15.5 -7.5l-162 -145l-145 150l144 166q6 7 7.5 16t-2.5 17t-11.5 12.5t-16.5 4.5h-8q-34 0 -77 -2t-86.5 -10t-83 -23.5t-65.5 -41.5l-14 -14q-27 -28 -43.5 -63.5t-22 -74.5t-1 -78t19.5 -74l-370 -377q-37 -38 -37 -91.5t37 -91.5l45 -46
q19 -19 42.5 -28t47.5 -9q25 0 48.5 9t42.5 28l374 378q27 -14 61 -23t64 -9q49 0 94 19.5t81 55.5l13 14q28 28 43 69.5t22 86t8 85t1 67.5q0 9 -5 16.5t-13 11.5v0zM906 451l-12 -14q-27 -27 -61 -40.5t-71 -13.5q-18 0 -40 3.5t-39 10.5q-15 6 -29 15t-26 21l-410 -414
q-9 -9 -21 -14t-25 -5q-12 0 -24 5t-21 14l-45 46q-18 19 -18 45.5t18 45.5l401 409q-10 15 -17 30.5t-11 32.5v0q-12 47 -3 104t45 94l14 14q31 32 97.5 44t111.5 14l-117 -135q-8 -9 -7.5 -21t8.5 -21l185 -190q9 -9 21 -9.5t21 7.5l131 118q-3 -48 -15 -107t-41 -89v0z
" />
  </g>

</svg>
