<?xml version="1.0" standalone="no"?>
<!DOCTYPE svg PUBLIC "-//W3C//DTD SVG 1.1//EN" "http://www.w3.org/Graphics/SVG/1.1/DTD/svg11.dtd" >
<svg xmlns="http://www.w3.org/2000/svg" xmlns:xlink="http://www.w3.org/1999/xlink" version="1.1" viewBox="-10 0 1044 1024">
  <g transform="matrix(1 0 0 -1 0 960)">
   <path fill="currentColor"
d="M512 960q-52 0 -102 -10.5t-95 -29.5q-2 0 -3.5 -1t-2.5 -2q-68 -29 -125 -76.5t-97.5 -108.5t-63.5 -133t-23 -151q0 -106 40.5 -199t110 -162.5t162.5 -110t199 -40.5t199 40.5t162.5 110t110 162.5t40.5 199t-40.5 199t-110 162.5t-162.5 110t-199 40.5v0zM960 448
v-5.5t-1 -5.5q-18 5 -50 11t-74 8.5t-93.5 0t-108.5 -15.5q-10 23 -21.5 47t-24.5 48l-2 4l-2 4q62 24 106.5 51t75.5 54t50.5 52t30.5 45q26 -30 47.5 -64t36 -72t22.5 -78.5t8 -83.5v0zM798 793q-12 -27 -62.5 -85t-182.5 -107q-30 54 -56 97.5t-48 77t-40 58.5t-31 41
q32 10 65.5 15.5t68.5 5.5q81 0 154 -27.5t132 -75.5zM316 850q20 -24 66 -89.5t109 -180.5q-75 -23 -142 -34t-121.5 -14.5t-94.5 -2.5t-61 3q10 53 32 100.5t53.5 88.5t71.5 74t87 55v0zM64 448q0 5 0.5 10t0.5 11q14 -2 36.5 -3.5t51.5 -1.5q33 0 73.5 2.5t87 9t99 18
t109.5 29.5l4 -8t5 -9q10 -20 20 -41t19 -41q-20 -6 -41 -14t-43 -18q-68 -31 -119 -67t-87 -70.5t-58.5 -65t-33.5 -49.5q-29 30 -52 65t-39 74t-24.5 81.5t-8.5 87.5v0zM236 96q6 11 24 38t51 61t82.5 70.5t119.5 68.5q21 10 41.5 17.5t40.5 13.5q23 -58 38.5 -110t26 -95
t16 -75t7.5 -51q-39 -16 -82.5 -25t-88.5 -9q-78 0 -148.5 25.5t-127.5 70.5v0zM744 65q-4 23 -10 56t-16.5 73t-25 87.5t-34.5 99.5q55 11 104 12t88 -2.5t65.5 -9t37.5 -8.5q-8 -49 -26.5 -94t-45.5 -84.5t-62 -72t-75 -57.5z" />
  </g>

</svg>
