<?xml version="1.0" standalone="no"?>
<!DOCTYPE svg PUBLIC "-//W3C//DTD SVG 1.1//EN" "http://www.w3.org/Graphics/SVG/1.1/DTD/svg11.dtd" >
<svg xmlns="http://www.w3.org/2000/svg" xmlns:xlink="http://www.w3.org/1999/xlink" version="1.1" viewBox="-10 0 1034 1024">
  <g transform="matrix(1 0 0 -1 0 960)">
   <path fill="currentColor"
d="M800 576h-32v122q0 55 -19 103t-53 83t-81.5 55.5t-103.5 20.5q-57 0 -104 -20.5t-80.5 -56t-52 -83.5t-18.5 -102v-122h-32q-53 0 -90.5 -37.5t-37.5 -90.5v-384q0 -53 37.5 -90.5t90.5 -37.5h576q53 0 90.5 37.5t37.5 90.5v384q0 53 -37.5 90.5t-90.5 37.5zM320 698
q0 82 52 140t139 58q86 0 139.5 -57.5t53.5 -140.5v-122h-384v122zM864 64q0 -26 -19 -45t-45 -19h-576q-26 0 -45 19t-19 45v384q0 26 19 45t45 19h576q26 0 45 -19t19 -45v-384zM512 384q-27 0 -45.5 -18.5t-18.5 -45.5q0 -18 9 -32.5t23 -22.5v-105q0 -13 9.5 -22.5
t22.5 -9.5t22.5 9.5t9.5 22.5v105q14 8 23 22.5t9 32.5q0 27 -18.5 45.5t-45.5 18.5z" />
  </g>

</svg>
