<?xml version="1.0" standalone="no"?>
<!DOCTYPE svg PUBLIC "-//W3C//DTD SVG 1.1//EN" "http://www.w3.org/Graphics/SVG/1.1/DTD/svg11.dtd" >
<svg xmlns="http://www.w3.org/2000/svg" xmlns:xlink="http://www.w3.org/1999/xlink" version="1.1" viewBox="-10 0 1044 1024">
  <g transform="matrix(1 0 0 -1 0 960)">
   <path fill="currentColor"
d="M960 960h-896q-26 0 -45 -19t-19 -45v-896q0 -26 19 -45t45 -19h896q26 0 45 19t19 45v896q0 26 -19 45t-45 19zM960 0h-896v896h896v-896zM224 608h64v-64q0 -14 9.5 -23t22.5 -9t22.5 9t9.5 23v64h64q13 0 22.5 9t9.5 23q0 13 -9.5 22.5t-22.5 9.5h-64v64
q0 13 -9.5 22.5t-22.5 9.5t-22.5 -9.5t-9.5 -22.5v-64h-64q-13 0 -22.5 -9.5t-9.5 -22.5q0 -14 9.5 -23t22.5 -9zM433 369q-9 9 -22.5 9t-22.5 -9l-68 -68l-68 68q-9 9 -22.5 9t-22.5 -9q-10 -10 -10 -23t10 -22l68 -68l-68 -68q-10 -10 -10 -23t10 -22q9 -10 22.5 -10
t22.5 10l68 67l68 -67q9 -10 22.5 -10t22.5 10q10 9 10 22t-10 23l-68 68l68 68q10 9 10 22t-10 23zM608 608h192q13 0 22.5 9t9.5 23q0 13 -9.5 22.5t-22.5 9.5h-192q-13 0 -22.5 -9.5t-9.5 -22.5q0 -14 9.5 -23t22.5 -9zM608 288h192q13 0 22.5 9t9.5 23q0 13 -9.5 22.5
t-22.5 9.5h-192q-13 0 -22.5 -9.5t-9.5 -22.5q0 -14 9.5 -23t22.5 -9zM608 160h192q13 0 22.5 9t9.5 23q0 13 -9.5 22.5t-22.5 9.5h-192q-13 0 -22.5 -9.5t-9.5 -22.5q0 -14 9.5 -23t22.5 -9z" />
  </g>

</svg>
