<?xml version="1.0" standalone="no"?>
<!DOCTYPE svg PUBLIC "-//W3C//DTD SVG 1.1//EN" "http://www.w3.org/Graphics/SVG/1.1/DTD/svg11.dtd" >
<svg xmlns="http://www.w3.org/2000/svg" xmlns:xlink="http://www.w3.org/1999/xlink" version="1.1" viewBox="-10 0 1044 1024">
  <g transform="matrix(1 0 0 -1 0 960)">
   <path fill="currentColor"
d="M296 228q4 -5 10 -7.5t12 -2.5t12 2.5t11 7.5l388 390q9 10 9 23t-9 22q-10 10 -23 10t-23 -10l-387 -390q-10 -10 -10 -23t10 -22v0zM476 296q8 -35 -1 -68.5t-36 -60.5l-129 -125q-21 -20 -47 -31t-55 -11t-55 11t-47 31q-42 42 -42 102t42 101l126 131q20 20 46.5 31
t55.5 11q10 0 19.5 -1.5t18.5 -4.5l50 50q-21 10 -43 15t-45 5q-40 0 -78.5 -15.5t-68.5 -45.5l-126 -130q-31 -31 -46 -69t-15 -78t15 -78.5t46 -68.5q30 -31 68.5 -46t78.5 -15t78.5 15t68.5 46l129 125q47 46 57 106.5t-14 117.5l-51 -50v0zM963 899q-30 31 -68.5 46
t-78.5 15t-78.5 -15t-68.5 -46l-129 -125q-48 -48 -58 -114t18 -124l50 50q-11 37 -2.5 75.5t37.5 67.5l129 125q21 20 47 31t55 11t55 -11t47 -31q42 -42 42 -102t-42 -101l-129 -130q-20 -20 -46.5 -31t-55.5 -11h-14t-14 1l-51 -51q19 -8 39 -11t40 -3q40 0 78.5 15.5
t68.5 45.5l129 129q31 31 46 69t15 78t-15 78.5t-46 68.5v0z" />
  </g>

</svg>
