<?xml version="1.0" standalone="no"?>
<!DOCTYPE svg PUBLIC "-//W3C//DTD SVG 1.1//EN" "http://www.w3.org/Graphics/SVG/1.1/DTD/svg11.dtd" >
<svg xmlns="http://www.w3.org/2000/svg" xmlns:xlink="http://www.w3.org/1999/xlink" version="1.1" viewBox="-13 0 1047 1024">
  <g transform="matrix(1 0 0 -1 0 960)">
   <path fill="currentColor"
d="M1015 -9l-311 313q43 52 68 117.5t25 138.5q0 83 -31.5 156t-86 127t-127.5 85.5t-155 31.5q-83 0 -156 -31.5t-127.5 -85.5t-85.5 -127t-31 -156t31 -156t85.5 -127t127.5 -85.5t156 -31.5q75 0 142 26t120 72l310 -312q10 -10 23 -10t23 10q9 9 9 22.5t-9 22.5z
M397 223q-70 0 -131.5 26.5t-107 72.5t-72 107t-26.5 131t26.5 131t72 107t107 72.5t131.5 26.5q69 0 130.5 -26.5t107 -72.5t72 -107t26.5 -131t-26.5 -131t-72 -107t-107 -72.5t-130.5 -26.5z" />
  </g>

</svg>
