<?xml version="1.0" standalone="no"?>
<!DOCTYPE svg PUBLIC "-//W3C//DTD SVG 1.1//EN" "http://www.w3.org/Graphics/SVG/1.1/DTD/svg11.dtd" >
<svg xmlns="http://www.w3.org/2000/svg" xmlns:xlink="http://www.w3.org/1999/xlink" version="1.1" viewBox="-10 0 1044 1024">
  <g transform="matrix(1 0 0 -1 0 960)">
   <path fill="currentColor"
d="M944 736q-33 0 -56.5 -23.5t-23.5 -56.5q0 -7 1.5 -13.5t3.5 -12.5l-195 -168q-11 8 -23.5 13t-26.5 5q-16 0 -30.5 -6t-25.5 -17l-153 77q-2 31 -24.5 52.5t-54.5 21.5q-33 0 -56.5 -23.5t-23.5 -56.5q0 -9 2 -17.5t6 -16.5l-156 -179q-7 2 -14 3.5t-14 1.5 q-33 0 -56.5 -23.5t-23.5 -56.5t23.5 -56.5t56.5 -23.5t56.5 23.5t23.5 56.5q0 8 -1.5 15.5t-4.5 14.5l158 182q6 -2 12 -3t12 -1q17 0 32.5 7t26.5 19l149 -75q0 -33 23.5 -56t56.5 -23t56.5 23.5t23.5 56.5v2v2l208 179q7 -3 15 -5t17 -2q33 0 56.5 23.5t23.5 56.5 t-23.5 56.5t-56.5 23.5v0z" />
  </g>

</svg>
