<?xml version="1.0" standalone="no"?>
<!DOCTYPE svg PUBLIC "-//W3C//DTD SVG 1.1//EN" "http://www.w3.org/Graphics/SVG/1.1/DTD/svg11.dtd" >
<svg xmlns="http://www.w3.org/2000/svg" xmlns:xlink="http://www.w3.org/1999/xlink" version="1.1" viewBox="-10 0 1045 1024">
  <g transform="matrix(1 0 0 -1 0 960)">
   <path fill="currentColor"
d="M990 18h-0.5h-0.5q-12 0 -19.5 8.5t-8.5 20.5q0 4 -12.5 51.5t-61 102.5t-144.5 100t-264 45v-184q0 -9 -5 -17t-13 -12q-9 -4 -18 -3t-16 7l-415 344q-6 5 -9 11.5t-3 13.5t3 13.5t9 11.5l415 340q7 6 16 7t18 -3q8 -4 13 -11.5t5 -17.5v-179q70 -2 131.5 -14.5
t115 -34.5t98 -53.5t79.5 -72.5q57 -67 82.5 -143.5t33.5 -142.5t4.5 -111.5t-3.5 -49.5q-2 -12 -10 -19.5t-20 -7.5v0zM447 410v0v0q120 0 205.5 -18.5t145 -47.5t97.5 -65.5t64 -72.5q-7 58 -31.5 123t-73.5 121q-32 38 -74 66.5t-93.5 48t-111.5 29t-128 9.5
q-13 0 -22.5 9.5t-9.5 22.5v144l-333 -273l333 -276v148q0 7 2.5 12.5t6.5 10.5q5 4 11 6.5t12 2.5v0z" />
  </g>

</svg>
