<?xml version="1.0" standalone="no"?>
<!DOCTYPE svg PUBLIC "-//W3C//DTD SVG 1.1//EN" "http://www.w3.org/Graphics/SVG/1.1/DTD/svg11.dtd" >
<svg xmlns="http://www.w3.org/2000/svg" xmlns:xlink="http://www.w3.org/1999/xlink" version="1.1" viewBox="-10 0 1034 1024">
  <g transform="matrix(1 0 0 -1 0 960)">
   <path fill="currentColor"
d="M906 248q-28 34 -58.5 80t-30.5 95v209q0 68 -23.5 127.5t-65 104t-97.5 70t-121 25.5q-64 0 -120 -25.5t-97 -70t-64.5 -104t-23.5 -127.5v-209q0 -48 -32 -92.5t-59 -79.5q-24 -32 -38 -58.5t-2 -51.5q11 -22 35.5 -27.5t47.5 -5.5h183q0 -71 50 -121t121 -50t121 50
t50 121h187q15 0 42 4t39 29t-3 50t-41 57v0zM511 4q-43 0 -73.5 30.5t-30.5 73.5h208q0 -43 -30.5 -73.5t-73.5 -30.5v0zM869 176h-712h-7h-5q5 8 11.5 17t12.5 17q29 39 66.5 93.5t37.5 119.5v209q0 54 18 101t50 82t75.5 55.5t93.5 20.5q51 0 94.5 -20.5t75.5 -55.5
t50.5 -82t18.5 -101v-209q0 -67 35.5 -122.5t68.5 -95.5q6 -7 12 -14.5t11 -14.5h-3h-4v0z" />
  </g>

</svg>
