<?xml version="1.0" standalone="no"?>
<!DOCTYPE svg PUBLIC "-//W3C//DTD SVG 1.1//EN" "http://www.w3.org/Graphics/SVG/1.1/DTD/svg11.dtd" >
<svg xmlns="http://www.w3.org/2000/svg" xmlns:xlink="http://www.w3.org/1999/xlink" version="1.1" viewBox="-10 0 1034 1024">
  <g transform="matrix(1 0 0 -1 0 960)">
   <path fill="currentColor"
d="M800 575h-457l-17 74q-21 79 14 148.5t120 92.5q83 22 149.5 -19.5t87.5 -121.5l14 -54q3 -13 14.5 -19.5t24.5 -3.5t19.5 14.5t3.5 24.5l-14 54q-14 53 -44.5 94.5t-73 66.5t-93 32.5t-105.5 -6.5q-55 -15 -95 -47t-63 -75t-28.5 -94t8.5 -103l13 -58h-54
q-53 0 -90.5 -37.5t-37.5 -90.5v-384q0 -53 37.5 -90.5t90.5 -37.5h576q53 0 90.5 37.5t37.5 90.5v384q0 53 -37.5 90.5t-90.5 37.5v0zM864 63q0 -27 -19 -45.5t-45 -18.5h-576q-26 0 -45 18.5t-19 45.5v384q0 26 19 45t45 19h576q26 0 45 -19t19 -45v-384zM512 383
q-27 0 -45.5 -19t-18.5 -45q0 -18 9 -32.5t23 -22.5v-105q0 -13 9.5 -22.5t22.5 -9.5t22.5 9.5t9.5 22.5v105q14 8 23 22.5t9 32.5q0 26 -18.5 45t-45.5 19z" />
  </g>

</svg>
