<?xml version="1.0" standalone="no"?>
<!DOCTYPE svg PUBLIC "-//W3C//DTD SVG 1.1//EN" "http://www.w3.org/Graphics/SVG/1.1/DTD/svg11.dtd" >
<svg xmlns="http://www.w3.org/2000/svg" xmlns:xlink="http://www.w3.org/1999/xlink" version="1.1" viewBox="-10 0 1044 1024">
  <g transform="matrix(1 0 0 -1 0 960)">
   <path fill="currentColor"
d="M864 256q-40 0 -73.5 -17.5t-54.5 -47.5l-422 215q3 10 4.5 20.5t1.5 21.5q0 14 -2.5 27t-6.5 25l424 206q22 -30 55.5 -48t73.5 -18q66 0 113 47t47 113t-47 113t-113 47t-113 -47t-47 -113q0 -9 1 -18t3 -18l-430 -209q-22 25 -52.5 39t-65.5 14q-66 0 -113 -47
t-47 -113t47 -113t113 -47q38 0 70.5 16.5t54.5 44.5l424 -216q-3 -9 -4 -18t-1 -19q0 -66 47 -113t113 -47t113 47t47 113t-47 113t-113 47v0zM864 896q40 0 68 -28t28 -68t-28 -68t-68 -28t-68 28t-28 68t28 68t68 28zM160 352q-40 0 -68 28t-28 68t28 68t68 28t68 -28
t28 -68t-28 -68t-68 -28zM864 0q-40 0 -68 28t-28 68t28 68t68 28t68 -28t28 -68t-28 -68t-68 -28z" />
  </g>

</svg>
