<?xml version="1.0" standalone="no"?>
<!DOCTYPE svg PUBLIC "-//W3C//DTD SVG 1.1//EN" "http://www.w3.org/Graphics/SVG/1.1/DTD/svg11.dtd" >
<svg xmlns="http://www.w3.org/2000/svg" xmlns:xlink="http://www.w3.org/1999/xlink" version="1.1" viewBox="-10 0 1043 1024">
  <g transform="matrix(1 0 0 -1 0 960)">
   <path fill="currentColor"
d="M1023 937q0 5 -1 9.5t-4 7.5t-7.5 4.5t-9.5 1.5h-11h-1v0l-294 1q-9 0 -16 -7t-7 -17v-16q1 -12 9 -18t17 -6l216 -1l-257 -254q-52 43 -117.5 68t-138.5 25q-83 0 -156 -31.5t-127 -85.5t-85.5 -127t-31.5 -156t31.5 -155.5t85.5 -127t127 -86t156 -31.5t155.5 31.5
t127 86t86 127t31.5 155.5q0 75 -26 142t-72 120l257 255l-1 -219q0 -10 6.5 -17t16.5 -7h16q10 0 17 5.5t7 15.5l1 295h-0.5t-0.5 1l1 11v0zM737 335q0 -70 -26.5 -131t-72 -107t-107 -72t-130.5 -26q-70 0 -131.5 26t-107 72t-72 107t-26.5 131t26.5 131t72 107t107 72.5
t131.5 26.5q69 0 130.5 -26.5t107 -72.5t72 -107t26.5 -131z" />
  </g>

</svg>
