<?xml version="1.0" standalone="no"?>
<!DOCTYPE svg PUBLIC "-//W3C//DTD SVG 1.1//EN" "http://www.w3.org/Graphics/SVG/1.1/DTD/svg11.dtd" >
<svg xmlns="http://www.w3.org/2000/svg" xmlns:xlink="http://www.w3.org/1999/xlink" version="1.1" viewBox="-10 0 1044 1024">
  <g transform="matrix(1 0 0 -1 0 960)">
   <path fill="currentColor"
d="M833 544h-25t-40 1v64q0 26 -18.5 45t-45.5 19h-640q-27 0 -45.5 -19t-18.5 -45v-481q0 -80 56 -136t136 -56h385q79 0 135 56t56 136v33q21 -1 40.5 -1h24.5q79 0 135 56t56 135q0 80 -56 136.5t-135 56.5v0zM704 128q0 -53 -37.5 -90.5t-89.5 -37.5h-385
q-53 0 -90.5 37.5t-37.5 90.5v481h640v-481zM833 223q-5 0 -24.5 0.5t-40.5 0.5v256h40h25q54 0 91 -36.5t37 -91.5t-37 -92t-91 -37v0zM576 736q13 0 22.5 9.5t9.5 22.5v160q0 13 -9.5 22.5t-22.5 9.5t-22.5 -9.5t-9.5 -22.5v-160q0 -13 9.5 -22.5t22.5 -9.5zM192 736
q13 0 22.5 9.5t9.5 22.5v160q0 13 -9.5 22.5t-22.5 9.5t-22.5 -9.5t-9.5 -22.5v-160q0 -13 9.5 -22.5t22.5 -9.5zM384 736q13 0 22.5 9.5t9.5 22.5v160q0 13 -9.5 22.5t-22.5 9.5t-22.5 -9.5t-9.5 -22.5v-160q0 -13 9.5 -22.5t22.5 -9.5z" />
  </g>

</svg>
