<?xml version="1.0" standalone="no"?>
<!DOCTYPE svg PUBLIC "-//W3C//DTD SVG 1.1//EN" "http://www.w3.org/Graphics/SVG/1.1/DTD/svg11.dtd" >
<svg xmlns="http://www.w3.org/2000/svg" xmlns:xlink="http://www.w3.org/1999/xlink" version="1.1" viewBox="-11 0 1047 1024">
  <g transform="matrix(1 0 0 -1 0 960)">
   <path fill="currentColor"
d="M609 -64q-219 0 -261 9.5t-69 29.5q-14 11 -51 19t-135 14q-8 1 -14.5 3.5t-10.5 8.5q-2 3 -35.5 70.5t-33.5 182.5q0 114 24 167.5t25 56.5q5 7 12 11t16 4q40 0 87 25t94.5 73.5t93 119t83.5 161.5q13 31 25 50t60 19q28 0 55.5 -17.5t42.5 -42.5t20 -63t3 -79.5
t-8.5 -81.5t-13.5 -69q49 0 124 0.5t118 0.5q59 0 95.5 -32t37.5 -84q0 -17 -2 -36t-7 -31q13 -13 26.5 -32.5t14.5 -44.5q1 -33 -15.5 -57t-30.5 -39q3 -9 8 -21.5t4 -27.5q-2 -37 -24 -61t-40 -37q2 -10 2.5 -27t-3.5 -32q-6 -29 -30.5 -50t-65 -34t-96.5 -19.5t-125 -6.5
v0zM110 73q86 -7 135 -17.5t73 -28.5q19 -15 53.5 -21t237.5 -6q30 0 72 1.5t81 7.5t68 18t34 33q3 17 -8 31l-11 14q-5 12 -0.5 24.5t16.5 17.5q1 0 33 16t33 42q1 18 -7 27.5t-8 10.5q-7 10 -4.5 23t12.5 21l20.5 17t20.5 42q-1 21 -19 34t-19 13q-6 4 -10 9.5t-6 12.5
q-1 6 0.5 13t5.5 13l8 15.5t8 34.5q-1 39 -30.5 46t-38.5 7h-79h-95.5t-80 -0.5l-33.5 -0.5q-9 0 -16 4t-11 11q-5 6 -5.5 14t2.5 16q12 34 20.5 75t12 80.5t1 72.5t-13.5 51q-7 11 -13 20t-30 9q-3 0 -10 -5t-16 -25q-40 -96 -88.5 -171.5t-101 -128t-105.5 -82.5t-102 -35
q-9 -19 -21 -61t-12 -115q0 -74 17.5 -127.5t29.5 -72.5v0z" />
  </g>

</svg>
