<?xml version="1.0" standalone="no"?>
<!DOCTYPE svg PUBLIC "-//W3C//DTD SVG 1.1//EN" "http://www.w3.org/Graphics/SVG/1.1/DTD/svg11.dtd" >
<svg xmlns="http://www.w3.org/2000/svg" xmlns:xlink="http://www.w3.org/1999/xlink" version="1.1" viewBox="-11 0 1047 1024">
  <g transform="matrix(1 0 0 -1 0 960)">
   <path fill="currentColor"
d="M964 910q-26 25 -54.5 38t-59.5 13q-48 0 -81 -22.5t-43 -32.5q-7 -6 -106.5 -106t-216.5 -217l-213.5 -213.5l-96.5 -96.5q-3 -3 -5 -6.5t-4 -7.5q-5 -20 -18.5 -65.5t-28 -93.5t-25.5 -84.5t-12 -37.5q-2 -9 0 -18t9 -15q4 -5 10 -7.5t12 -2.5q3 0 5.5 0.5t4.5 1.5
q1 0 39 12.5t85.5 27.5t92.5 29.5t59 18.5q4 1 7.5 3t6.5 5q9 9 104 103t208.5 206.5t211.5 209.5t112 112q29 30 44 61.5t14 64.5q-1 31 -16 61.5t-45 58.5v0zM716 804q12 -3 38 -15t56 -41q30 -30 40.5 -59.5t11.5 -37.5q-47 -46 -119.5 -118t-149.5 -148.5t-147.5 -146
t-112.5 -111.5q-8 18 -21.5 39.5t-33.5 42.5q-25 25 -49.5 40t-44.5 23l113 113t148.5 149t150.5 151t120 119v0zM140 218q14 -3 39 -15.5t53 -40.5q21 -21 32 -43t16 -37q-33 -11 -95 -32t-109 -36q14 45 33.5 106t30.5 98v0zM920 710q-1 -1 -2.5 -3t-3.5 -4q-7 20 -21 44
t-37 47q-24 24 -47 38.5t-42 22.5l3 3l2 2q2 3 24.5 19t53.5 16q18 0 35.5 -8t33.5 -24q20 -19 30.5 -38t10.5 -37t-10 -38t-30 -40v0z" />
  </g>

</svg>
