<?xml version="1.0" standalone="no"?>
<!DOCTYPE svg PUBLIC "-//W3C//DTD SVG 1.1//EN" "http://www.w3.org/Graphics/SVG/1.1/DTD/svg11.dtd" >
<svg xmlns="http://www.w3.org/2000/svg" xmlns:xlink="http://www.w3.org/1999/xlink" version="1.1" viewBox="-10 0 1042 1024">
  <g transform="matrix(1 0 0 -1 0 960)">
   <path fill="currentColor"
d="M450 762l505 -314l-505 -314v247l-384 -247v628l384 -247v256v-9zM453 826q-8 0 -16.5 -2t-16.5 -6q-15 -8 -24.5 -23t-9.5 -33v-132l-298 186q-8 5 -16 7.5t-17 2.5q-8 0 -13 -2t-13 -6q-15 -8 -21 -23t-6 -33v-628q0 -18 6 -33t22 -23q7 -4 13.5 -6t14.5 -2q9 0 16 2.5
t15 7.5l297 186v-132q0 -18 9.5 -33t24.5 -23q8 -4 16 -6t16 -2q9 0 17.5 2.5t16.5 7.5l506 314q14 8 22 22.5t8 31.5t-8 31.5t-22 22.5l-506 314q-7 5 -15.5 7.5t-17.5 2.5v0v0z" />
  </g>

</svg>
