<?xml version="1.0" standalone="no"?>
<!DOCTYPE svg PUBLIC "-//W3C//DTD SVG 1.1//EN" "http://www.w3.org/Graphics/SVG/1.1/DTD/svg11.dtd" >
<svg xmlns="http://www.w3.org/2000/svg" xmlns:xlink="http://www.w3.org/1999/xlink" version="1.1" viewBox="-10 0 1034 1024">
  <g transform="matrix(1 0 0 -1 0 960)">
   <path fill="currentColor"
d="M27 766q-6 7 -9 14.5t-3 17.5q0 9 3 17t9 14t14 9t17 3h913q9 0 17 -3t14 -9t9 -14t3 -17q0 -10 -3 -17.5t-9 -14.5q-6 -6 -14 -9t-17 -3h-913q-9 0 -17 3t-14 9v0zM1002 481q6 -6 9 -14t3 -17t-3 -17t-9 -14t-14 -9t-17 -3h-913q-9 0 -17 3t-14 9t-9 14t-3 17t3 17t9 14
t14 9t17 3h913q9 0 17 -3t14 -9v0zM1002 134q6 -6 9 -14t3 -17q0 -10 -3 -17.5t-9 -14.5q-6 -6 -14 -9t-17 -3h-913q-9 0 -17 3t-14 9q-6 7 -9 14.5t-3 17.5q0 9 3 17t9 14t14 9t17 3h913q9 0 17 -3t14 -9z" />
  </g>

</svg>
