<?xml version="1.0" standalone="no"?>
<!DOCTYPE svg PUBLIC "-//W3C//DTD SVG 1.1//EN" "http://www.w3.org/Graphics/SVG/1.1/DTD/svg11.dtd" >
<svg xmlns="http://www.w3.org/2000/svg" xmlns:xlink="http://www.w3.org/1999/xlink" version="1.1" viewBox="-10 0 1043 1024">
  <g transform="matrix(1 0 0 -1 0 960)">
   <path fill="currentColor"
d="M512 924q-106 0 -199 -40.5t-162.5 -110t-109.5 -162.5t-40 -199q0 -66 16 -128.5t47 -118.5t75.5 -103.5t101.5 -82.5q11 -7 24 -4t20 14t4 24t-14 20q-41 26 -74.5 58.5t-59.5 70.5l34 20q11 6 14.5 19t-3.5 24q-6 12 -19 15.5t-24 -3.5l-34 -19q-18 37 -29 78.5
t-14 84.5h35q14 0 23 9.5t9 22.5t-9 22.5t-23 9.5h-35q3 44 14.5 85.5t30.5 79.5l32 -19q3 -2 7.5 -3t8.5 -1q8 0 15.5 4t11.5 12q7 11 3.5 24t-14.5 19l-32 19q24 35 54 65t66 54l18 -31q4 -8 11.5 -12t16.5 -4q4 0 8 1t8 3q11 7 14.5 19.5t-3.5 24.5l-18 31
q37 18 77.5 28.5t83.5 14.5v-40q0 -14 9.5 -23t22.5 -9q14 0 23 9t9 23v40q44 -3 85.5 -14.5t79.5 -29.5l-18 -30q-6 -12 -2.5 -24.5t14.5 -19.5q4 -2 8 -3t8 -1q8 0 15.5 4t12.5 12l17 30q35 -24 65 -54t54 -65l-30 -18q-12 -6 -15 -19t3 -24q5 -8 12.5 -12t15.5 -4
q4 0 8 1t8 3l30 17q18 -37 29.5 -78.5t14.5 -85.5h-35q-13 0 -22.5 -9.5t-9.5 -22.5t9.5 -22.5t22.5 -9.5h35q-3 -43 -13.5 -83.5t-28.5 -77.5l-32 18q-12 7 -24.5 3.5t-19.5 -15.5q-6 -11 -3 -24t15 -19l32 -19q-27 -39 -61.5 -72.5t-76.5 -59.5q-11 -7 -14 -19.5t4 -24.5
q4 -7 11.5 -11t15.5 -4q4 0 8.5 1t8.5 4q57 35 102 82.5t76.5 103.5t48 119t16.5 131q0 105 -40 198t-109.5 162.5t-162.5 110t-199 40.5v0zM748 512q12 7 15 19.5t-3 24.5q-7 11 -19.5 14.5t-24.5 -2.5l-174 -101q-7 4 -14.5 6.5t-16.5 2.5q-26 0 -45 -19t-19 -45t19 -45
t45 -19t45 19t19 45v0v0l173 100v0z" />
  </g>

</svg>
