<?xml version="1.0" standalone="no"?>
<!DOCTYPE svg PUBLIC "-//W3C//DTD SVG 1.1//EN" "http://www.w3.org/Graphics/SVG/1.1/DTD/svg11.dtd" >
<svg xmlns="http://www.w3.org/2000/svg" xmlns:xlink="http://www.w3.org/1999/xlink" version="1.1" viewBox="-10 0 1044 1024">
  <g transform="matrix(1 0 0 -1 0 960)">
   <path fill="currentColor"
d="M1024 448q0 106 -40 199.5t-109.5 163t-163 109.5t-199.5 40t-199.5 -40t-163 -109.5t-109.5 -163t-40 -199.5t40 -199.5t109.5 -163t163 -109.5t199.5 -40t199.5 40t163 109.5t109.5 163t40 199.5zM63 448q0 93 35.5 174.5t96.5 142t142.5 96t174.5 35.5t174.5 -35.5
t142 -96t96 -142t35.5 -174.5t-35.5 -174.5t-96 -142t-142 -96t-174.5 -35.5t-174.5 35.5t-142.5 96t-96.5 142t-35.5 174.5v0zM544 224v360l116 -116q9 -9 22.5 -9t22.5 9q10 10 10 23t-10 23l-194 189l-194 -189q-4 -5 -6.5 -11t-2.5 -12t2.5 -12t6.5 -11q10 -9 23 -9
t23 9l117 118v-362q0 -14 9.5 -23t22.5 -9q14 0 23 9t9 23v0z" />
  </g>

</svg>
