<?xml version="1.0" standalone="no"?>
<!DOCTYPE svg PUBLIC "-//W3C//DTD SVG 1.1//EN" "http://www.w3.org/Graphics/SVG/1.1/DTD/svg11.dtd" >
<svg xmlns="http://www.w3.org/2000/svg" xmlns:xlink="http://www.w3.org/1999/xlink" version="1.1" viewBox="-10 0 1042 1024">
  <g transform="matrix(1 0 0 -1 0 960)">
   <path fill="currentColor"
d="M736 32h-450q-13 0 -22.5 -9.5t-9.5 -22.5t9.5 -22.5t22.5 -9.5h450q13 0 22.5 9.5t9.5 22.5t-9.5 22.5t-22.5 9.5zM1017 838q-2 12 -11 19t-20 7h-157v32q0 13 -9 22.5t-23 9.5h-575q-13 0 -22.5 -9.5t-9.5 -22.5v-32h-152q-11 0 -20 -7t-11 -19q-1 -3 -4 -69t44 -124
q26 -33 67 -50t95 -19q15 -45 41.5 -84t61.5 -68.5t77 -48t88 -23.5v-223h-95q-14 0 -23 -9.5t-9 -22.5t9 -22.5t23 -9.5h258q13 0 22.5 9.5t9.5 22.5t-9.5 22.5t-22.5 9.5h-99v223q47 5 89 23.5t77 48t61.5 68.5t41.5 84q56 1 98 18.5t69 50.5q47 58 44 124t-4 69v0z
M96 685q-21 26 -25.5 59.5t-3.5 55.5h123v-108q0 -13 1 -25.5t3 -25.5q-33 3 -57.5 14t-40.5 30v0zM765 692q0 -58 -20 -108.5t-54.5 -88t-81 -59.5t-99.5 -22t-99.5 22t-81.5 59.5t-55 88t-20 108.5v172h511v-172v0zM928 685q-17 -19 -42.5 -30.5t-60.5 -13.5q2 12 3 25
t1 26v108h128q1 -22 -3.5 -55.5t-25.5 -59.5v0z" />
  </g>

</svg>
