<?xml version="1.0" standalone="no"?>
<!DOCTYPE svg PUBLIC "-//W3C//DTD SVG 1.1//EN" "http://www.w3.org/Graphics/SVG/1.1/DTD/svg11.dtd" >
<svg xmlns="http://www.w3.org/2000/svg" xmlns:xlink="http://www.w3.org/1999/xlink" version="1.1" viewBox="-10 0 1043 1024">
  <g transform="matrix(1 0 0 -1 0 960)">
   <path fill="currentColor"
d="M1016 463l-8 8v1h-1l-129 118q-7 7 -17 7t-17 -7l-6 -8q-7 -7 -5.5 -16t8.5 -16l77 -70h-372v374l70 -77q7 -7 16 -8.5t16 5.5l8 6q7 7 7 17t-7 17l-113 124q-2 4 -5 7.5t-7 5.5l-2 1q-3 4 -7 5.5t-9 1.5q-4 0 -8.5 -1.5t-7.5 -5.5l-8 -8v0l-1 -1l-115 -127q-7 -7 -7 -17
t7 -17l8 -6q7 -7 16.5 -5.5t15.5 8.5l69 77v-375h-376l77 69q7 7 8.5 16t-5.5 16l-6 8q-7 7 -17 7t-17 -7l-124 -113q-4 -2 -7.5 -5t-5.5 -7l-1 -2q-4 -3 -5.5 -7t-1.5 -9q0 -4 1.5 -8.5t5.5 -7.5l8 -8v0l1 -1l127 -115q7 -7 17 -7t17 7l6 8q7 7 5.5 16.5t-8.5 15.5l-78 69
h379v-376l-69 77q-6 7 -15.5 8.5t-16.5 -5.5l-8 -6q-7 -7 -7 -17t7 -17l115 -127l1 -1v0l8 -8q3 -4 7.5 -5.5t8.5 -1.5q5 0 9 1.5t7 5.5l8 8h1v1l118 129q7 7 7 17t-7 17l-8 6q-7 7 -16 5.5t-16 -8.5l-69 -77v374h373l-77 -69q-7 -6 -8.5 -15.5t5.5 -16.5l6 -8q7 -7 17 -7
t17 7l127 115l1 1v0l8 8q4 3 5.5 7.5t1.5 8.5q0 5 -1.5 9t-5.5 7v0z" />
  </g>

</svg>
