<?xml version="1.0" standalone="no"?>
<!DOCTYPE svg PUBLIC "-//W3C//DTD SVG 1.1//EN" "http://www.w3.org/Graphics/SVG/1.1/DTD/svg11.dtd" >
<svg xmlns="http://www.w3.org/2000/svg" xmlns:xlink="http://www.w3.org/1999/xlink" version="1.1" viewBox="-10 0 1044 1024">
  <g transform="matrix(1 0 0 -1 0 960)">
   <path fill="currentColor"
d="M962 760v-1t-1 -1q-9 -7 -38 -26t-61 -40.5t-61 -40.5t-39 -25q-2 0 -7.5 1t-13.5 5t-31.5 17.5t-57.5 32.5l-35 20l-33 -23q-19 -13 -59 -46.5t-102 -94.5q-61 -61 -94 -101.5t-46 -58.5l-24 -33l20 -36q15 -25 30 -52t20 -37q5 -8 6 -13t1 -7v0v-1l-25 -37.5l-41 -61.5
t-41 -62t-26 -39q-2 0 -6 0.5t-9 4.5q-42 30 -79.5 67t-44.5 54q2 45 23 98.5t58.5 113.5t92 126.5t124.5 136.5q70 69 136 123.5t126 92.5t113.5 58.5t98.5 22.5q17 -6 54 -43.5t67 -79.5q2 -3 3.5 -6.5t1.5 -7.5v0zM1024 760q0 13 -4 26t-12 25q-1 1 -19 24.5t-44 51.5
t-55 51.5t-53 22.5q-65 -2 -134.5 -32t-137.5 -75.5t-131.5 -100.5t-116.5 -108t-108.5 -116.5t-101 -131.5t-75.5 -138t-32 -136v-1q0 -23 23.5 -52.5t51.5 -55.5t51.5 -44l23.5 -18q31 -21 60.5 -16.5t42.5 24.5q5 6 25 36t43.5 65.5t44 67t25.5 39.5q4 7 6.5 15t2.5 17
q0 12 -3.5 24.5t-10.5 25.5q-6 12 -23.5 42.5t-27.5 48.5q11 16 42.5 54t91.5 98q59 59 97 90.5t54 42.5q19 -10 49 -27t42 -24q24 -12 46 -13t37 8q8 5 38.5 25.5t66 44t65.5 44t36 24.5q12 8 18 22t6 30v0z" />
  </g>

</svg>
