<?xml version="1.0" standalone="no"?>
<!DOCTYPE svg PUBLIC "-//W3C//DTD SVG 1.1//EN" "http://www.w3.org/Graphics/SVG/1.1/DTD/svg11.dtd" >
<svg xmlns="http://www.w3.org/2000/svg" xmlns:xlink="http://www.w3.org/1999/xlink" version="1.1" viewBox="-10 0 1034 1024">
  <g transform="matrix(1 0 0 -1 0 960)">
   <path fill="currentColor"
d="M655 894q-8 4 -17 3.5t-16 -5.5l-321 -252h-107q-41 0 -70 -25t-29 -61l2 -211q0 -36 29 -61.5t70 -25.5h106l320 -252q4 -3 8.5 -4.5t9.5 -1.5q4 0 7.5 1t7.5 3q8 4 12.5 11.5t4.5 16.5v836q0 9 -4.5 16.5t-12.5 11.5zM608 90l-278 225q-4 3 -8.5 4t-9.5 1h-116
q-16 0 -25.5 7.5t-9.5 15.5l-2 211q0 8 10 15t25 7h117q4 0 8.5 1.5t8.5 4.5l280 224v-716v0zM790 612q-13 3 -24 -5t-13 -21t5.5 -24t20.5 -13q38 -6 62 -36t24 -71q0 -38 -24.5 -68.5t-62.5 -37.5q-13 -3 -20 -14t-5 -24q2 -11 11 -18.5t20 -7.5q2 0 3.5 0.5t3.5 0.5
q60 12 99 60t39 109q0 64 -39.5 112t-99.5 58v0z" />
  </g>

</svg>
