<?xml version="1.0" standalone="no"?>
<!DOCTYPE svg PUBLIC "-//W3C//DTD SVG 1.1//EN" "http://www.w3.org/Graphics/SVG/1.1/DTD/svg11.dtd" >
<svg xmlns="http://www.w3.org/2000/svg" xmlns:xlink="http://www.w3.org/1999/xlink" version="1.1" viewBox="-10 0 1044 1024">
  <g transform="matrix(1 0 0 -1 0 960)">
   <path fill="currentColor"
d="M0 448q0 -106 40 -199.5t109.5 -163t163 -109.5t199.5 -40t199.5 40t163 109.5t109.5 163t40 199.5t-40 199.5t-109.5 163t-163 109.5t-199.5 40t-199.5 -40t-163 -109.5t-109.5 -163t-40 -199.5zM961 448q0 -93 -35.5 -174.5t-96.5 -142t-142.5 -96t-174.5 -35.5
t-174.5 35.5t-142 96t-96 142t-35.5 174.5t35.5 174.5t96 142t142 96t174.5 35.5t174.5 -35.5t142.5 -96t96.5 -142t35.5 -174.5zM480 672v-360l-116 116q-9 9 -22.5 9t-22.5 -9q-10 -10 -10 -23t10 -23l194 -189l194 189q4 5 6.5 11t2.5 12t-2.5 12t-6.5 11q-10 9 -23 9
t-23 -9l-117 -118v362q0 14 -9.5 23t-22.5 9q-14 0 -23 -9t-9 -23v0z" />
  </g>

</svg>
