<?xml version="1.0" standalone="no"?>
<!DOCTYPE svg PUBLIC "-//W3C//DTD SVG 1.1//EN" "http://www.w3.org/Graphics/SVG/1.1/DTD/svg11.dtd" >
<svg xmlns="http://www.w3.org/2000/svg" xmlns:xlink="http://www.w3.org/1999/xlink" version="1.1" viewBox="-10 0 1044 1024">
  <g transform="matrix(1 0 0 -1 0 960)">
   <path fill="currentColor"
d="M992 288h-32v2q0 60 -15.5 116.5t-44 105.5t-68.5 90t-88 70h161q8 -14 22.5 -23t32.5 -9q27 0 45.5 18.5t18.5 45.5t-18.5 45.5t-45.5 18.5q-18 0 -32.5 -9t-22.5 -23h-297v32q0 13 -9.5 22.5t-22.5 9.5h-128q-13 0 -22.5 -9.5t-9.5 -22.5v-32h-297q-8 14 -22.5 23
t-32.5 9q-27 0 -45.5 -18.5t-18.5 -45.5t18.5 -45.5t45.5 -18.5q18 0 32.5 9t22.5 23h161q-49 -29 -88.5 -70t-68 -90t-44 -105.5t-15.5 -116.5v-2h-32q-13 0 -22.5 -9.5t-9.5 -22.5v-128q0 -13 9.5 -22.5t22.5 -9.5h128q13 0 22.5 9.5t9.5 22.5v128q0 13 -9.5 22.5
t-22.5 9.5h-32v2q0 67 22 127t60.5 109t91 84t114.5 51v-21q0 -13 9.5 -22.5t22.5 -9.5h128q13 0 22.5 9.5t9.5 22.5v21q62 -16 114.5 -51t91 -84t60.5 -109t22 -127v-2h-32q-13 0 -22.5 -9.5t-9.5 -22.5v-128q0 -13 9.5 -22.5t22.5 -9.5h128q13 0 22.5 9.5t9.5 22.5v128
q0 13 -9.5 22.5t-22.5 9.5zM128 160h-64v64h64v-64zM544 672h-64v64h64v-64zM960 160h-64v64h64v-64z" />
  </g>

</svg>
