<?xml version="1.0" standalone="no"?>
<!DOCTYPE svg PUBLIC "-//W3C//DTD SVG 1.1//EN" "http://www.w3.org/Graphics/SVG/1.1/DTD/svg11.dtd" >
<svg xmlns="http://www.w3.org/2000/svg" xmlns:xlink="http://www.w3.org/1999/xlink" version="1.1" viewBox="-11 0 1046 1024">
  <g transform="matrix(1 0 0 -1 0 960)">
   <path fill="currentColor"
d="M686 577l275 273l-1 -155q0 -9 6.5 -16.5t16.5 -7.5h17q9 1 16 6.5t8 14.5v231q0 1 -0.5 1h-0.5l2 12q0 5 -1.5 9t-4.5 7t-7.5 5t-8.5 2l-12 -1h-0.5h-0.5l-229 1q-10 0 -17 -7t-7 -17v-16q1 -11 9 -17.5t18 -6.5h151l-274 -273q-10 -9 -10 -22.5t10 -22.5
q9 -10 22.5 -10t22.5 10zM339 319l-275 -273l1 155q0 9 -6.5 16.5t-16.5 7.5h-18q-9 -1 -16 -6.5t-8 -14.5v-231q0 -1 0.5 -1h0.5l-2 -12q0 -5 1.5 -9t4.5 -7t7.5 -5t8.5 -2l12 1h0.5h0.5l230 -1q10 0 17 7t7 17v16q-1 11 -9 17.5t-18 6.5h-151l274 273q10 9 10 22.5
t-10 22.5q-9 10 -22.5 10t-22.5 -10v0zM1024 -27v231q-1 9 -8 14.5t-16 6.5h-17q-10 0 -16.5 -7.5t-6.5 -16.5l1 -155l-275 273q-9 10 -22.5 10t-22.5 -10q-10 -9 -10 -22.5t10 -22.5l274 -273h-151q-10 0 -18 -6.5t-9 -17.5v-16q0 -10 7 -17t17 -7l229 1h0.5h0.5l12 -1
q4 0 8.5 2t7.5 5t4.5 7t1.5 9l-2 12h0.5t0.5 1v0zM110 895h151q10 0 18 6.5t9 17.5v16q0 10 -7 17t-17 7l-230 -1h-0.5h-0.5l-12 1q-4 0 -8.5 -2t-7.5 -5t-4.5 -7t-1.5 -9l2 -12h-0.5t-0.5 -1v-231q1 -9 8 -14.5t16 -6.5h18q10 0 16.5 7.5t6.5 16.5l-1 155l275 -273
q9 -10 22.5 -10t22.5 10q10 9 10 22.5t-10 22.5l-274 273v0z" />
  </g>

</svg>
