<?xml version="1.0" standalone="no"?>
<!DOCTYPE svg PUBLIC "-//W3C//DTD SVG 1.1//EN" "http://www.w3.org/Graphics/SVG/1.1/DTD/svg11.dtd" >
<svg xmlns="http://www.w3.org/2000/svg" xmlns:xlink="http://www.w3.org/1999/xlink" version="1.1" viewBox="-10 0 1044 1024">
  <g transform="matrix(1 0 0 -1 0 960)">
   <path fill="currentColor"
d="M1024 640q0 26 -18.5 45t-45.5 19h-109q21 20 33.5 47.5t12.5 61.5q0 42 -27 79t-94 37q-44 0 -84 -21t-74 -51t-60.5 -63.5t-43.5 -60.5q-17 27 -44 60.5t-61.5 63.5t-75 51t-84.5 21q-67 0 -94 -37t-27 -79q0 -34 12.5 -61.5t34.5 -48.5h-111q-27 0 -45.5 -18.5
t-18.5 -45.5v-191h65v-417q0 -26 18.5 -45t45.5 -19h767q27 0 45.5 19t18.5 45v417h64v192v0zM776 865q30 0 43.5 -13t13.5 -39q0 -53 -49 -81t-105 -28h-108q34 50 89.5 105.5t115.5 55.5zM249 865q60 0 117 -55.5t91 -105.5h-108q-56 0 -106.5 28.5t-50.5 81.5
q0 26 13.5 38.5t43.5 12.5zM960 512h-416v128h416v-128zM64 640h416v-128h-416v128zM129 448h351v-417h-351v417v0zM896 31h-352v417h352v-417z" />
  </g>

</svg>
