<?xml version="1.0" standalone="no"?>
<!DOCTYPE svg PUBLIC "-//W3C//DTD SVG 1.1//EN" "http://www.w3.org/Graphics/SVG/1.1/DTD/svg11.dtd" >
<svg xmlns="http://www.w3.org/2000/svg" xmlns:xlink="http://www.w3.org/1999/xlink" version="1.1" viewBox="-11 0 1046 1024">
  <g transform="matrix(1 0 0 -1 0 960)">
   <path fill="currentColor"
d="M383 613v231q-1 10 -8 15.5t-16 5.5h-17q-10 0 -16.5 -7t-6.5 -17l1 -155l-266 264q-9 9 -22.5 9t-22.5 -9q-10 -10 -10 -23t10 -23l265 -262l-151 -1q-10 1 -18 -5.5t-9 -17.5v-17q0 -10 7 -17t17 -7l229 1h0.5h0.5h12q4 0 8.5 1.5t7.5 4.5q3 4 4.5 8t1.5 9l-2 12h0.5
h0.5zM646 584q3 -3 7.5 -4.5t8.5 -1.5h12h0.5h0.5l229 -1q10 0 17 7t7 17v17q-1 11 -9 17.5t-18 5.5l-151 1l265 262q10 10 10 23t-10 23q-9 9 -22.5 9t-22.5 -9l-266 -264l1 155q0 10 -6.5 17t-16.5 7h-17q-9 0 -16 -5.5t-8 -15.5v-231h0.5h0.5l-2 -12q0 -5 1.5 -9t4.5 -8z
M378 313q-3 3 -7.5 4.5t-8.5 1.5h-12h-0.5h-0.5l-229 1q-10 0 -17 -7t-7 -17v-17q1 -11 9 -17.5t18 -5.5l151 -1l-265 -263q-10 -10 -10 -23t10 -23q9 -9 22.5 -9t22.5 9l266 265l-1 -156q0 -10 6.5 -17t16.5 -7h17q9 0 16 5.5t8 15.5v231h-0.5h-0.5l2 13q0 5 -1.5 9t-4.5 8
v0zM750 255l151 1q10 -1 18 5.5t9 17.5v17q0 9 -7 16t-17 8h-229h-0.5h-0.5h-14q-4 0 -8.5 -2.5t-7.5 -5.5q-3 -4 -4.5 -8t-1.5 -9l2 -12h-0.5h-0.5v-231q1 -10 8 -15.5t16 -5.5h18q10 0 16.5 7t6.5 17l-1 154l267 -263q9 -9 22.5 -9t22.5 9q10 10 10 23t-10 23z" />
  </g>

</svg>
