<?xml version="1.0" standalone="no"?>
<!DOCTYPE svg PUBLIC "-//W3C//DTD SVG 1.1//EN" "http://www.w3.org/Graphics/SVG/1.1/DTD/svg11.dtd" >
<svg xmlns="http://www.w3.org/2000/svg" xmlns:xlink="http://www.w3.org/1999/xlink" version="1.1" viewBox="-10 0 1044 1024">
  <g transform="matrix(1 0 0 -1 0 960)">
   <path fill="currentColor"
d="M763 700q-17 44 -43 80t-62 61t-81 38.5t-99 13.5q-70 0 -127.5 -24t-100 -66.5t-68 -100t-29.5 -124.5q-67 -21 -110 -83t-43 -139q0 -47 17.5 -89t47 -74t68.5 -50.5t83 -18.5h92q14 0 23 9.5t9 22.5t-9 22.5t-23 9.5h-92q-62 0 -107.5 50t-45.5 118q0 60 37 108t90 57
l29 5l-2 30h-1q0 58 18.5 108.5t53 87t82.5 57t108 20.5q95 0 150.5 -44.5t80.5 -124.5l7 -22l23 -1q45 0 85 -17.5t71 -47t49 -69t18 -84.5q0 -41 -13 -82t-37 -74t-57.5 -54t-74.5 -21h-73q-13 0 -22.5 -9.5t-9.5 -22.5t9.5 -22.5t22.5 -9.5h73q60 2 105.5 29t76 68.5
t46.5 93.5t16 104q0 55 -20.5 103.5t-56 86t-83 61.5t-101.5 30v0zM536 445v0v1l-8 8q-4 4 -8 5.5t-9 1.5q-4 0 -8.5 -1.5t-7.5 -5.5l-8 -8v-1v0l-116 -128q-7 -7 -7 -16.5t7 -17.5l8 -5q7 -7 16.5 -5.5t16.5 8.5l68 76v-322q0 -14 9 -23t23 -9q13 0 22.5 9t9.5 23v322
l70 -78q7 -7 16.5 -8.5t15.5 5.5l8 5q7 8 7 17.5t-7 16.5l-118 130v0z" />
  </g>

</svg>
