<?xml version="1.0" standalone="no"?>
<!DOCTYPE svg PUBLIC "-//W3C//DTD SVG 1.1//EN" "http://www.w3.org/Graphics/SVG/1.1/DTD/svg11.dtd" >
<svg xmlns="http://www.w3.org/2000/svg" xmlns:xlink="http://www.w3.org/1999/xlink" version="1.1" viewBox="-11 0 1046 1024">
  <g transform="matrix(1 0 0 -1 0 960)">
   <path fill="currentColor"
d="M1021 229l-82 151v0v0l-6 11q-3 4 -6.5 6.5t-8.5 3.5q-4 1 -8.5 0.5t-8.5 -3.5l-10 -6v0v-1l-146 -98q-8 -5 -10.5 -14.5t2.5 -18.5l7 -7q5 -8 14.5 -9t17.5 4l87 60q-8 -63 -35.5 -116.5t-70 -94.5t-97 -66.5t-116.5 -31.5v642h128q13 0 22.5 9.5t9.5 22.5t-9.5 22.5
t-22.5 9.5h-129q-1 1 -1 1.5v0.5q43 10 71 45t28 81q0 53 -37.5 91t-91.5 38q-53 0 -91 -38t-38 -91q0 -46 28.5 -80.5t70.5 -44.5v-1.5t-1 -1.5h-129q-13 0 -22.5 -9.5t-9.5 -22.5t9.5 -22.5t22.5 -9.5h128v-642q-62 6 -116.5 31.5t-97 66.5t-70 94.5t-35.5 116.5l87 -60
q8 -5 17.5 -4t14.5 9l7 7q5 9 2.5 18.5t-10.5 14.5l-146 99v0v0l-10 6q-4 3 -8.5 3.5t-8.5 -0.5q-5 -1 -8.5 -3.5t-6.5 -6.5l-6 -11v0v0l-82 -151q-5 -9 -2.5 -18.5t10.5 -14.5l9 -4q8 -5 17 -1.5t14 12.5l48 89q11 -77 47.5 -142.5t92 -113.5t125.5 -75t148 -27t148 27
t125.5 75t92 113.5t47.5 142.5l48 -89q5 -9 14 -12.5t17 1.5l9 4q8 5 10.5 14.5t-2.5 18.5v0zM448 833q0 27 19 46t45 19q27 0 46.5 -19t19.5 -46t-19.5 -46t-46.5 -19q-26 0 -45 19t-19 46v0z" />
  </g>

</svg>
