<?xml version="1.0" standalone="no"?>
<!DOCTYPE svg PUBLIC "-//W3C//DTD SVG 1.1//EN" "http://www.w3.org/Graphics/SVG/1.1/DTD/svg11.dtd" >
<svg xmlns="http://www.w3.org/2000/svg" xmlns:xlink="http://www.w3.org/1999/xlink" version="1.1" viewBox="-11 0 1046 1024">
  <g transform="matrix(1 0 0 -1 0 960)">
   <path fill="currentColor"
d="M743 884q-19 9 -37 18t-35 17q-42 21 -80.5 31.5t-75.5 10.5q-74 0 -125.5 -34t-83.5 -65l-207 -208q-41 -41 -65.5 -83.5t-31.5 -87.5t3 -93t37 -101q8 -17 16.5 -35t17.5 -37q24 -52 49.5 -102.5t54.5 -90.5t62.5 -64.5t74.5 -24.5h5h4q43 4 71.5 30.5t47.5 66.5
t31.5 89t23.5 97q3 15 6.5 29.5t6.5 27.5q6 23 19.5 41.5t43.5 48.5l6 6l4 4l9 9q31 30 49 44t41 19q13 4 27.5 7t29.5 6q48 11 97 23.5t89 32t66.5 47.5t29.5 71q4 43 -19.5 78t-64 65t-92 56t-105.5 51v0zM958 640q-2 -30 -33 -50.5t-75 -35t-93.5 -24.5t-89.5 -20
q-35 -9 -60.5 -28.5t-57.5 -51.5l-5 -5t-5 -4q-2 -3 -4 -5t-5 -4q-32 -33 -51.5 -58.5t-27.5 -60.5q-10 -40 -20.5 -89.5t-25 -94t-34.5 -75t-50 -33.5h-2.5h-2.5q-31 0 -60.5 32t-56.5 80t-52 103.5t-49 102.5q-48 95 -32 162.5t77 129.5q12 12 27 26.5t32 32.5
q19 18 41 40t47 48q18 18 33 32.5t27 26.5q38 38 77.5 59.5t85.5 21.5q29 0 60.5 -8.5t67.5 -26.5q48 -24 104.5 -50t104.5 -53.5t79.5 -57.5t28.5 -62v0zM479 609h64v64h-64v-64zM479 705h64v64h-64v-64zM575 705h64v64h-64v-64zM575 609h64v64h-64v-64zM330 417l24 24
q9 9 9 21.5t-9 21.5t-21.5 9t-21.5 -9l-25 -24l-24 24q-9 9 -21.5 9t-21.5 -9t-9 -21.5t9 -21.5l24 -24l-24 -25q-9 -9 -9 -21.5t9 -21.5t21.5 -9t21.5 9l24 24l25 -25q9 -9 22 -9t22 9t9 22t-9 22z" />
  </g>

</svg>
