<?xml version="1.0" standalone="no"?>
<!DOCTYPE svg PUBLIC "-//W3C//DTD SVG 1.1//EN" "http://www.w3.org/Graphics/SVG/1.1/DTD/svg11.dtd" >
<svg xmlns="http://www.w3.org/2000/svg" xmlns:xlink="http://www.w3.org/1999/xlink" version="1.1" viewBox="-10 0 1046 1024">
  <g transform="matrix(1 0 0 -1 0 960)">
   <path fill="currentColor"
d="M288 846q24 0 67.5 -19t112.5 -87l46 -45l45 46q48 49 95.5 77t81.5 28q46 0 84 -16.5t73 -51.5q33 -33 51 -76t18 -90t-18 -90t-51 -77q-2 -1 -35.5 -37t-85 -92t-115 -124t-123.5 -134q-6 -5 -12 -6.5t-9 -1.5q-4 0 -9.5 1.5t-11.5 6.5q-15 16 -68 75.5t-113.5 126
t-113 124t-64.5 69.5q-33 33 -51 76t-18 90t18 90t51 77q33 32 71 46t84 14v0zM288 910q-57 0 -107.5 -18.5t-92.5 -60.5q-44 -44 -66 -99t-22 -112.5t22 -112.5t66 -99q12 -13 69.5 -76t121.5 -134t115.5 -127.5l51.5 -56.5q14 -14 31 -21t36 -7q18 0 35.5 7t31.5 21
l55.5 59.5t122 132t123 133t57.5 61.5q44 44 66 99.5t22 112.5t-22 112.5t-66 98.5q-43 44 -93 65.5t-109 21.5q-57 0 -116.5 -38t-106.5 -86q-49 48 -107.5 86t-117.5 38v0v0z" />
  </g>

</svg>
