<?xml version="1.0" standalone="no"?>
<!DOCTYPE svg PUBLIC "-//W3C//DTD SVG 1.1//EN" "http://www.w3.org/Graphics/SVG/1.1/DTD/svg11.dtd" >
<svg xmlns="http://www.w3.org/2000/svg" xmlns:xlink="http://www.w3.org/1999/xlink" version="1.1" viewBox="-12 0 1048 1024">
  <g transform="matrix(1 0 0 -1 0 960)">
   <path fill="currentColor"
d="M793 223q-76 0 -122.5 28t-74.5 51q-10 9 -19.5 17t-17.5 15q-13 11 -26.5 22.5t-18.5 13.5h-2h-2q-1 0 -2.5 -0.5t-2.5 -0.5q-4 -1 -15 -10.5t-22 -19.5q-10 -8 -21.5 -17.5t-23.5 -19.5l-3 -2q-33 -26 -77.5 -51t-116.5 -25q-53 0 -102 22.5t-80 60.5q-21 26 -37 72
t-2 114q2 8 7.5 14.5t13.5 9.5q7 2 15.5 0.5t14.5 -6.5q1 0 16.5 -8.5t42.5 -8.5q14 0 28.5 3t28.5 10q25 11 44 37t38 47q25 28 57 54.5t80 27.5q33 0 62.5 -12.5t56.5 -36.5q26 24 55.5 36t61.5 12q49 0 81.5 -26.5t58.5 -55.5q19 -20 38.5 -46t44.5 -37q14 -7 28.5 -10
t28.5 -3q28 0 45 8.5t17 9.5q7 5 15 6t16 -2t13 -9.5t7 -14.5q12 -67 -4 -112.5t-38 -71.5q-32 -39 -81.5 -62t-103.5 -23zM511 434h2h2h2.5h2.5l1.5 -0.5l1.5 -0.5q18 -2 35.5 -15.5t42.5 -35.5q8 -7 16.5 -14.5t18.5 -15.5q26 -22 62 -43.5t95 -21.5q40 0 76.5 16.5
t60.5 45.5q15 19 23 41t8 48q-11 -4 -24.5 -6t-29.5 -2q-21 0 -41.5 4.5t-41.5 13.5q-34 15 -58.5 46t-45.5 53q-26 28 -46 44.5t-46 16.5q-34 0 -57 -17t-37 -33q-5 -6 -11 -9t-13 -3v0q-7 0 -13.5 3t-10.5 9q-14 16 -37 33.5t-57 17.5q-26 0 -46 -16.5t-45 -44.5
q-20 -23 -44.5 -54t-58.5 -46q-21 -9 -41.5 -13.5t-41.5 -4.5q-15 0 -28 2t-24 6q0 -26 7.5 -48.5t22.5 -41.5q22 -28 58 -44t75 -16q56 0 90.5 19.5t64.5 42.5l3 3q12 9 22.5 18t20.5 17q21 19 36.5 30.5t30.5 14.5v0l6 0.5t11 0.5v0z" />
  </g>

</svg>
