<?xml version="1.0" standalone="no"?>
<!DOCTYPE svg PUBLIC "-//W3C//DTD SVG 1.1//EN" "http://www.w3.org/Graphics/SVG/1.1/DTD/svg11.dtd" >
<svg xmlns="http://www.w3.org/2000/svg" xmlns:xlink="http://www.w3.org/1999/xlink" version="1.1" viewBox="-10 0 1044 1024">
  <g transform="matrix(1 0 0 -1 0 960)">
   <path fill="currentColor"
d="M1015 580l-368 370q-6 6 -14 8.5t-17 0.5q-8 -2 -14 -8t-9 -14q-16 -53 -18 -101.5t11 -92.5q-2 -1 -3 -2l-2 -2l-171 -171q-41 19 -85 29t-89 10q-28 0 -55.5 -4t-53.5 -12q-8 -3 -14 -9t-8 -14t0.5 -16t8.5 -14l219 -221l-307 -311l-26 -70l64 25l314 311l221 -223
q5 -5 11 -7.5t12 -2.5q2 0 4 0.5t4 0.5q8 2 14 8t9 14q21 70 15.5 143t-36.5 140l175 175l0.5 0.5l1.5 1.5q19 -6 39.5 -9t42.5 -3q26 0 54 4t57 13q8 3 13.5 9t7.5 14t0 16t-8 14v0zM603 136l-403 405q39 5 78.5 -0.5t78 -19.5t74 -37t65.5 -53t52.5 -65.5t36 -73.5
t18.5 -77.5t0 -78.5zM600 403q-12 20 -27 38t-32 35t-35 32t-38 28l144 144q11 -20 25.5 -38t31.5 -36q18 -18 37 -32.5t39 -25.5l-145 -145v0zM715 652q-47 46 -64.5 98t-8.5 114l287 -288q-62 -9 -114.5 10t-99.5 66z" />
  </g>

</svg>
