<?xml version="1.0" standalone="no"?>
<!DOCTYPE svg PUBLIC "-//W3C//DTD SVG 1.1//EN" "http://www.w3.org/Graphics/SVG/1.1/DTD/svg11.dtd" >
<svg xmlns="http://www.w3.org/2000/svg" xmlns:xlink="http://www.w3.org/1999/xlink" version="1.1" viewBox="-12 0 1049 1024">
  <g transform="matrix(1 0 0 -1 0 960)">
   <path fill="currentColor"
d="M1021 531l-103 153l51 179q2 9 0 17t-8 15q-7 6 -15 8t-17 0l-178 -52l-155 103q-7 5 -15.5 5.5t-16.5 -3.5t-12.5 -11t-5.5 -16l-5 -186l-147 -115q-6 -5 -9.5 -13t-1.5 -17q1 -9 6.5 -15.5t13.5 -9.5l138 -49l-1.5 -1.5l-1.5 -1.5l-531 -530q-9 -10 -9 -23t9 -23
q5 -4 11 -6.5t12 -2.5t12 2.5t11 6.5l530 531q2 2 3 3.5t2 3.5l54 -148q3 -8 10 -13.5t15 -6.5q2 0 3 -0.5t2 -0.5q8 0 14.5 3.5t11.5 9.5l113 147l184 7q9 0 16.5 4.5t11.5 12.5t3 16.5t-5 16.5v0zM794 537q-7 0 -13.5 -3t-10.5 -9l-88 -113l-49 134q-2 7 -7 12t-12 7
l-134 49l112 88q6 4 9 10.5t3 13.5l5 143l118 -80q6 -4 13 -5t14 1l137 40l-39 -137q-2 -7 -1 -14t5 -13l81 -118l-143 -6v0z" />
  </g>

</svg>
