<?xml version="1.0" standalone="no"?>
<!DOCTYPE svg PUBLIC "-//W3C//DTD SVG 1.1//EN" "http://www.w3.org/Graphics/SVG/1.1/DTD/svg11.dtd" >
<svg xmlns="http://www.w3.org/2000/svg" xmlns:xlink="http://www.w3.org/1999/xlink" version="1.1" viewBox="-10 0 1034 1024">
  <g transform="matrix(1 0 0 -1 0 960)">
   <path fill="currentColor"
d="M272 640h-224q-13 0 -22.5 -9.5t-9.5 -22.5v-640q0 -13 9.5 -22.5t22.5 -9.5h224q13 0 22.5 9.5t9.5 22.5v640q0 13 -9.5 22.5t-22.5 9.5v0zM240 0h-160v576h160v-576zM624 450h-224q-14 0 -23 -9.5t-9 -22.5v-450q0 -13 9 -22.5t23 -9.5h224q13 0 22.5 9.5t9.5 22.5v450
q0 13 -9.5 22.5t-22.5 9.5zM592 0h-160v386h160v-386zM976 960h-224q-13 0 -22.5 -9.5t-9.5 -22.5v-960q0 -13 9.5 -22.5t22.5 -9.5h224q13 0 22.5 9.5t9.5 22.5v960q0 13 -9.5 22.5t-22.5 9.5zM944 0h-160v896h160v-896z" />
  </g>

</svg>
