<?xml version="1.0" standalone="no"?>
<!DOCTYPE svg PUBLIC "-//W3C//DTD SVG 1.1//EN" "http://www.w3.org/Graphics/SVG/1.1/DTD/svg11.dtd" >
<svg xmlns="http://www.w3.org/2000/svg" xmlns:xlink="http://www.w3.org/1999/xlink" version="1.1" viewBox="-11 0 1045 1024">
  <g transform="matrix(1 0 0 -1 0 960)">
   <path fill="currentColor"
d="M684 801q40 0 74.5 -15t60.5 -41q31 6 60.5 17t55.5 26q-10 -31 -31 -56.5t-49 -41.5q27 3 53.5 10t51.5 18q-18 -27 -41.5 -50.5t-50.5 -42.5q1 -5 1 -11v-12q0 -88 -34 -178.5t-100.5 -163.5t-164.5 -119t-224 -46q-78 0 -149.5 21t-132.5 59q11 -1 21.5 -2t22.5 -1
q64 0 122.5 20.5t105.5 56.5q-60 1 -107 36t-65 88q9 -2 17.5 -3t17.5 -1q12 0 24.5 2t23.5 5q-63 12 -105 61t-42 114v0.5v1.5q18 -10 39 -16t44 -6q-37 24 -59.5 63t-22.5 85q0 25 6.5 47.5t18.5 42.5q34 -41 76 -74t90.5 -57t102 -38.5t110.5 -17.5q-2 10 -3.5 20.5
t-1.5 20.5q0 74 54 126t130 52v0zM684 865q-47 0 -89 -16t-74.5 -44.5t-54 -67t-27.5 -82.5q-78 15 -146 55t-118 100q-9 11 -22 17t-27 6h-2.5t-2.5 -1q-15 -1 -28.5 -9t-21.5 -21q-16 -28 -25 -59.5t-9 -63.5q0 -22 4 -43t11 -40q-8 -9 -12 -20t-4 -23v-2
q0 -47 17.5 -89.5t48.5 -75.5q-2 -8 -1.5 -16.5t2.5 -16.5q11 -33 30 -60.5t44 -48.5q-17 -4 -34.5 -6t-34.5 -2q-10 0 -19 0.5t-18 1.5q-2 1 -3.5 1h-3.5q-20 0 -37 -12t-24 -31q-7 -21 0.5 -42.5t26.5 -32.5q35 -23 73 -39.5t78 -28t81.5 -17t83.5 -5.5q136 0 244.5 48.5
t184 128t116 181t42.5 205.5q22 19 42 40t36 45q6 8 9.5 18t3.5 21q0 16 -7.5 30t-19.5 22q5 19 -0.5 37.5t-20.5 30.5q-9 7 -19.5 10.5t-21.5 3.5q-8 0 -16 -2t-16 -6q-15 -10 -32 -17t-35 -12q-33 24 -71.5 37t-80.5 13v0v0z" />
  </g>

</svg>
