<?xml version="1.0" standalone="no"?>
<!DOCTYPE svg PUBLIC "-//W3C//DTD SVG 1.1//EN" "http://www.w3.org/Graphics/SVG/1.1/DTD/svg11.dtd" >
<svg xmlns="http://www.w3.org/2000/svg" xmlns:xlink="http://www.w3.org/1999/xlink" version="1.1" viewBox="-10 0 1044 1024">
  <g transform="matrix(1 0 0 -1 0 960)">
   <path fill="currentColor"
d="M992 480h-97q-6 70 -35.5 131.5t-76 108t-108 76t-131.5 34.5v98q0 13 -9.5 22.5t-22.5 9.5t-22.5 -9.5t-9.5 -22.5v-98q-70 -5 -131.5 -34.5t-108 -76t-76 -108t-35.5 -131.5h-97q-13 0 -22.5 -9.5t-9.5 -22.5t9.5 -22.5t22.5 -9.5h97q6 -70 35.5 -131.5t76 -108
t108 -76t131.5 -34.5v-98q0 -13 9.5 -22.5t22.5 -9.5t22.5 9.5t9.5 22.5v98q70 5 131.5 34.5t108 76t76 108t35.5 131.5h97q13 0 22.5 9.5t9.5 22.5t-9.5 22.5t-22.5 9.5zM480 766v-286h-286q5 57 29.5 106.5t62.5 87.5t87.5 62.5t106.5 29.5zM194 416h286v-286
q-57 5 -106.5 29.5t-87.5 62.5t-62.5 87.5t-29.5 106.5v0zM544 130v286h286q-5 -57 -29.5 -106.5t-62.5 -87.5t-87.5 -62.5t-106.5 -29.5v0zM544 480v286q57 -5 106.5 -29.5t87.5 -62.5t62.5 -87.5t29.5 -106.5h-286z" />
  </g>

</svg>
