<?xml version="1.0" standalone="no"?>
<!DOCTYPE svg PUBLIC "-//W3C//DTD SVG 1.1//EN" "http://www.w3.org/Graphics/SVG/1.1/DTD/svg11.dtd" >
<svg xmlns="http://www.w3.org/2000/svg" xmlns:xlink="http://www.w3.org/1999/xlink" version="1.1" viewBox="-10 0 1044 1024">
  <g transform="matrix(1 0 0 -1 0 960)">
   <path fill="currentColor"
d="M928 784h-832q-40 0 -68 -28t-28 -68v-480q0 -40 28 -68t68 -28h832q40 0 68 28t28 68v480q0 40 -28 68t-68 28zM96 720h832q13 0 22.5 -9.5t9.5 -22.5v-64h-896v64q0 13 9.5 22.5t22.5 9.5zM928 176h-832q-13 0 -22.5 9.5t-9.5 22.5v288h896v-288q0 -13 -9.5 -22.5
t-22.5 -9.5z" />
  </g>

</svg>
