<?xml version="1.0" standalone="no"?>
<!DOCTYPE svg PUBLIC "-//W3C//DTD SVG 1.1//EN" "http://www.w3.org/Graphics/SVG/1.1/DTD/svg11.dtd" >
<svg xmlns="http://www.w3.org/2000/svg" xmlns:xlink="http://www.w3.org/1999/xlink" version="1.1" viewBox="-10 0 1044 1024">
  <g transform="matrix(1 0 0 -1 0 960)">
   <path fill="currentColor"
d="M576 867q-14 0 -23 -9.5t-9 -22.5q0 -14 9 -23t23 -9q85 0 155.5 -29.5t121.5 -82t79 -124t28 -156.5t-32.5 -160t-88 -130.5t-130.5 -88t-160 -32.5t-156.5 29t-124 81t-82 123.5t-29.5 156.5q0 13 -9 22.5t-23 9.5q-13 0 -22.5 -9.5t-9.5 -22.5q0 -98 34.5 -181.5
t95.5 -144t144.5 -94.5t181.5 -34t184.5 37.5t151 102t102 151t37.5 184.5t-33.5 181.5t-93 144.5t-141.5 95.5t-180 34.5zM480 512v416q0 13 -9 22.5t-23 9.5q-93 0 -175 -35t-142.5 -95.5t-95.5 -142.5t-35 -175q0 -14 9.5 -23t22.5 -9h416q14 0 23 9t9 23zM416 544h-351
q6 70 35 131.5t76 108.5t108.5 76t131.5 35v-351z" />
  </g>

</svg>
