<?xml version="1.0" standalone="no"?>
<!DOCTYPE svg PUBLIC "-//W3C//DTD SVG 1.1//EN" "http://www.w3.org/Graphics/SVG/1.1/DTD/svg11.dtd" >
<svg xmlns="http://www.w3.org/2000/svg" xmlns:xlink="http://www.w3.org/1999/xlink" version="1.1" viewBox="-10 0 1044 1024">
  <g transform="matrix(1 0 0 -1 0 960)">
   <path fill="currentColor"
d="M960 545l-82 18q-4 16 -10.5 30.5t-13.5 28.5l44 74q13 20 16 46t-16 45l-45 45q-19 19 -46 17.5t-47 -14.5l-72 -46q-14 7 -28.5 13t-29.5 11l-18 84q-5 22 -23 42.5t-45 20.5h-64q-27 0 -43 -20.5t-21 -43.5l-21 -82q-16 -5 -31.5 -11.5t-30.5 -14.5l-74 47
q-19 13 -46.5 14.5t-45.5 -17.5l-46 -45q-18 -19 -15 -45t15 -46l47 -78q-6 -13 -12 -27t-10 -28l-82 -18q-23 -4 -43.5 -22.5t-20.5 -45.5v-64q0 -26 20.5 -42t43.5 -22l83 -20q4 -14 9.5 -26.5t11.5 -24.5l-47 -78q-12 -20 -15 -46t15 -45l46 -45q18 -19 45.5 -17.5
t46.5 14.5l74 47q15 -8 31 -14.5t32 -11.5l20 -82q6 -23 22 -43.5t42 -20.5h64q27 0 45.5 20.5t22.5 43.5l18 83q16 5 30 11t28 13l72 -46q20 -13 47 -14.5t46 17.5l45 45q19 19 16 45t-16 46l-44 74q7 13 12.5 26.5t10.5 28.5l83 20q23 6 43.5 22t20.5 42v64
q0 27 -20.5 45.5t-43.5 22.5v0zM960 418q-2 -2 -5.5 -3.5t-8.5 -2.5l-119 -30l-11 -33q-4 -12 -8.5 -23.5t-10.5 -22.5l-16 -32l63 -104q3 -5 4.5 -9t1.5 -7l-42 -42q-3 1 -6 2.5l-5 2.5l-105 67l-33 -17q-12 -6 -24 -11t-24 -9l-35 -12l-26 -119q-1 -4 -3.5 -8t-3.5 -5h-58
q-2 2 -3.5 5.5t-2.5 8.5l-30 118l-34 11q-13 4 -26 9.5t-26 12.5l-33 17l-105 -67q-3 -2 -6.5 -3.5t-6.5 -1.5l-42 41q0 3 1.5 7t4.5 8l65 109l-15 31q-6 11 -10.5 21.5t-7.5 20.5l-11 34l-117 30q-6 1 -10 2.5t-6 3.5v59v0v0q1 0 4.5 2t6.5 3l121 27l11 35q3 11 7.5 22
t10.5 24l16 31l-65 108q-3 5 -4.5 9t-1.5 7l42 42q3 -1 6 -2.5l5 -2.5l107 -68l33 17q13 7 26 12.5t26 9.5l34 11l29 116q1 6 3 10t4 6h59l2 -3.5t3 -7.5l26 -121l35 -12q13 -3 25 -8.5t24 -11.5l33 -17l103 66q3 2 6.5 3t6.5 1l42 -41q0 -2 -1.5 -6t-4.5 -8l-63 -105
l16 -32q7 -13 12 -25t8 -24l11 -35l119 -27q5 -1 9 -3.5t5 -3.5l-1 -57v0zM512 640q-79 0 -135.5 -56t-56.5 -136t56.5 -136t135.5 -56q80 0 136.5 56t56.5 136t-56.5 136t-136.5 56zM512 320q-53 0 -90.5 37.5t-37.5 90.5t37.5 90.5t90.5 37.5t90.5 -37.5t37.5 -90.5
t-37.5 -90.5t-90.5 -37.5z" />
  </g>

</svg>
