<?xml version="1.0" standalone="no"?>
<!DOCTYPE svg PUBLIC "-//W3C//DTD SVG 1.1//EN" "http://www.w3.org/Graphics/SVG/1.1/DTD/svg11.dtd" >
<svg xmlns="http://www.w3.org/2000/svg" xmlns:xlink="http://www.w3.org/1999/xlink" version="1.1" viewBox="-10 0 1044 1024">
  <g transform="matrix(1 0 0 -1 0 960)">
   <path fill="currentColor"
d="M1024 670q0 17 -12 50t-66 48l-723 144q-39 0 -67.5 -28t-28.5 -68v-128h-32q-39 -1 -67 -29t-28 -67v-512q0 -40 28 -68t68 -28h832q40 0 68 28t28 68v590v0zM191 816q0 13 8.5 22t21.5 10l706 -143l-6 -9t-25 -8h-705v128v0zM960 80q0 -13 -9.5 -22.5t-22.5 -9.5h-832
q-13 0 -22.5 9.5t-9.5 22.5v512q0 13 9.5 22.5t22.5 9.5h800q23 0 43.5 8t20.5 24v-576v0zM192 400q-27 0 -45.5 -19t-18.5 -45q0 -27 18.5 -45.5t45.5 -18.5q26 0 45 18.5t19 45.5q0 26 -19 45t-45 19z" />
  </g>

</svg>
