<?xml version="1.0" standalone="no"?>
<!DOCTYPE svg PUBLIC "-//W3C//DTD SVG 1.1//EN" "http://www.w3.org/Graphics/SVG/1.1/DTD/svg11.dtd" >
<svg xmlns="http://www.w3.org/2000/svg" xmlns:xlink="http://www.w3.org/1999/xlink" version="1.1" viewBox="-10 0 1044 1024">
  <g transform="matrix(1 0 0 -1 0 960)">
   <path fill="currentColor"
d="M960 -64h-320q-27 0 -45.5 18.5t-18.5 45.5v320q0 27 18.5 45.5t45.5 18.5h320q27 0 45.5 -18.5t18.5 -45.5v-320q0 -27 -18.5 -45.5t-45.5 -18.5zM960 320h-320v-320h320v320zM960 512h-320q-27 0 -45.5 18.5t-18.5 45.5v320q0 27 18.5 45.5t45.5 18.5h320
q27 0 45.5 -18.5t18.5 -45.5v-320q0 -27 -18.5 -45.5t-45.5 -18.5zM960 896h-320v-320h320v320zM384 -64h-320q-27 0 -45.5 18.5t-18.5 45.5v320q0 27 18.5 45.5t45.5 18.5h320q27 0 45.5 -18.5t18.5 -45.5v-320q0 -27 -18.5 -45.5t-45.5 -18.5zM384 320h-320v-320h320v320z
M384 512h-320q-27 0 -45.5 18.5t-18.5 45.5v320q0 27 18.5 45.5t45.5 18.5h320q27 0 45.5 -18.5t18.5 -45.5v-320q0 -27 -18.5 -45.5t-45.5 -18.5zM384 896h-320v-320h320v320z" />
  </g>

</svg>
