<?xml version="1.0" standalone="no"?>
<!DOCTYPE svg PUBLIC "-//W3C//DTD SVG 1.1//EN" "http://www.w3.org/Graphics/SVG/1.1/DTD/svg11.dtd" >
<svg xmlns="http://www.w3.org/2000/svg" xmlns:xlink="http://www.w3.org/1999/xlink" version="1.1" viewBox="-10 0 1034 1024">
  <g transform="matrix(1 0 0 -1 0 960)">
   <path fill="currentColor"
d="M497 61v1v0l-92 144q-5 8 -14 10.5t-18 -2.5l-8 -5q-8 -4 -8.5 -14t4.5 -18l59 -92q-4 1 -7.5 2t-7.5 2q-39 10 -74.5 28t-66 42.5t-55.5 55t-44 65.5q-34 67 -40.5 141.5t16.5 146.5t72.5 129t116.5 92q11 6 15 18t-2 24q-6 11 -18 15t-23 -2q-40 -20 -74 -47t-62 -60
t-49.5 -70.5t-34.5 -79.5q-14 -42 -18.5 -85t-1 -85.5t15.5 -84t32 -80.5q22 -42 51 -77.5t65 -64t77 -49.5t86 -32q1 -1 2 -1h2l-81 -42q-8 -4 -10.5 -13t2.5 -17l3 -8q5 -8 13 -10.5t16 1.5l149 77v0v0l10 5q4 3 7 6.5t4 7.5t0.5 8.5t-3.5 8.5l-6 9v0zM914 639
q-21 42 -50 77.5t-64 64t-76 49t-86 32.5q-6 2 -12.5 3.5t-13.5 2.5l80 40q8 5 12 14t-1 17l-3 8q-5 8 -14.5 10.5t-17.5 -1.5l-149 -77v0v0l-10 -5q-4 -3 -7 -6.5t-4 -7.5t-0.5 -8.5t3.5 -8.5l5 -10h1v0l92 -144q5 -8 14 -10.5t17 2.5l8 5q8 4 9 14t-4 18l-59 92
q9 -2 19 -3.5t19 -4.5q78 -20 139 -70t98 -121q35 -68 41 -142t-17 -146t-71 -129t-115 -92q-11 -6 -15 -18t2 -24q4 -8 11.5 -12.5t15.5 -4.5q4 0 7.5 1t7.5 3q39 20 72.5 47t61 59.5t48.5 70.5t34 80q14 42 18.5 85t1 85.5t-15.5 84t-32 80.5v0z" />
  </g>

</svg>
