<?xml version="1.0" standalone="no"?>
<!DOCTYPE svg PUBLIC "-//W3C//DTD SVG 1.1//EN" "http://www.w3.org/Graphics/SVG/1.1/DTD/svg11.dtd" >
<svg xmlns="http://www.w3.org/2000/svg" xmlns:xlink="http://www.w3.org/1999/xlink" version="1.1" viewBox="-10 0 1044 1024">
  <g transform="matrix(1 0 0 -1 0 960)">
   <path fill="currentColor"
d="M22 658l475 -259q4 -1 7.5 -2t7.5 -1t8 0.5t7 2.5l481 259q7 4 11.5 12t4.5 17t-4.5 16.5t-12.5 11.5l-475 241q-7 4 -14.5 4t-14.5 -4l-480 -241q-8 -4 -13 -11.5t-5 -16.5t4.5 -17t12.5 -12v0zM517 892l406 -207l-411 -221l-406 221l411 207v0zM1001 480l-95 48
l-68 -37l80 -41l-411 -221l-406 221l85 43l-68 37l-101 -50q-8 -4 -12.5 -11.5t-4.5 -16.5t4.5 -17t11.5 -12l475 -259q4 -2 8 -3t8 -1t7.5 1t7.5 3l480 259q8 4 12.5 12t4.5 17q0 8 -5 16t-13 12v0zM1001 256l-90 44l-68 -37l75 -37l-411 -221l-406 221l79 36l-68 37
l-95 -43q-8 -4 -12.5 -11.5t-4.5 -16.5t4.5 -17t11.5 -12l475 -259q4 -2 8 -3t8 -1t7.5 1t7.5 3l480 259q8 4 12.5 12t4.5 17q0 8 -5 16t-13 12z" />
  </g>

</svg>
