<?xml version="1.0" standalone="no"?>
<!DOCTYPE svg PUBLIC "-//W3C//DTD SVG 1.1//EN" "http://www.w3.org/Graphics/SVG/1.1/DTD/svg11.dtd" >
<svg xmlns="http://www.w3.org/2000/svg" xmlns:xlink="http://www.w3.org/1999/xlink" version="1.1" viewBox="-10 0 1034 1024">
  <g transform="matrix(1 0 0 -1 0 960)">
   <path fill="currentColor"
d="M702 796q-12 5 -24.5 0.5t-18.5 -16.5t-1.5 -24t16.5 -18q61 -29 107.5 -74.5t74.5 -102t37 -121t-4 -130.5q-16 -78 -60 -141t-106 -104t-137 -56.5t-154 0.5q-76 16 -137 58.5t-104 107.5q-42 65 -56.5 140t0.5 151q9 45 28 85.5t46.5 75.5t62.5 63t77 48 q12 5 16.5 17.5t-1.5 24.5q-5 12 -17.5 16.5t-24.5 -1.5q-49 -23 -90 -55.5t-73 -73t-54 -88t-32 -99.5q-10 -45 -10 -89t8 -87t25 -84.5t42 -78.5q25 -38 55.5 -69.5t66 -56t75.5 -42t84 -26.5q23 -4 46 -6.5t45 -2.5q79 0 151.5 26.5t131.5 74t100.5 113.5t57.5 146 q16 77 5.5 152t-43.5 141t-86.5 119.5t-124.5 86.5zM512 544q13 0 22.5 9.5t9.5 22.5v352q0 13 -9.5 22.5t-22.5 9.5t-22.5 -9.5t-9.5 -22.5v-352q0 -13 9.5 -22.5t22.5 -9.5z" />
  </g>
</svg>
