<?xml version="1.0" standalone="no"?>
<!DOCTYPE svg PUBLIC "-//W3C//DTD SVG 1.1//EN" "http://www.w3.org/Graphics/SVG/1.1/DTD/svg11.dtd" >
<svg xmlns="http://www.w3.org/2000/svg" xmlns:xlink="http://www.w3.org/1999/xlink" version="1.1" viewBox="-11 0 1047 1024">
  <g transform="matrix(1 0 0 -1 0 960)">
   <path fill="currentColor"
d="M173 -48q-33 0 -63.5 13.5t-55.5 38.5q-55 55 -55 133.5t55 133.5l575 610q33 34 74.5 49.5t85 13t86.5 -23t81 -57.5q33 -34 51.5 -80.5t17.5 -97.5t-20 -97t-52 -80l-435 -462q-9 -10 -22 -10.5t-23 8.5q-9 9 -9.5 22.5t8.5 23.5l435 462q25 26 39 61t15 73
q0 38 -13 72.5t-38 58.5q-46 47 -113 61.5t-122 -41.5l-575 -610q-37 -37 -37 -89t37 -89q17 -17 37 -25.5t42 -6.5q21 1 42.5 11.5t39.5 29.5l457 486q13 13 27.5 39.5t-11.5 51.5q-14 15 -24 16.5t-13 1.5q-9 -1 -20 -7.5t-23 -17.5l-344 -366q-9 -10 -22 -10t-23 9
t-10 22t9 23l344 367q21 20 41.5 31t41.5 13q17 1 40 -5t48 -31q38 -37 33.5 -87t-48.5 -94l-457 -487q-27 -27 -59 -42.5t-66 -17.5q-2 0 -4.5 -0.5t-4.5 -0.5v0z" />
  </g>

</svg>
