<?xml version="1.0" standalone="no"?>
<!DOCTYPE svg PUBLIC "-//W3C//DTD SVG 1.1//EN" "http://www.w3.org/Graphics/SVG/1.1/DTD/svg11.dtd" >
<svg xmlns="http://www.w3.org/2000/svg" xmlns:xlink="http://www.w3.org/1999/xlink" version="1.1" viewBox="-10 0 1034 1024">
  <g transform="matrix(1 0 0 -1 0 960)">
   <path fill="currentColor"
d="M899 322h-13h-14q-1 0 -3 0.5t-3 1.5q-43 6 -73.5 38t-32.5 74q-4 47 20.5 83t68.5 49q5 2 11 3.5t12 2.5h14h13q2 0 3 -0.5l3 -1.5q39 -6 67.5 -32.5t36.5 -65.5q1 -3 1.5 -6t1.5 -6v-14v-13q0 -2 -0.5 -3l-1.5 -3q-6 -39 -32 -66.5t-64 -36.5q-4 -1 -7.5 -2t-7.5 -2z
M131 574h13h14q1 0 3 -0.5t3 -1.5q43 -6 73.5 -38.5t32.5 -74.5q3 -46 -21.5 -82.5t-68.5 -49.5q-5 -1 -11 -2.5t-11 -2.5h-14h-13q-2 0 -3 0.5l-3 1.5q-39 7 -64.5 29.5t-37.5 60.5q-1 5 -2.5 10t-2.5 10v14v14q0 1 1 2.5t1 2.5q6 39 32 67t65 37q3 0 6.5 1t7.5 2v0z
M501 574h14h14q1 0 2.5 -0.5t3.5 -1.5q43 -7 73.5 -39.5t32.5 -74.5q2 -48 -24 -84.5t-70 -47.5q-4 -1 -9 -2t-9 -2h-14h-14q-1 0 -2.5 1t-3.5 1q-43 6 -73.5 39t-32.5 75q-2 48 24 84.5t70 47.5q4 1 9 2t9 2v0z" />
  </g>

</svg>
