<?xml version="1.0" standalone="no"?>
<!DOCTYPE svg PUBLIC "-//W3C//DTD SVG 1.1//EN" "http://www.w3.org/Graphics/SVG/1.1/DTD/svg11.dtd" >
<svg xmlns="http://www.w3.org/2000/svg" xmlns:xlink="http://www.w3.org/1999/xlink" version="1.1" viewBox="-12 0 1047 1024">
  <g transform="matrix(1 0 0 -1 0 960)">
   <path fill="currentColor"
d="M415 960q219 0 261 -9.5t69 -29.5q14 -11 51 -19t135 -14q8 -1 14.5 -3.5t10.5 -8.5q2 -3 35.5 -70.5t33.5 -182.5q0 -114 -24 -167.5t-25 -56.5q-5 -7 -12 -11t-16 -4q-40 0 -87 -25t-94.5 -73.5t-93 -119t-83.5 -161.5q-13 -31 -25 -50t-60 -19q-28 0 -55.5 17.5
t-42.5 42.5t-20 63t-3 79.5t8.5 81.5t13.5 69q-49 0 -124 -0.5t-118 -0.5q-59 0 -95.5 32t-37.5 84q0 17 2 36t7 31q-13 13 -26.5 32.5t-14.5 44.5q-1 33 15.5 57t30.5 39q-3 9 -8 21.5t-4 27.5q2 37 24 61t40 37q-2 10 -2.5 27t3.5 32q6 29 30.5 50t65 34t96.5 19.5
t125 6.5v0zM914 823q-86 7 -135 17.5t-73 28.5q-19 15 -53.5 21t-237.5 6q-30 0 -72 -1.5t-81 -7.5t-68 -18t-34 -33q-3 -17 8 -31l11 -14q5 -12 0 -24.5t-16 -17.5q-1 0 -33 -16t-33 -43q-1 -17 7 -26.5t8 -10.5q7 -10 4.5 -23t-12.5 -21l-20.5 -17t-20.5 -42q1 -21 19 -34
t19 -13q6 -4 10 -9.5t6 -12.5q1 -6 -0.5 -13t-5.5 -13l-8 -15.5t-8 -34.5q1 -39 30.5 -46t38.5 -7h79h95.5t80 0.5l33.5 0.5q9 0 16 -4t11 -11q5 -6 5.5 -14t-2.5 -16q-12 -34 -20.5 -75t-12 -80.5t-1 -72.5t13.5 -51q7 -11 13 -20t30 -9q3 0 10 5t16 25q40 96 88.5 171.5
t101 128t105.5 82.5t102 35q9 19 21 61t12 115q0 74 -17.5 127.5t-29.5 72.5z" />
  </g>

</svg>
