<?xml version="1.0" standalone="no"?>
<!DOCTYPE svg PUBLIC "-//W3C//DTD SVG 1.1//EN" "http://www.w3.org/Graphics/SVG/1.1/DTD/svg11.dtd" >
<svg xmlns="http://www.w3.org/2000/svg" xmlns:xlink="http://www.w3.org/1999/xlink" version="1.1" viewBox="-11 0 1046 1024">
  <g transform="matrix(1 0 0 -1 0 960)">
   <path fill="currentColor"
d="M515 639q-79 0 -135.5 -56.5t-56.5 -135.5q0 -80 56.5 -136t135.5 -56q80 0 136 56t56 136q0 79 -56 135.5t-136 56.5zM515 319q-52 0 -90.5 38t-38.5 91t37.5 90.5t90.5 37.5t90.5 -37.5t37.5 -90.5t-37 -91t-90 -38v0zM1024 455q-1 2 -1 3v2t-0.5 1.5l-0.5 0.5v1.5
t-1 1.5q-34 80 -88 142.5t-120 105.5t-142.5 65.5t-156.5 22.5t-157 -22.5t-144 -65.5t-121.5 -105.5t-89.5 -142.5v-1.5v-1.5l-0.5 -0.5l-0.5 -0.5v-3t-1 -2q0 -2 -0.5 -4.5t-0.5 -4.5t0.5 -4t0.5 -4q1 -2 1 -3v-2t0.5 -1.5l0.5 -0.5v-1.5v-1.5q35 -80 89 -142t121 -104.5
t143.5 -65t156.5 -22.5t156.5 22.5t143.5 65t121 104.5t88 142q1 1 1 1.5v1.5l0.5 0.5l0.5 0.5v3t1 2q0 2 0.5 4.5t0.5 4.5t-0.5 4t-0.5 4v0zM512 159q-68 0 -134 18t-124.5 54t-107.5 90t-81 126q32 72 81 126t108 90.5t125.5 55t134.5 18.5t134 -18.5t124.5 -55
t106.5 -90.5t80 -126q-32 -72 -80.5 -126t-107 -90t-125 -54t-134.5 -18z" />
  </g>

</svg>
