<?xml version="1.0" standalone="no"?>
<!DOCTYPE svg PUBLIC "-//W3C//DTD SVG 1.1//EN" "http://www.w3.org/Graphics/SVG/1.1/DTD/svg11.dtd" >
<svg xmlns="http://www.w3.org/2000/svg" xmlns:xlink="http://www.w3.org/1999/xlink" version="1.1" viewBox="-12 0 1048 1024">
  <g transform="matrix(1 0 0 -1 0 960)">
   <path fill="currentColor"
d="M210 77q-15 -32 -38 -51.5t-107 -22.5q2 81 18 103t47 37q13 7 29 15.5t33 21.5l-39 50q-14 -11 -26.5 -17.5t-25.5 -12.5q-51 -25 -76 -66.5t-25 -161.5l1 -33l31 1q128 0 169 27.5t65 76.5q5 11 9 20t13 24l-47 43q-11 -15 -18 -28.5t-13 -25.5v0zM705 771
q-53 0 -90.5 -37.5t-37.5 -90.5t37.5 -90.5t90.5 -37.5t90.5 37.5t37.5 90.5t-37.5 90.5t-90.5 37.5v0zM705 579q-27 0 -45.5 19t-18.5 45t18.5 45t45.5 19q26 0 45 -19t19 -45t-19 -45t-45 -19zM1024 931q-1 12 -9.5 20.5t-20.5 9.5l-30.5 1t-80.5 -2.5t-113 -15
t-127 -35.5q-47 -17 -87 -45.5t-76 -71.5q-31 -35 -60.5 -92t-55.5 -110q-10 -21 -20 -40t-18 -34h-178q-7 0 -13 -2.5t-11 -7.5l-117 -128q-6 -6 -7.5 -14t0.5 -17q3 -8 9 -13.5t15 -7.5l191 -44q9 -12 26 -30.5t43 -47.5l72 -80l39 -165q2 -8 8 -14.5t14 -8.5
q2 -1 4.5 -1.5t4.5 -0.5q6 0 11.5 2t9.5 6l119 118q5 4 8 10.5t3 13.5v165q12 8 31.5 18.5t39.5 21.5q54 31 123 66t102 65q48 42 70 77.5t39 80.5q20 54 29 115t12 112.5t2 87t-1 38.5v0zM922 601q-15 -40 -33 -68.5t-58 -64.5q-30 -26 -97.5 -60.5t-116.5 -62.5
q-37 -20 -60 -33t-32 -21q-6 -5 -9 -11.5t-3 -13.5v-167l-68 -74l-28 121q-1 4 -3 7.5t-5 6.5q-44 49 -96.5 107.5t-57.5 64.5q-4 4 -8.5 7t-9.5 4l-146 33l72 76h182q8 0 15 4.5t12 11.5q10 17 22.5 41t26.5 52q24 48 52.5 103.5t54.5 86.5q31 36 64 60t73 38
q44 17 88 26.5t83.5 14.5t71.5 6.5t53 1.5q0 -22 -0.5 -57t-4.5 -76t-12 -83.5t-22 -80.5z" />
  </g>

</svg>
