<?xml version="1.0" standalone="no"?>
<!DOCTYPE svg PUBLIC "-//W3C//DTD SVG 1.1//EN" "http://www.w3.org/Graphics/SVG/1.1/DTD/svg11.dtd" >
<svg xmlns="http://www.w3.org/2000/svg" xmlns:xlink="http://www.w3.org/1999/xlink" version="1.1" viewBox="-10 0 1034 1024">
  <g transform="matrix(1 0 0 -1 0 960)">
   <path fill="currentColor"
d="M528 896v-224h224v-96h-223v-278q0 -39 2 -64t6 -36q6 -17 30 -35t67 -18q34 0 75 11t75 36v-149q-28 -13 -54 -20t-49 -12q-23 -6 -48 -8.5t-51 -2.5q-30 0 -98 15.5t-103 104.5q-6 16 -9 39.5t-3 54.5v362h-129v98q32 0 101.5 37.5t69.5 184.5h117v0zM528 960h-117
q-26 0 -45 -18.5t-19 -45.5q0 -110 -44 -134t-63 -24q-26 0 -44.5 -18.5t-19.5 -44.5v-98q0 -13 4.5 -25t13.5 -21t21 -14t25 -5h65v-298q0 -37 4 -66t13 -51q21 -55 79.5 -108t180.5 -53q30 0 58.5 3t55.5 9l7 2q22 5 50 13t59 22q16 8 26 24t10 34v149q0 19 -9.5 34
t-25.5 24q-7 3 -14 4.5t-15 1.5q-10 0 -20 -3t-18 -9q-29 -22 -61 -28.5t-51 -6.5t-27.5 5t-9.5 7q-1 4 -2.5 20.5t-1.5 56.5v214h159q27 0 45.5 19t18.5 45v96q0 27 -18.5 45.5t-45.5 18.5h-160v160q0 27 -18.5 45.5t-45.5 18.5v0v0z" />
  </g>

</svg>
