<?xml version="1.0" standalone="no"?>
<!DOCTYPE svg PUBLIC "-//W3C//DTD SVG 1.1//EN" "http://www.w3.org/Graphics/SVG/1.1/DTD/svg11.dtd" >
<svg xmlns="http://www.w3.org/2000/svg" xmlns:xlink="http://www.w3.org/1999/xlink" version="1.1" viewBox="-10 0 1034 1024">
  <g transform="matrix(1 0 0 -1 0 960)">
   <path fill="currentColor"
d="M930 546q0 63 -16.5 122.5t-47 112.5t-75 97t-99.5 77q-12 7 -25 3.5t-19 -14.5q-7 -12 -3.5 -24.5t14.5 -19.5q49 -29 87 -67t64.5 -84t41 -97.5t14.5 -105.5q0 -91 -31.5 -168t-87 -132.5t-132.5 -87t-168 -31.5q-40 0 -79.5 7.5t-76.5 22.5q-12 5 -24.5 0t-17.5 -17
t0.5 -24.5t17.5 -17.5q43 -17 88 -26t92 -9h0.5h0.5v-63h-93q-14 0 -24 -9t-10 -23q0 -13 10 -22.5t24 -9.5h253q14 0 23.5 9.5t9.5 22.5q0 14 -9.5 23t-23.5 9h-97v67q92 11 169 51t132.5 102.5t86.5 145.5t31 180v0zM799 543q0 73 -27.5 137t-75.5 112t-112 76t-137 28
t-137 -28t-112 -76t-75.5 -112t-27.5 -137t27.5 -137t75.5 -112t112 -75.5t137 -27.5t137 27.5t112 75.5t75.5 112t27.5 137zM158 543q0 59 23 112t62 92t91.5 62t112.5 23t112.5 -23t91.5 -62t61.5 -92t22.5 -112q0 -60 -22.5 -112.5t-61.5 -91.5t-91.5 -61.5t-112.5 -22.5
t-112.5 22.5t-91.5 61.5t-62 91.5t-23 112.5v0z" />
  </g>

</svg>
