<?xml version="1.0" standalone="no"?>
<!DOCTYPE svg PUBLIC "-//W3C//DTD SVG 1.1//EN" "http://www.w3.org/Graphics/SVG/1.1/DTD/svg11.dtd" >
<svg xmlns="http://www.w3.org/2000/svg" xmlns:xlink="http://www.w3.org/1999/xlink" version="1.1" viewBox="-11 0 1046 1024">
  <g transform="matrix(1 0 0 -1 0 960)">
   <path fill="currentColor"
d="M941 770q-11 8 -33.5 16t-70 15t-126 11.5t-199.5 4.5q-261 0 -332 -16.5t-83 -24.5q-33 -19 -52.5 -67.5t-29.5 -101.5t-12.5 -100t-3.5 -65q1 -23 4 -69.5t13 -96t29 -93.5t51 -64q13 -7 84 -23.5t332 -16.5q121 0 199.5 4.5t126 11.5t70 15t33.5 15q28 21 44.5 62
t25 88t11 93t3.5 75q-1 23 -3 69.5t-10.5 97t-25 95t-45.5 65.5v0zM903 177q-8 -6 -81 -20t-310 -14q-230 0 -301.5 13t-81.5 18q-23 14 -43.5 84.5t-22.5 183.5q2 113 23 189.5t44 90.5q9 5 81 18t301 13q237 0 310 -14.5t81 -20.5q21 -14 39 -87.5t19 -187.5
q-1 -116 -19 -183.5t-39 -82.5v0zM720 473l-288 177q-7 4 -15.5 4.5t-16.5 -4.5q-7 -4 -11.5 -11.5t-4.5 -16.5v-353q0 -9 4.5 -16.5t11.5 -11.5q4 -2 8 -3t8 -1t8.5 1t7.5 4l288 176q8 5 12 12t4 16q0 8 -4 15.5t-12 11.5v0zM448 326v240l194 -120z" />
  </g>

</svg>
