<?xml version="1.0" standalone="no"?>
<!DOCTYPE svg PUBLIC "-//W3C//DTD SVG 1.1//EN" "http://www.w3.org/Graphics/SVG/1.1/DTD/svg11.dtd" >
<svg xmlns="http://www.w3.org/2000/svg" xmlns:xlink="http://www.w3.org/1999/xlink" version="1.1" viewBox="-10 0 1044 1024">
  <g transform="matrix(1 0 0 -1 0 960)">
   <path fill="currentColor"
d="M512 960q-106 0 -199.5 -40t-163 -109.5t-109.5 -163t-40 -199.5t40 -199.5t109.5 -163t163 -109.5t199.5 -40t199.5 40t163 109.5t109.5 163t40 199.5t-40 199.5t-109.5 163t-163 109.5t-199.5 40zM960 448q0 -50 -10.5 -96.5t-30.5 -89.5l-283 152q2 8 3.5 16.5
t1.5 17.5q0 53 -38 91t-91 38q-11 0 -21.5 -2t-20.5 -5l-169 273q47 25 100.5 39t110.5 14q93 0 174.5 -35.5t142 -96t96 -142t35.5 -174.5zM512 513q27 0 46 -19t19 -46t-19 -46t-46 -19t-46 19t-19 46t19 46t46 19v0zM247 809l170 -274l-1.5 -1.5l-1.5 -1.5l-283 152
q23 36 52 67.5t64 57.5v0zM64 448q0 48 9.5 93t28.5 86l284 -152q-2 -7 -2.5 -13.5t-0.5 -13.5q0 -53 38 -91t91 -38q9 0 18 1.5t18 3.5l170 -274q-46 -24 -98 -37t-108 -13q-93 0 -174.5 35.5t-142 96t-96 142t-35.5 174.5v0zM772 84l-169 273l0.5 0.5l0.5 0.5l285 -152
q-23 -36 -52.5 -66.5t-64.5 -55.5v0z" />
  </g>

</svg>
