<?xml version="1.0" standalone="no"?>
<!DOCTYPE svg PUBLIC "-//W3C//DTD SVG 1.1//EN" "http://www.w3.org/Graphics/SVG/1.1/DTD/svg11.dtd" >
<svg xmlns="http://www.w3.org/2000/svg" xmlns:xlink="http://www.w3.org/1999/xlink" version="1.1" viewBox="-10 0 1044 1024">
  <g transform="matrix(1 0 0 -1 0 960)">
   <path fill="currentColor"
d="M160 572v356q0 13 -9.5 22.5t-22.5 9.5t-22.5 -9.5t-9.5 -22.5v-356q-41 -11 -68.5 -45t-27.5 -79t27.5 -79t68.5 -45v-356q0 -13 9.5 -22.5t22.5 -9.5t22.5 9.5t9.5 22.5v356q42 11 69 45t27 79t-27 79t-69 45v0zM128 384v0v0v0v0q-27 0 -45.5 19t-18.5 45t18.5 45
t45.5 19v0v0v0v0q27 0 45.5 -19t18.5 -45t-18.5 -45t-45.5 -19zM544 380v548q0 13 -9.5 22.5t-22.5 9.5t-22.5 -9.5t-9.5 -22.5v-548q-41 -11 -68.5 -45t-27.5 -79t27.5 -79t68.5 -45v-164q0 -13 9.5 -22.5t22.5 -9.5t22.5 9.5t9.5 22.5v164q42 11 69 45t27 79t-27 79
t-69 45zM512 192v0v0v0v0q-27 0 -45.5 19t-18.5 45t18.5 45t45.5 19v0v0v0v0q27 0 45.5 -19t18.5 -45t-18.5 -45t-45.5 -19v0zM928 764v164q0 13 -9.5 22.5t-22.5 9.5t-22.5 -9.5t-9.5 -22.5v-164q-41 -11 -68.5 -45t-27.5 -79t27.5 -79t68.5 -45v-548q0 -13 9.5 -22.5
t22.5 -9.5t22.5 9.5t9.5 22.5v548q42 11 69 45t27 79t-27 79t-69 45v0zM896 576v0v0v0v0q-27 0 -45.5 19t-18.5 45t18.5 45t45.5 19v0v0v0v0q27 0 45.5 -19t18.5 -45t-18.5 -45t-45.5 -19z" />
  </g>

</svg>
