<?xml version="1.0" standalone="no"?>
<!DOCTYPE svg PUBLIC "-//W3C//DTD SVG 1.1//EN" "http://www.w3.org/Graphics/SVG/1.1/DTD/svg11.dtd" >
<svg xmlns="http://www.w3.org/2000/svg" xmlns:xlink="http://www.w3.org/1999/xlink" version="1.1" viewBox="-10 0 1044 1024">
  <g transform="matrix(1 0 0 -1 0 960)">
   <path fill="currentColor"
d="M1023 735q0 8 -4 14.5t-11 10.5l-285 178q-8 6 -18.5 5t-18.5 -7l-174 -141l-174 141q-8 6 -18.5 7t-18.5 -5l-285 -178q-7 -4 -11 -10.5t-4 -14.5q-1 -7 2 -14.5t9 -12.5l165 -138l-141 -112q-7 -4 -10 -11t-3 -15q1 -8 4.5 -14.5t10.5 -10.5l131 -88q-5 -4 -8 -10
t-3 -13v-129q0 -8 4 -15t11 -12l322 -182q4 -3 8.5 -4t8.5 -1t8.5 1t8.5 4l318 182q7 5 11 12t4 15v151v3.5v2.5l124 83q6 4 10 10.5t4 14.5t-3 15t-9 11l-141 112l165 138q6 5 9 12.5t2 14.5v0zM737 569l-225 -140l-225 140l225 147l225 -147v0zM87 729l228 143l143 -115
l-228 -148l-143 120v0zM230 530l226 -142l-128 -98l-218 145l120 95v0zM222 284l89 -60q9 -5 19 -5t19 6l129 99v-282l-256 143v99v0zM798 185l-256 -145v287l133 -102q4 -3 9 -4.5t10 -1.5t9.5 1.5t8.5 3.5l86 58v-97v0zM913 436l-218 -146l-127 98l226 142l119 -94v0z
M794 609l-228 148l143 115l228 -143z" />
  </g>

</svg>
