<?xml version="1.0" standalone="no"?>
<!DOCTYPE svg PUBLIC "-//W3C//DTD SVG 1.1//EN" "http://www.w3.org/Graphics/SVG/1.1/DTD/svg11.dtd" >
<svg xmlns="http://www.w3.org/2000/svg" xmlns:xlink="http://www.w3.org/1999/xlink" version="1.1" viewBox="-11 0 1046 1024">
  <g transform="matrix(1 0 0 -1 0 960)">
   <path fill="currentColor"
d="M799 0h-736v800h450l65 62l-2 2h-513q-26 0 -45 -19t-19 -45v-800q0 -27 19 -45.5t45 -18.5h736q27 0 45.5 18.5t18.5 45.5v468l-64 -61v-407zM974 919q-21 20 -45 30.5t-50 10.5q-39 0 -66.5 -18.5t-35.5 -26.5q-6 -5 -75 -74.5t-150 -150t-147.5 -147l-66.5 -66.5
q-3 -3 -4.5 -6t-2.5 -6q-5 -16 -16 -54t-23 -77.5t-21.5 -70t-9.5 -31.5q-2 -7 0 -14.5t7 -12.5q4 -4 9 -6t10 -2q2 0 4 0.5t4 0.5q1 0 32 10.5t71 23t77 24.5t49 15q3 1 5.5 3t5.5 4q7 7 72.5 72t143.5 141.5t146 143.5t79 79q25 26 37 52t12 52q-1 27 -13.5 52t-37.5 49v0
zM930 759q-6 -7 -35.5 -36t-81.5 -80.5t-126.5 -125t-170.5 -168.5l-20 -19q-22 -7 -67.5 -21.5t-85.5 -27.5q13 42 26.5 87.5t20.5 70.5q20 20 88.5 88t143 142.5l135 135l65.5 65.5q2 2 18.5 14t38.5 12q13 0 25.5 -6t25.5 -18q15 -14 22.5 -28t8.5 -27q0 -13 -7.5 -27.5
t-23.5 -30.5v0z" />
  </g>

</svg>
