<?xml version="1.0" standalone="no"?>
<!DOCTYPE svg PUBLIC "-//W3C//DTD SVG 1.1//EN" "http://www.w3.org/Graphics/SVG/1.1/DTD/svg11.dtd" >
<svg xmlns="http://www.w3.org/2000/svg" xmlns:xlink="http://www.w3.org/1999/xlink" version="1.1" viewBox="-10 0 1044 1024">
  <g transform="matrix(1 0 0 -1 0 960)">
   <path fill="currentColor"
d="M512 -64q-15 0 -29 5.5t-25 16.5l-436 437q-22 22 -22 53.5t22 53.5l160 160q7 7 17.5 9t19.5 -3t14 -14.5t3 -19.5q-2 -7 -2.5 -12.5t-0.5 -10.5q0 -53 37.5 -91t89.5 -38q53 0 87.5 38t34.5 91q0 52 -34.5 89.5t-87.5 37.5q-5 0 -10.5 -0.5t-12.5 -2.5q-10 -2 -19.5 3
t-14.5 14q-4 9 -2.5 19.5t8.5 17.5l149 150q22 21 54 21t54 -21l109 -110q17 54 63 88.5t104 34.5q73 0 124.5 -52t51.5 -124q0 -59 -34.5 -105t-87.5 -63l106 -106q22 -22 22 -53.5t-22 -53.5l-436 -437q-11 -11 -25 -16.5t-29 -5.5v0zM175 565l-108 -108q-4 -4 -3.5 -9
t3.5 -8l436 -437q5 -4 9 -4t9 4l436 437q3 3 3 8t-3 9l-154 154q-7 7 -9 17t3 19q4 9 13 14t19 4h5q2 -1 4 -1h4q47 0 79.5 32.5t32.5 79.5q0 46 -32.5 79t-79.5 33q-46 0 -79 -33t-33 -79q0 -2 0.5 -4t0.5 -4l1 -6q1 -10 -4 -19t-14 -13t-19 -2.5t-17 8.5l-157 157
q-5 5 -9 5t-9 -5l-97 -97q63 -15 101.5 -66.5t38.5 -118.5q0 -79 -53.5 -136t-132.5 -57q-67 0 -118.5 42t-66.5 105v0z" />
  </g>

</svg>
