<?xml version="1.0" standalone="no"?>
<!DOCTYPE svg PUBLIC "-//W3C//DTD SVG 1.1//EN" "http://www.w3.org/Graphics/SVG/1.1/DTD/svg11.dtd" >
<svg xmlns="http://www.w3.org/2000/svg" xmlns:xlink="http://www.w3.org/1999/xlink" version="1.1" viewBox="-10 0 1044 1024">
  <g transform="matrix(1 0 0 -1 0 960)">
   <path fill="currentColor"
d="M1024 387q0 16 -2 61.5t-4 62.5q-11 97 -54 180t-110 142.5t-154 93.5t-185 34q-103 0 -193 -37.5t-158.5 -103t-110.5 -155.5t-48 -194q0 -5 -1.5 -30.5t-1.5 -44.5v-15q-1 -4 -1.5 -8.5t-0.5 -9.5v-215q0 -35 25 -60t60 -25h86q36 0 60.5 25t24.5 60v215q0 35 -24.5 60
t-60.5 25h-86q-4 0 -8.5 -0.5t-8.5 -1.5q0 8 0.5 13.5t0.5 7.5q5 92 41.5 170.5t96.5 136t139 90.5t169 33q86 0 162 -29.5t134.5 -82t96 -124.5t46.5 -157q1 -8 2 -24t2 -34q-5 1 -9.5 1.5t-9.5 0.5h-85q-36 0 -60.5 -25t-24.5 -60v-214q0 -24 12.5 -43.5t32.5 -30.5
l-206 -81v5q0 14 -9.5 23t-22.5 9h-96q-13 0 -22.5 -9t-9.5 -23v-32q0 -13 9.5 -22.5t22.5 -9.5h96h0.5h0.5l57 1l330 129q3 1 6 3t5 5q22 10 35.5 30.5t13.5 45.5v214q0 4 -0.5 8t-1.5 7q1 2 1.5 4.5t0.5 4.5v0zM85 384h86q9 0 15 -6t6 -15v-215q0 -8 -6 -14.5t-15 -6.5
h-86q-9 0 -15 6.5t-6 14.5v215q0 9 6 15t15 6v0zM833 363q0 9 6 15t15 6h85q9 0 15 -6t6 -15v-214q0 -8 -6 -14.5t-15 -6.5h-85q-9 0 -15 6.5t-6 14.5v214z" />
  </g>

</svg>
