<?xml version="1.0" standalone="no"?>
<!DOCTYPE svg PUBLIC "-//W3C//DTD SVG 1.1//EN" "http://www.w3.org/Graphics/SVG/1.1/DTD/svg11.dtd" >
<svg xmlns="http://www.w3.org/2000/svg" xmlns:xlink="http://www.w3.org/1999/xlink" version="1.1" viewBox="-10 0 1044 1024">
  <g transform="matrix(1 0 0 -1 0 960)">
   <path fill="currentColor"
d="M800 688h64q13 0 22.5 9t9.5 23v32q0 13 -9.5 22.5t-22.5 9.5h-64q-13 0 -22.5 -9.5t-9.5 -22.5v-32q0 -14 9.5 -23t22.5 -9zM800 496h64q13 0 22.5 9t9.5 23v32q0 13 -9.5 22.5t-22.5 9.5h-64q-13 0 -22.5 -9.5t-9.5 -22.5v-32q0 -14 9.5 -23t22.5 -9zM800 304h64
q13 0 22.5 9t9.5 23v32q0 13 -9.5 22.5t-22.5 9.5h-64q-13 0 -22.5 -9.5t-9.5 -22.5v-32q0 -14 9.5 -23t22.5 -9zM800 112h64q13 0 22.5 9t9.5 23v32q0 13 -9.5 22.5t-22.5 9.5h-64q-13 0 -22.5 -9.5t-9.5 -22.5v-32q0 -14 9.5 -23t22.5 -9zM160 688h64q13 0 22.5 9t9.5 23
v32q0 13 -9.5 22.5t-22.5 9.5h-64q-13 0 -22.5 -9.5t-9.5 -22.5v-32q0 -14 9.5 -23t22.5 -9zM160 496h64q13 0 22.5 9t9.5 23v32q0 13 -9.5 22.5t-22.5 9.5h-64q-13 0 -22.5 -9.5t-9.5 -22.5v-32q0 -14 9.5 -23t22.5 -9zM160 304h64q13 0 22.5 9t9.5 23v32q0 13 -9.5 22.5
t-22.5 9.5h-64q-13 0 -22.5 -9.5t-9.5 -22.5v-32q0 -14 9.5 -23t22.5 -9zM160 112h64q13 0 22.5 9t9.5 23v32q0 13 -9.5 22.5t-22.5 9.5h-64q-13 0 -22.5 -9.5t-9.5 -22.5v-32q0 -14 9.5 -23t22.5 -9zM960 944h-896q-26 0 -45 -19t-19 -45v-864q0 -26 19 -45t45 -19h896
q26 0 45 19t19 45v864q0 26 -19 45t-45 19zM960 16h-896v864h896v-864z" />
  </g>

</svg>
