<?xml version="1.0" standalone="no"?>
<!DOCTYPE svg PUBLIC "-//W3C//DTD SVG 1.1//EN" "http://www.w3.org/Graphics/SVG/1.1/DTD/svg11.dtd" >
<svg xmlns="http://www.w3.org/2000/svg" xmlns:xlink="http://www.w3.org/1999/xlink" version="1.1" viewBox="-10 0 1044 1024">
  <g transform="matrix(1 0 0 -1 0 960)">
   <path fill="currentColor"
d="M224 848h-192q-13 0 -22.5 -9.5t-9.5 -22.5v-192q0 -13 9.5 -22.5t22.5 -9.5t22.5 9.5t9.5 22.5v160h160q13 0 22.5 9.5t9.5 22.5t-9.5 22.5t-22.5 9.5zM992 304q-13 0 -22.5 -9.5t-9.5 -22.5v-160h-160q-13 0 -22.5 -9.5t-9.5 -22.5t9.5 -22.5t22.5 -9.5h192
q13 0 22.5 9.5t9.5 22.5v192q0 13 -9.5 22.5t-22.5 9.5zM224 112h-160v160q0 13 -9.5 22.5t-22.5 9.5t-22.5 -9.5t-9.5 -22.5v-192q0 -13 9.5 -22.5t22.5 -9.5h192q13 0 22.5 9.5t9.5 22.5t-9.5 22.5t-22.5 9.5zM992 848h-192q-13 0 -22.5 -9.5t-9.5 -22.5t9.5 -22.5
t22.5 -9.5h160v-160q0 -13 9.5 -22.5t22.5 -9.5t22.5 9.5t9.5 22.5v192q0 13 -9.5 22.5t-22.5 9.5z" />
  </g>

</svg>
