<?xml version="1.0" encoding="UTF-8" standalone="no"?>
<svg width="609px" height="146px" viewBox="0 0 609 146" version="1.1" xmlns="http://www.w3.org/2000/svg" xmlns:xlink="http://www.w3.org/1999/xlink" xmlns:sketch="http://www.bohemiancoding.com/sketch/ns">
    <!-- Generator: Sketch 3.3.3 (12072) - http://www.bohemiancoding.com/sketch -->
    <title>Rectangle 1 + ac_logo_blue</title>
    <desc>Created with Sketch.</desc>
    <defs></defs>
    <g id="Page-1" stroke="none" stroke-width="1" fill="none" fill-rule="evenodd" sketch:type="MSPage">
        <g id="Rectangle-1-+-ac_logo_blue" sketch:type="MSLayerGroup">
            <rect id="Rectangle-1" fill="#3A73B9" sketch:type="MSShapeGroup" x="0" y="0" width="609" height="146"></rect>
            <g id="ac_logo_blue" transform="translate(47.000000, 48.000000)" sketch:type="MSShapeGroup">
                <g id="Page-1">
                    <g id="ac_logo">
                        <g id="Group" transform="translate(181.000000, 0.000000)" fill="#ACCBEA">
                            <path d="M204.647,5.797 C203.413,5.797 202.724,5.324 202.724,4.089 L202.724,0.77 L205.961,0.77 C207.032,0.77 207.929,1.179 207.929,2.578 L207.929,5.797 L204.647,5.797 L204.647,5.797 L204.647,5.797 Z M204.899,42.599 C203.785,42.599 203.018,41.888 203.018,40.655 L203.018,12.02 L205.592,12.02 C206.826,12.02 207.573,12.559 207.573,13.918 L207.573,42.599 L204.899,42.599 L204.899,42.599 Z" id="Shape"></path>
                            <path d="M21.031,43.309 C9.084,43.309 0.271,33.904 0.271,21.956 C0.271,10.127 9.024,0.486 21.209,0.486 C28.719,0.486 33.215,3.148 37.355,7.05 C37.355,7.05 36.484,8.029 35.548,8.989 C34.613,9.949 33.421,9.784 32.623,9.112 C29.534,6.511 25.958,4.802 21.148,4.802 C11.98,4.802 5.12,12.195 5.12,21.837 C5.12,31.479 12.04,38.988 21.148,38.988 C26.013,38.988 29.43,37.366 32.819,34.543 C33.729,33.785 35.088,33.596 36.157,34.625 C37.225,35.655 37.591,36.032 37.591,36.032 C33.274,40.409 28.542,43.309 21.031,43.309 L21.031,43.309 L21.031,43.309 Z" id="Shape"></path>
                            <path d="M112.272,11.369 C119.311,11.369 123.63,16.1 123.63,23.672 L123.63,42.599 L121.205,42.599 C119.394,42.599 119.075,41.601 119.075,40.327 L119.075,24.737 C119.075,18.821 116.117,15.51 111.148,15.51 C106.535,15.51 102.69,18.94 102.69,24.973 L102.69,42.599 L100.228,42.599 C99.14,42.599 98.196,42.095 98.196,40.614 L98.196,24.618 C98.196,18.881 95.178,15.511 90.33,15.511 C85.478,15.511 81.812,19.532 81.812,25.151 L81.812,40.695 C81.812,42.304 81.234,42.599 79.897,42.599 L77.257,42.599 L77.257,12.02 L79.722,12.02 C81.174,12.02 81.812,12.939 81.812,14.143 L81.812,17.166 C83.821,14.149 86.544,11.37 91.689,11.37 C96.658,11.37 99.852,14.031 101.507,17.462 C103.697,14.09 106.95,11.369 112.272,11.369 L112.272,11.369 L112.272,11.369 Z" id="Shape"></path>
                            <path d="M148.291,43.25 C142.614,43.25 138.946,40.173 136.581,36.743 L136.581,52.061 L133.947,52.061 C132.793,52.061 132.025,51.429 132.025,50.031 L132.025,12.019 L134.245,12.019 C135.724,12.019 136.581,12.701 136.581,14.182 L136.581,18.171 C139.064,14.503 142.671,11.369 148.291,11.369 C155.626,11.369 162.9,17.165 162.9,27.279 C162.9,37.334 155.687,43.25 148.291,43.25 L148.291,43.25 L148.291,43.25 Z M147.463,15.45 C141.785,15.45 136.402,20.182 136.402,27.28 C136.402,34.437 141.785,39.169 147.463,39.169 C153.377,39.169 158.229,34.791 158.229,27.34 C158.229,20.062 153.261,15.45 147.463,15.45 L147.463,15.45 L147.463,15.45 Z" id="Shape"></path>
                            <path d="M230.204,52.18 C225.118,52.18 220.386,50.761 216.305,47.921 C216.305,47.921 216.617,47.34 217.419,46.013 C218.221,44.685 219.199,45.011 220.555,45.774 C223.468,47.418 226.659,48.278 230.146,48.278 C236.889,48.278 241.264,44.55 241.264,37.394 L241.264,33.787 C238.604,37.335 234.877,40.233 229.258,40.233 C221.924,40.233 214.887,34.791 214.887,25.86 C214.887,16.87 221.985,11.37 229.258,11.37 C234.995,11.37 238.723,14.209 241.207,17.521 L241.207,14.085 C241.207,12.81 242.402,12.021 243.269,12.021 L245.758,12.021 L245.758,37.277 C245.759,47.151 239.609,52.18 230.204,52.18 L230.204,52.18 L230.204,52.18 Z M230.146,15.39 C224.349,15.39 219.559,19.353 219.559,25.741 C219.559,32.011 224.468,36.21 230.146,36.21 C235.942,36.21 241.383,32.07 241.383,25.801 C241.383,19.472 235.941,15.39 230.146,15.39 L230.146,15.39 L230.146,15.39 Z" id="Shape"></path>
                            <path d="M259.007,42.599 L254.453,42.599 L254.453,12.02 L256.917,12.02 C257.99,12.02 259.007,12.643 259.007,13.878 L259.007,17.343 C261.02,14.031 264.212,11.37 269.476,11.37 C276.871,11.37 281.188,16.338 281.188,23.613 L281.188,42.6 L278.415,42.6 C277.155,42.6 276.634,42.013 276.634,40.697 L276.634,24.738 C276.634,19.06 273.558,15.511 268.176,15.511 C262.912,15.511 259.008,19.354 259.008,25.092 L259.008,42.599 L259.007,42.599 L259.007,42.599 Z" id="Shape"></path>
                            <path d="M181.886,11.606 C177.449,11.606 174.136,12.611 170.765,14.149 C170.765,14.149 171.251,15.532 171.655,16.583 C172.056,17.632 173.267,17.367 173.843,17.139 C176.138,16.232 178.53,15.628 181.413,15.628 C187.13,15.628 190.495,18.449 190.518,23.914 L190.502,31.361 C190.502,36.211 185.965,39.641 180.347,39.641 C176.206,39.641 172.657,37.394 172.657,33.491 C172.657,29.586 175.852,27.429 181.588,27.429 L184.947,27.429 C186.303,27.429 186.963,26.832 186.963,25.56 L186.963,24.052 C185.519,24.051 182.961,24.049 181.115,24.049 C173.369,24.049 168.045,27.162 168.045,33.668 C168.045,40.056 173.783,43.251 179.459,43.251 C184.843,43.251 188.392,40.766 190.521,37.985 L190.521,40.829 C190.521,42.002 191.026,42.6 192.383,42.6 L194.898,42.6 L194.898,23.91 C194.896,15.864 190.225,11.606 181.886,11.606 L181.886,11.606 L181.886,11.606 Z" id="Shape"></path>
                            <path d="M56.006,11.606 C51.57,11.606 48.258,12.611 44.886,14.149 C44.886,14.149 45.372,15.532 45.775,16.583 C46.177,17.632 47.387,17.367 47.963,17.139 C50.257,16.232 52.649,15.628 55.533,15.628 C61.25,15.628 64.615,18.449 64.638,23.914 L64.63,31.361 C64.63,36.211 60.086,39.641 54.467,39.641 C50.327,39.641 46.779,37.394 46.779,33.491 C46.779,29.586 49.973,27.429 55.71,27.429 L59.067,27.429 C60.425,27.429 61.083,26.832 61.083,25.56 L61.083,24.052 C59.64,24.051 57.081,24.049 55.236,24.049 C47.488,24.049 42.165,27.162 42.165,33.668 C42.165,40.056 47.902,43.251 53.579,43.251 C58.962,43.251 62.511,40.766 64.641,37.985 L64.641,40.829 C64.641,42.002 65.144,42.6 66.502,42.6 L69.018,42.6 L69.018,23.91 C69.019,15.864 64.346,11.606 56.006,11.606 L56.006,11.606 L56.006,11.606 Z" id="Shape"></path>
                        </g>
                        <g id="Group" fill="#FFFFFF">
                            <path d="M513.692,29.375 C514.918,28.523 515.273,27.408 515.273,26.339 C515.273,25.268 515.273,27.361 515.273,25.866 C515.273,24.753 514.66,23.886 513.69,23.189 C512.869,22.6 483.145,1.935 483.145,1.935 L483.145,6.331 C483.145,7.858 483.971,8.368 485.012,9.102 C486.507,10.157 509.717,26.273 509.717,26.273 C509.717,26.273 486.199,42.525 484.792,43.458 C483.332,44.427 483.145,45.093 483.145,46.375 L483.145,50.489 C483.145,50.489 512.363,30.295 513.692,29.375 L513.692,29.375 L513.692,29.375 Z" id="Shape"></path>
                            <path d="M483.146,16.506 L483.146,19.529 C483.146,19.529 492.322,25.94 494.1,27.117 C495.618,28.121 496.897,28.042 498.443,26.901 C499.404,26.193 500.306,25.569 500.306,25.569 C500.306,25.569 486.934,16.293 485.524,15.359 C484.396,14.613 483.146,15.144 483.146,16.506 L483.146,16.506 L483.146,16.506 Z" id="Shape"></path>
                            <path d="M60.852,43.309 C51.92,43.309 45.178,36.034 45.178,27.399 C45.178,18.704 51.921,11.37 60.852,11.37 C66.648,11.37 70.256,13.794 73.096,16.811 C73.096,16.811 72.187,17.784 71.404,18.602 C70.496,19.55 69.612,19.406 68.436,18.423 C66.366,16.694 64.03,15.39 60.793,15.39 C54.583,15.39 49.85,20.655 49.85,27.279 C49.85,33.963 54.702,39.227 61.089,39.227 C64.257,39.227 66.842,37.94 68.999,36.065 C69.5,35.629 70.812,34.991 71.829,35.987 C72.846,36.983 73.333,37.393 73.333,37.393 C70.256,40.824 66.589,43.309 60.852,43.309 L60.852,43.309 L60.852,43.309 Z" id="Shape"></path>
                            <path d="M103.821,5.797 C102.588,5.797 101.898,5.324 101.898,4.089 L101.898,0.77 L105.136,0.77 C106.207,0.77 107.103,1.457 107.103,2.855 L107.103,5.797 L103.821,5.797 L103.821,5.797 L103.821,5.797 Z M104.072,42.599 C102.957,42.599 102.194,41.888 102.194,40.655 L102.194,12.02 L104.768,12.02 C106.002,12.02 106.748,12.559 106.748,13.918 L106.748,42.599 L104.072,42.599 L104.072,42.599 Z" id="Shape"></path>
                            <path d="M137.854,13.615 C138.372,12.439 139.237,12.02 140.345,12.02 L143.416,12.02 C143.416,12.02 131.247,40.069 130.757,41.163 C130.268,42.259 129.527,42.657 128.501,42.657 C127.717,42.657 128.539,42.657 127.883,42.657 C126.73,42.657 125.96,42.451 125.502,41.305 C125.044,40.159 112.838,12.02 112.838,12.02 L115.992,12.02 C117.147,12.02 118.106,12.501 118.552,13.704 C118.997,14.907 128.156,37.246 128.156,37.246 C128.156,37.246 137.338,14.79 137.854,13.615 L137.854,13.615 L137.854,13.615 Z" id="Shape"></path>
                            <path d="M170.135,29.236 C173.713,29.236 174.856,26.932 174.598,24.246 C173.888,16.797 168.489,11.369 160.587,11.369 C152.13,11.369 145.919,18.466 145.919,27.339 C145.919,36.86 152.78,43.309 161.179,43.309 C166.974,43.309 170.701,41.002 173.777,37.572 C173.777,37.572 173.115,36.932 172.283,36.233 C171.303,35.411 170.299,35.673 169.707,36.205 C167.513,38.177 164.826,39.347 161.297,39.347 C155.915,39.347 151.183,35.619 150.532,28.996 C150.532,28.996 150.464,28.336 150.464,27.369 C150.464,26.403 150.532,25.624 150.532,25.624 C151.124,19.65 155.147,15.214 160.469,15.214 C165.958,15.214 169.569,19.04 170.008,23.996 C170.234,25.103 169.838,25.624 169.046,25.624 L156.753,25.624 C155.549,25.624 154.824,26.29 154.824,27.509 L154.824,29.238 C161.001,29.236 168.852,29.236 170.135,29.236 L170.135,29.236 L170.135,29.236 Z" id="Shape"></path>
                            <path d="M24.976,2.276 C24.405,1.059 23.783,0.732 22.588,0.732 L21.4,0.732 C20.458,0.732 19.67,1.208 19.227,2.142 C18.784,3.078 0.997,42.6 0.997,42.6 L3.876,42.6 C5.193,42.6 6.015,42.012 6.639,40.703 C7.262,39.392 10.697,31.658 10.697,31.658 L24.527,31.658 C26.017,31.658 26.901,30.753 26.901,29.484 L26.901,27.459 L12.53,27.459 L21.994,6.175 C21.994,6.175 36.821,39.751 37.41,41.084 C37.997,42.42 39.413,42.601 40.523,42.601 L43.108,42.601 C43.108,42.601 25.546,3.493 24.976,2.276 L24.976,2.276 L24.976,2.276 Z" id="Shape"></path>
                            <path d="M84.527,33.898 C84.527,37.624 86.596,38.985 89.673,38.985 C90.803,38.985 91.603,38.833 92.714,38.514 C93.702,38.232 94.936,38.432 94.936,39.871 C94.936,40.939 94.853,41.845 94.853,41.845 C93.256,42.672 90.796,43.124 88.608,43.124 C83.698,43.124 79.971,40.699 79.971,34.489 L79.971,0.762 L82.195,0.762 C83.471,0.762 84.526,1.432 84.526,2.87 L84.526,12.012 L91.861,12.012 C92.974,12.012 94.225,12.577 94.225,14.099 L94.225,16.035 L84.525,16.035 L84.525,33.898 L84.527,33.898 L84.527,33.898 Z" id="Shape"></path>
                        </g>
                    </g>
                </g>
            </g>
        </g>
    </g>
</svg>