<svg id="Layer_1" data-name="Layer 1" xmlns="http://www.w3.org/2000/svg" viewBox="0 0 599.75 124.15"><defs><style>.cls-1{fill:#1b71b8;}</style></defs><title>aweber</title><path class="cls-1" d="M135.66,272.13H139a154.45,154.45,0,0,0-8.27,32.41,197.1,197.1,0,0,0-1.8,31.7,193,193,0,0,0,1.72,22.12,152.53,152.53,0,0,0,10.23,37.92h-5.21A29.73,29.73,0,0,1,108,368.57V299.8a29.74,29.74,0,0,1,27.66-27.66Z" transform="translate(-108 -272.13)"/><path class="cls-1" d="M395.49,280.55c1.13,2.53,1.92,5.21,2.92,7.8q11.56,31.9,23.14,63.79a1.35,1.35,0,0,0,.5-.67q13.66-33.08,27.35-66.14c5.5,0,11,0,16.49,0q-22.36,53.12-44.65,106.27c-.08.58-.53,0-.52-.24Q409,359.1,397.32,326.84c-.75-1.87-1.26-3.85-2.16-5.65-9,23.65-17.85,47.35-26.87,71Q350.14,346.77,332,301.34c-2.09-5.34-4.33-10.64-6.33-16,5.48,0,11,0,16.44,0q11.51,29.71,23.11,59.39c1,2.53,1.95,5.09,3,7.6q13.65-35.89,27.25-71.8Z" transform="translate(-108 -272.13)"/><path class="cls-1" d="M198.11,295.66a4,4,0,0,0-1.65,1.33,68.81,68.81,0,0,0-7.7,12.78,52,52,0,0,0-4.18,14.79,66.06,66.06,0,0,0,1.09,23.32,60.63,60.63,0,0,0,10.88,22.06,3.47,3.47,0,0,0,2.34,1.37,4.43,4.43,0,0,0,4-2.39c.65-1.33-.28-2.66-1.07-3.69a58,58,0,0,1-7.29-12.88,48.08,48.08,0,0,1-3.13-13.11c-.86-8.87,0-18.05,3.67-26.26a62,62,0,0,1,7.44-12.43,2.68,2.68,0,0,0,.28-3.13c-1-1.45-2.92-2.53-4.65-1.78Zm-19.84-15.39c-1.9.52-3,2.26-4.07,3.77-6.68,9.16-12,19.44-14.52,30.55a93.21,93.21,0,0,0-1.9,26.32,78.28,78.28,0,0,0,6.07,26.33,98.32,98.32,0,0,0,11.7,19.89,4.76,4.76,0,0,0,5.48,1.65,6.78,6.78,0,0,0,3.68-3.31,4.54,4.54,0,0,0-1-4.31A80.27,80.27,0,0,1,171,357.25a77.05,77.05,0,0,1-3.3-23.73,76.26,76.26,0,0,1,2.67-19.66c2.57-9.29,7.37-17.81,13.1-25.5.81-1.06,1.72-2.26,1.59-3.68-.15-1.76-1.56-3.07-3-3.9a4.9,4.9,0,0,0-3.77-.52Zm-17.08-8.13h43a29.71,29.71,0,0,1,18.71,8.15,29.39,29.39,0,0,1,9.15,21q0,30.71,0,61.42a49.66,49.66,0,0,1-.46,9.29,29.65,29.65,0,0,1-13.14,19.62,30,30,0,0,1-14.26,4.65H163.11l.17-.13a141.2,141.2,0,0,1-13.71-55.53,174.41,174.41,0,0,1,1-29.65,136.63,136.63,0,0,1,10.63-38.84Z" transform="translate(-108 -272.13)"/><path class="cls-1" d="M296.35,313.22c-5.12,11.3-10.35,22.55-15.43,33.86q15.18,0,30.36,0c-4.75-11-9.59-22-14.35-33a2.65,2.65,0,0,0-.59-.9Zm.06-33.57.38-.49q23.88,53.3,47.81,106.57-8.31,0-16.61,0c-3.45-8.12-7-16.2-10.47-24.31q-21.5,0-43,0c-3.72,8.11-7.41,16.24-11.17,24.34-5.44,0-10.89,0-16.33,0q24.72-53,49.39-106.09Z" transform="translate(-108 -272.13)"/><path class="cls-1" d="M691.88,321c5.47-1.21,11.17.38,15.88,3.22a3.45,3.45,0,0,1-.38,1.49c-2.06,4-4,8.1-6.1,12.09a15.51,15.51,0,0,0-5.87-2.76,11.45,11.45,0,0,0-8.28,1.38,11.29,11.29,0,0,0-4.35,5.83c-1.78,4.88-1.55,10.15-1.56,15.26q0,14.1,0,28.21c-4.88,0-9.76,0-14.64,0q0-31.66,0-63.33h14.62c0,1.79,0,3.58,0,5.38,1-.47,1.63-1.49,2.5-2.17a17.22,17.22,0,0,1,8.17-4.57Z" transform="translate(-108 -272.13)"/><path class="cls-1" d="M475.26,336.26a15.58,15.58,0,0,0-6.41,9.32c9.76,0,19.53,0,29.29,0a13.87,13.87,0,0,0-14.69-11.71,14.58,14.58,0,0,0-8.18,2.38ZM469,323.69a33.44,33.44,0,0,1,17.79-2.88A28.84,28.84,0,0,1,500,325.13a27.36,27.36,0,0,1,10.35,12.54c2.64,6.24,3.12,13.13,2.88,19.83-12.48.06-25,0-37.45,0-2.64.15-5.27-.15-7.9.07.27,5.2,2.4,10.56,6.65,13.77,3.78,3,8.9,3.63,13.53,2.79a13.15,13.15,0,0,0,6.55-3.24,45.06,45.06,0,0,0,6.82-8.66c4.13,2.3,8.28,4.58,12.39,6.93a44.5,44.5,0,0,1-9.08,11.28A28.06,28.06,0,0,1,490.65,387a37.51,37.51,0,0,1-19.47-1.71,29,29,0,0,1-16.49-17.54,44.27,44.27,0,0,1-1.85-19.09,35,35,0,0,1,4.67-14.36A27.86,27.86,0,0,1,469,323.69Z" transform="translate(-108 -272.13)"/><path class="cls-1" d="M553.47,334a16.43,16.43,0,0,0-8.68,3.8,19.45,19.45,0,0,0-6.52,12.66c-.52,4.9-.13,10.08,2.13,14.54a17,17,0,0,0,10.13,8.7,17.72,17.72,0,0,0,14.63-1.9,19.61,19.61,0,0,0,8.25-13.74,26.14,26.14,0,0,0-1.76-13.74,18.15,18.15,0,0,0-9-9.22,17.59,17.59,0,0,0-9.14-1.1Zm-29.24-38.72c0-6.48,0-13,0-19.44,4.88,0,9.76,0,14.64,0,0,17.93,0,35.86,0,53.8a30,30,0,0,1,11.37-7.6,27.68,27.68,0,0,1,30,8.28,32.31,32.31,0,0,1,7.18,13.54,43,43,0,0,1,.26,19.1,32.11,32.11,0,0,1-14.28,20.64,28,28,0,0,1-34.48-4.41c0,2.17,0,4.34,0,6.51-4.88,0-9.77,0-14.66,0q-.05-45.22,0-90.44Z" transform="translate(-108 -272.13)"/><path class="cls-1" d="M618.38,336.14a15.48,15.48,0,0,0-6.58,9.43h29.3a13.95,13.95,0,0,0-14.94-11.7,14.53,14.53,0,0,0-7.78,2.26Zm3.15-15.24a35.52,35.52,0,0,1,17.19,2,26.38,26.38,0,0,1,11.73,9.47,32.3,32.3,0,0,1,5.07,12.83,58.22,58.22,0,0,1,.69,12.27c-6.84.12-13.68,0-20.52,0-8.29.07-16.59-.08-24.88.07.36,4.75,2,9.62,5.64,12.89,4.35,4.07,11,4.9,16.53,3.16,3.77-1.19,6.39-4.35,8.68-7.39,1-1.3,1.86-2.64,2.74-4,4.11,2.27,8.19,4.6,12.31,6.85a34.66,34.66,0,0,1-3.36,5.25,32.24,32.24,0,0,1-13.43,10.93,36.85,36.85,0,0,1-16.8,2.14,30.2,30.2,0,0,1-13.66-4.47,29.17,29.17,0,0,1-10.82-12.66,38.7,38.7,0,0,1-3.14-15.23,42.46,42.46,0,0,1,2.25-15,29.88,29.88,0,0,1,8.74-12.81,28.05,28.05,0,0,1,15-6.34Z" transform="translate(-108 -272.13)"/></svg>