<svg id="Ebene_1" data-name="Ebene 1" xmlns="http://www.w3.org/2000/svg" viewBox="0 0 134 72"><defs><style>.cls-1{fill:none;}.cls-2{fill:#00529c;}</style></defs><title>cod</title><rect id="backgroundrect" class="cls-1" width="134" height="72"/><g id="svg_1" data-name="svg 1"><g id="svg_2" data-name="svg 2"><path id="svg_3" data-name="svg 3" class="cls-2" d="M51.1,23.9h0l49.2.1L93,23.7c-23.1-1.1-39.3-.8-41.9.2" transform="translate(0 0)"/></g><g id="svg_4" data-name="svg 4"><path id="svg_5" data-name="svg 5" class="cls-2" d="M134,71.8V24H101.6l.1.1-1.3-.1H51.1c0,.1-.1.2-.1.4a9.13,9.13,0,0,0,1.6,4c.5.2,1.2.5,1.9.8a3,3,0,0,1,.5-.7,5.48,5.48,0,0,1,7.6-.5,12.67,12.67,0,0,1,1.1,1.3h23a12.3,12.3,0,0,1,11.4,0h23a4.49,4.49,0,0,1,1.1-1.3,5.39,5.39,0,0,1,7.1,8.1,4.7,4.7,0,0,1-.9.6V58.9l.9.6a5.39,5.39,0,1,1-7.1,8.1,12.67,12.67,0,0,1-1.1-1.3h-23a12.3,12.3,0,0,1-11.4,0h-23a4.49,4.49,0,0,1-1.1,1.3,5.39,5.39,0,1,1-7.1-8.1,4.7,4.7,0,0,1,.9-.6V49.6c-1.4-.6-2.9-1.3-4.4-2-.3-.2-.7-.3-1-.5V71.6h83Z" transform="translate(0 0)"/></g><g id="svg_6" data-name="svg 6"><path id="svg_7" data-name="svg 7" class="cls-2" d="M121.9,60.1a5.28,5.28,0,0,0-.6,6.3h7.4V59a5.35,5.35,0,0,0-6.8,1.1" transform="translate(0 0)"/></g><g id="svg_8" data-name="svg 8"><path id="svg_9" data-name="svg 9" class="cls-2" d="M121.2,66.4a4.49,4.49,0,0,0,1.1,1.3,5.39,5.39,0,1,0,7.1-8.1,4.7,4.7,0,0,0-.9-.6v7.4Z" transform="translate(0 0)"/></g><g id="svg_10" data-name="svg 10"><path id="svg_11" data-name="svg 11" class="cls-2" d="M63.1,60.1A5.25,5.25,0,0,0,56.4,59v7.4h7.4a5.46,5.46,0,0,0-.7-6.3" transform="translate(0 0)"/></g><g id="svg_12" data-name="svg 12"><path id="svg_13" data-name="svg 13" class="cls-2" d="M56.3,59l-.9.6a5.39,5.39,0,1,0,7.1,8.1,12.67,12.67,0,0,0,1.1-1.3H56.2V59Z" transform="translate(0 0)"/></g><g id="svg_14" data-name="svg 14"><path id="svg_15" data-name="svg 15" class="cls-2" d="M121.9,35.7a5.25,5.25,0,0,0,6.7,1.1V29.4h-7.4a5.46,5.46,0,0,0,.7,6.3" transform="translate(0 0)"/></g><g id="svg_16" data-name="svg 16"><path id="svg_17" data-name="svg 17" class="cls-2" d="M128.6,36.8l.9-.6a5.39,5.39,0,0,0-7.1-8.1,12.67,12.67,0,0,0-1.1,1.3h7.4l-.1,7.4Z" transform="translate(0 0)"/></g><g id="svg_18" data-name="svg 18"><path id="svg_19" data-name="svg 19" class="cls-2" d="M56.3,29.9c2.1.8,4.5,1.8,6,2.4a12.22,12.22,0,0,1,2,1,5,5,0,0,0-.6-3.8H56.3Z" transform="translate(0 0)"/></g><g id="svg_20" data-name="svg 20"><path id="svg_21" data-name="svg 21" class="cls-2" d="M56.3,29.4h7.4a4.49,4.49,0,0,0-1.1-1.3,5.3,5.3,0,0,0-7.6.5,4.23,4.23,0,0,0-.5.7c.6.2,1.2.5,1.8.7Z" transform="translate(0 0)"/></g><g id="svg_22" data-name="svg 22"><path id="svg_23" data-name="svg 23" class="cls-2" d="M92.5,67.8a12.63,12.63,0,0,0,5.7-1.4H86.8a12.32,12.32,0,0,0,5.7,1.4" transform="translate(0 0)"/></g><g id="svg_24" data-name="svg 24"><path id="svg_25" data-name="svg 25" class="cls-2" d="M92.5,28a12.63,12.63,0,0,0-5.7,1.4H98.2A12.63,12.63,0,0,0,92.5,28" transform="translate(0 0)"/></g><g id="svg_26" data-name="svg 26"><path id="svg_27" data-name="svg 27" class="cls-2" d="M56.3,36.8V46.9c7.3,3.3,14.8,6.3,16.5,2.1a5.22,5.22,0,0,0,.4-2.1c0-4.8-6.4-9.3-10.2-11.3l-.1.1a5.06,5.06,0,0,1-6.6,1.1" transform="translate(0 0)"/></g><g id="svg_28" data-name="svg 28"><path id="svg_29" data-name="svg 29" class="cls-2" d="M50.9,30.5s-2.5-3.3-2.5-6.1a3.07,3.07,0,0,1,1.2-2.6c3.2-2.6,43.6-.7,43.6-.7S74.8,7.6,68,4.5,59.6.2,56.4,0,28.9,7.4,28.9,7.4s-8.8,3.9-12.5,1.3l-.7,21.4,13.8,3.3s7.8,5.8,15.6,8.4a42.1,42.1,0,0,1,5.8,2.5V30.5h0" transform="translate(0 0)"/></g><g id="svg_30" data-name="svg 30"><path id="svg_31" data-name="svg 31" class="cls-2" d="M55.5,36.2a5.67,5.67,0,0,1-1.8-4.5c-1.4-.6-2.4-1-2.7-1.1V44.4c1.7.8,3.5,1.7,5.4,2.5V36.8a3.49,3.49,0,0,1-.9-.6" transform="translate(0 0)"/></g><g id="svg_32" data-name="svg 32"><path id="svg_33" data-name="svg 33" class="cls-2" d="M56.3,32.7v4.1A5.23,5.23,0,0,0,63,35.7l.1-.1c-.7-.4-1.4-.7-1.8-.9-1.2-.5-3.1-1.2-5-2" transform="translate(0 0)"/></g><g id="svg_34" data-name="svg 34"><path id="svg_35" data-name="svg 35" class="cls-2" d="M55.5,36.2a4.7,4.7,0,0,0,.9.6V32.7c-.9-.4-1.9-.7-2.7-1.1a5.18,5.18,0,0,0,1.8,4.6" transform="translate(0 0)"/></g><g id="svg_36" data-name="svg 36"><path id="svg_37" data-name="svg 37" class="cls-2" d="M90.9,60.7V57.9a12.11,12.11,0,0,1-4.6-1l.9-3.6a11.09,11.09,0,0,0,4.5,1.1c2,0,2.7-.9,2.7-1.8s-1.1-1.7-3.8-2.7c-3.7-1.3-5.2-3-5.2-5.9s2-5.2,5.6-5.8V35h3.1v3a12,12,0,0,1,5.3,1.4l-.9,3.7a11.38,11.38,0,0,0-5.2-1.4c-1.8,0-3,.7-3,1.9s1,1.9,3.3,2.7c3.4,1.1,5.7,2.7,5.7,5.8,0,2.8-1.9,4.9-5.3,5.6v3Zm16.9-12.8c0-8.4-4-15.5-9.6-18.5H86.8c-5.6,2.9-9.6,10.1-9.6,18.5s4,15.5,9.6,18.5H98.2c5.6-3,9.6-10.1,9.6-18.5" transform="translate(0 0)"/></g></g><rect id="svg_38" data-name="svg 38" class="cls-2" y="5.9" width="13.3" height="29.2"/></svg>