<?xml version="1.0" encoding="UTF-8" ?>
<!DOCTYPE svg PUBLIC "-//W3C//DTD SVG 1.1//EN" "http://www.w3.org/Graphics/SVG/1.1/DTD/svg11.dtd">
<svg width="1200pt" height="159pt" viewBox="0 0 1200 159" version="1.1" xmlns="http://www.w3.org/2000/svg">
<g id="#00aeefff">
<path fill="#00aeef" opacity="1.00" d=" M 20.00 12.94 C 19.67 7.56 24.58 2.66 29.96 3.00 C 99.31 3.01 168.66 2.97 238.01 3.03 C 241.15 2.91 243.50 5.19 246.07 6.61 C 246.30 7.69 246.64 8.74 247.08 9.76 C 246.02 9.04 244.97 8.31 243.93 7.58 C 242.42 11.55 239.61 14.79 237.25 18.27 C 222.08 39.14 203.84 58.30 181.63 71.74 C 164.79 81.86 144.86 88.18 125.08 85.46 C 107.48 83.54 90.43 75.74 78.04 62.99 C 67.28 52.48 59.97 38.65 56.77 23.98 C 52.66 23.97 47.77 23.22 44.76 26.72 C 40.88 30.17 41.57 35.82 42.47 40.39 C 46.87 64.96 61.54 87.73 82.64 101.22 C 100.15 112.68 121.58 118.74 142.51 116.35 C 161.51 114.50 179.45 106.24 194.50 94.70 C 215.47 78.76 231.48 57.29 244.85 34.83 C 245.83 32.99 247.32 31.24 247.27 29.05 C 247.30 22.95 247.38 16.85 247.15 10.75 C 248.08 19.77 247.25 28.89 247.30 37.95 C 247.32 71.30 247.31 104.66 247.31 138.02 C 247.59 143.52 242.54 148.37 237.08 147.99 C 168.04 148.00 98.99 148.02 29.95 147.98 C 24.60 148.25 19.69 143.43 20.00 138.06 C 20.00 96.35 20.00 54.65 20.00 12.94 Z" />
</g>
<g id="#ffffffff">
<path fill="#ffffff" opacity="1.00" d=" M 243.93 7.58 C 244.97 8.31 246.02 9.04 247.08 9.76 L 247.15 10.75 C 247.38 16.85 247.30 22.95 247.27 29.05 C 247.32 31.24 245.83 32.99 244.85 34.83 C 231.48 57.29 215.47 78.76 194.50 94.70 C 179.45 106.24 161.51 114.50 142.51 116.35 C 121.58 118.74 100.15 112.68 82.64 101.22 C 61.54 87.73 46.87 64.96 42.47 40.39 C 41.57 35.82 40.88 30.17 44.76 26.72 C 47.77 23.22 52.66 23.97 56.77 23.98 C 59.97 38.65 67.28 52.48 78.04 62.99 C 90.43 75.74 107.48 83.54 125.08 85.46 C 144.86 88.18 164.79 81.86 181.63 71.74 C 203.84 58.30 222.08 39.14 237.25 18.27 C 239.61 14.79 242.42 11.55 243.93 7.58 Z" />
</g>
<g id="#434143ff">
<path fill="#434143" opacity="1.00" d=" M 322.36 30.40 C 331.62 24.25 342.87 21.34 353.95 21.78 C 366.89 22.13 380.16 26.12 389.90 34.91 C 386.29 39.53 382.66 44.14 379.03 48.75 C 370.22 42.21 359.03 38.47 348.03 39.85 C 337.31 41.14 327.52 48.16 322.86 57.89 C 316.91 70.31 317.87 85.98 325.59 97.43 C 331.43 106.06 341.67 111.25 352.03 111.44 C 362.11 111.83 372.02 107.67 379.33 100.84 C 379.04 97.41 380.24 93.53 378.53 90.43 C 375.91 89.03 372.72 89.92 369.88 89.68 C 369.87 84.25 369.87 78.81 369.88 73.38 C 376.60 73.55 383.36 73.00 390.05 73.66 C 394.24 73.98 396.81 78.08 396.65 82.02 C 396.75 97.24 396.66 112.46 396.68 127.69 C 391.20 127.69 385.72 127.69 380.25 127.69 C 380.23 124.53 380.27 121.38 380.38 118.23 C 370.27 127.04 356.26 130.78 343.04 129.03 C 330.27 127.53 318.20 120.77 310.37 110.55 C 300.95 98.41 297.69 82.28 299.58 67.21 C 301.48 52.45 309.84 38.56 322.36 30.40 Z" />
<path fill="#434143" opacity="1.00" d=" M 540.31 127.68 C 540.31 92.95 540.30 58.23 540.32 23.50 C 552.89 23.52 565.45 23.46 578.02 23.52 C 587.00 23.59 596.39 26.70 602.40 33.62 C 609.13 41.27 610.83 52.27 609.02 62.04 C 607.36 71.01 601.27 79.48 592.44 82.48 C 594.42 83.84 596.34 85.42 597.42 87.62 C 601.14 94.62 604.38 101.88 608.24 108.81 C 610.05 111.75 613.91 111.21 616.87 111.36 C 616.87 116.81 616.88 122.25 616.87 127.69 C 611.22 127.50 605.48 128.20 599.91 127.02 C 596.16 126.23 593.74 122.96 592.15 119.71 C 587.76 111.15 583.46 102.53 579.07 93.97 C 577.93 91.57 575.92 89.35 573.13 89.09 C 568.63 88.55 564.08 88.91 559.57 88.82 C 559.55 101.78 559.57 114.73 559.56 127.68 C 553.14 127.69 546.73 127.69 540.31 127.68 M 559.57 39.82 C 559.56 50.65 559.56 61.48 559.57 72.30 C 565.35 72.23 571.15 72.50 576.93 72.18 C 582.71 71.88 587.97 67.62 589.27 61.95 C 591.46 54.26 589.44 43.66 580.97 40.82 C 574.03 38.89 566.68 40.19 559.57 39.82 Z" />
<path fill="#434143" opacity="1.00" d=" M 493.50 32.50 C 499.59 32.50 505.67 32.49 511.75 32.51 C 511.75 39.30 511.74 46.09 511.76 52.87 C 516.60 53.29 522.12 51.70 526.44 54.49 C 529.89 57.96 528.34 63.37 528.68 67.75 C 523.04 67.76 517.40 67.74 511.76 67.76 C 511.75 77.84 511.74 87.93 511.75 98.01 C 511.70 101.98 512.94 106.24 516.16 108.79 C 519.97 111.92 525.18 112.18 529.88 111.79 C 529.87 117.22 529.88 122.65 529.88 128.08 C 520.53 129.14 510.33 128.03 502.56 122.33 C 496.22 117.68 493.28 109.68 493.13 102.02 C 492.96 90.60 493.12 79.18 493.05 67.76 C 489.84 67.75 486.64 67.75 483.43 67.74 C 483.44 62.78 483.42 57.83 483.45 52.88 C 486.79 52.88 490.15 52.88 493.50 52.87 C 493.50 46.08 493.49 39.29 493.50 32.50 Z" />
<path fill="#434143" opacity="1.00" d=" M 414.79 64.80 C 425.12 51.37 445.29 47.45 460.35 54.67 C 474.26 61.51 479.77 79.23 476.82 93.49 C 459.76 93.68 442.69 93.49 425.63 93.58 C 426.47 101.24 431.02 108.69 438.35 111.65 C 448.72 116.13 460.71 112.24 468.99 105.27 C 471.60 109.58 474.19 113.90 476.78 118.23 C 461.74 131.57 437.10 133.68 420.98 121.12 C 404.14 108.14 402.06 81.29 414.79 64.80 M 434.33 68.36 C 429.96 71.03 427.45 75.78 426.21 80.60 C 437.02 80.63 447.84 80.65 458.65 80.59 C 458.19 76.21 456.72 71.68 453.22 68.79 C 448.01 64.23 439.93 64.89 434.33 68.36 Z" />
<path fill="#434143" opacity="1.00" d=" M 631.12 62.95 C 640.51 52.38 656.20 48.90 669.60 52.51 C 677.62 54.69 684.53 60.45 688.19 67.91 C 692.22 75.78 692.95 84.90 691.95 93.57 C 674.77 93.57 657.59 93.54 640.40 93.58 C 641.26 101.30 645.87 108.81 653.29 111.71 C 663.63 116.11 675.54 112.19 683.78 105.26 C 686.36 109.59 688.97 113.90 691.55 118.23 C 676.55 131.54 651.99 133.68 635.86 121.20 C 618.29 107.77 616.64 79.21 631.12 62.95 M 649.30 68.24 C 644.83 70.89 642.24 75.70 640.98 80.60 C 651.80 80.63 662.61 80.65 673.43 80.59 C 672.98 76.27 671.54 71.80 668.13 68.91 C 663.00 64.27 654.93 64.85 649.30 68.24 Z" />
<path fill="#434143" opacity="1.00" d=" M 724.54 51.83 C 732.39 50.57 740.65 51.00 748.15 53.77 C 752.64 55.46 757.18 58.55 758.48 63.43 C 759.23 67.06 758.77 70.81 758.87 74.49 C 753.40 74.51 747.95 74.50 742.49 74.50 C 742.38 72.11 742.98 68.94 740.45 67.55 C 735.53 64.69 728.69 64.84 724.01 68.09 C 720.68 70.62 722.02 75.79 725.49 77.49 C 735.35 83.28 747.71 84.67 756.12 92.95 C 761.78 98.34 763.04 107.19 760.27 114.32 C 757.72 121.04 751.45 125.70 744.73 127.75 C 729.80 132.27 712.39 127.79 701.88 116.16 C 704.79 112.08 707.76 108.04 710.65 103.95 C 715.73 108.95 721.88 113.30 729.05 114.54 C 732.91 115.15 737.31 115.16 740.60 112.75 C 743.14 110.91 744.01 106.71 741.62 104.41 C 738.57 101.43 734.40 100.10 730.58 98.43 C 722.68 95.16 714.16 92.13 708.33 85.56 C 702.62 79.20 702.24 69.02 706.85 61.94 C 710.77 56.02 717.76 53.02 724.54 51.83 Z" />
<path fill="#434143" opacity="1.00" d=" M 794.47 62.24 C 803.49 49.31 823.11 48.09 835.72 56.24 C 845.14 62.27 850.19 73.29 851.27 84.15 C 852.49 96.09 850.45 109.11 842.64 118.61 C 831.51 132.60 806.78 133.63 795.92 118.82 C 796.47 131.53 796.06 144.27 796.18 156.99 C 789.97 157.00 783.77 157.00 777.56 157.00 C 777.56 128.98 777.56 100.97 777.56 72.95 C 777.52 71.55 777.53 69.71 775.98 69.07 C 773.51 68.60 770.98 68.84 768.50 68.81 C 768.49 63.52 768.52 58.23 768.48 52.95 C 773.97 52.83 779.48 52.84 784.98 52.90 C 787.88 53.00 791.23 53.36 793.22 55.76 C 794.68 57.58 794.34 60.06 794.47 62.24 M 810.44 67.57 C 805.88 68.46 801.93 71.49 799.52 75.41 C 795.74 81.53 794.98 89.07 796.06 96.07 C 796.79 101.02 798.81 105.97 802.60 109.37 C 808.79 115.04 819.29 115.22 825.54 109.54 C 830.46 105.17 832.52 98.43 832.79 92.02 C 833.12 85.09 831.51 77.62 826.57 72.48 C 822.52 68.17 816.20 66.31 810.44 67.57 Z" />
<path fill="#434143" opacity="1.00" d=" M 893.58 51.76 C 906.20 49.65 919.93 52.88 929.54 61.53 C 941.30 71.75 945.06 89.35 939.85 103.82 C 936.32 114.01 928.06 122.27 918.09 126.24 C 900.06 133.75 876.45 128.17 866.02 111.01 C 858.80 99.38 858.38 83.90 864.78 71.83 C 870.44 61.01 881.62 53.64 893.58 51.76 M 896.46 67.55 C 889.49 69.00 883.51 74.17 880.91 80.78 C 876.69 91.01 879.84 104.41 889.60 110.31 C 897.64 115.41 908.97 114.41 915.96 107.92 C 925.57 99.22 925.81 82.44 916.61 73.37 C 911.46 68.16 903.58 65.97 896.46 67.55 Z" />
<path fill="#434143" opacity="1.00" d=" M 973.52 66.94 C 977.81 58.44 986.42 52.32 995.93 51.39 C 1004.05 50.55 1013.27 51.77 1019.24 57.88 C 1024.83 63.72 1026.12 72.24 1026.12 80.01 C 1026.24 89.95 1025.91 99.90 1026.27 109.82 C 1027.52 113.39 1032.32 111.55 1035.18 112.01 C 1035.15 117.25 1035.27 122.49 1035.10 127.72 C 1029.05 127.63 1023.01 127.75 1016.97 127.68 C 1014.41 127.61 1011.58 127.22 1009.74 125.29 C 1007.89 123.39 1007.58 120.60 1007.52 118.08 C 1007.43 106.08 1007.60 94.07 1007.44 82.07 C 1007.33 77.38 1006.38 71.54 1001.60 69.36 C 995.37 66.85 987.90 68.61 982.76 72.73 C 976.79 77.55 974.42 85.50 974.35 92.92 C 974.30 104.48 974.26 116.03 974.38 127.58 C 968.21 127.82 962.05 127.61 955.89 127.72 C 955.64 108.83 956.01 89.93 955.71 71.05 C 954.60 67.28 949.59 69.32 946.75 68.81 C 946.75 63.50 946.74 58.19 946.76 52.88 C 952.48 52.90 958.20 52.81 963.93 52.90 C 967.03 52.93 970.62 53.60 972.45 56.39 C 974.38 59.55 973.66 63.43 973.52 66.94 Z" />
<path fill="#434143" opacity="1.00" d=" M 1062.94 52.09 C 1071.08 50.48 1079.70 50.88 1087.55 53.63 C 1092.20 55.32 1096.94 58.48 1098.24 63.54 C 1098.94 67.14 1098.54 70.85 1098.61 74.50 C 1093.15 74.50 1087.69 74.50 1082.23 74.50 C 1082.02 72.35 1082.76 69.65 1080.86 68.08 C 1077.26 65.22 1072.21 65.18 1067.92 66.13 C 1065.03 66.73 1061.85 68.73 1061.79 72.00 C 1061.65 75.30 1064.71 77.37 1067.31 78.70 C 1076.85 83.41 1088.11 85.34 1095.93 93.05 C 1101.43 98.34 1102.68 106.93 1100.12 113.95 C 1097.71 120.77 1091.45 125.56 1084.70 127.67 C 1069.73 132.32 1052.19 127.85 1041.62 116.16 C 1044.55 112.08 1047.51 108.02 1050.42 103.93 C 1055.48 109.02 1061.72 113.33 1068.92 114.56 C 1072.64 115.14 1076.79 115.13 1080.05 112.97 C 1082.75 111.24 1083.84 106.93 1081.44 104.50 C 1078.42 101.46 1074.20 100.13 1070.37 98.45 C 1062.52 95.20 1054.06 92.19 1048.21 85.72 C 1042.50 79.49 1041.96 69.48 1046.32 62.38 C 1049.90 56.59 1056.47 53.43 1062.94 52.09 Z" />
<path fill="#434143" opacity="1.00" d=" M 1116.91 63.93 C 1126.26 52.53 1142.72 48.69 1156.62 52.62 C 1164.54 54.88 1171.33 60.64 1174.90 68.06 C 1178.90 75.89 1179.55 84.94 1178.61 93.56 C 1161.44 93.56 1144.27 93.56 1127.09 93.56 C 1127.87 101.37 1132.64 108.95 1140.15 111.80 C 1150.46 116.06 1162.22 112.13 1170.42 105.27 C 1173.02 109.56 1175.56 113.88 1178.19 118.15 C 1162.99 131.89 1137.53 133.72 1121.51 120.40 C 1105.17 106.90 1103.67 80.04 1116.91 63.93 M 1137.43 67.43 C 1132.22 69.87 1128.82 75.12 1127.74 80.65 C 1138.51 80.58 1149.28 80.67 1160.05 80.60 C 1159.64 76.12 1158.05 71.48 1154.42 68.60 C 1149.71 64.63 1142.74 64.90 1137.43 67.43 Z" />
</g>
</svg>
