<svg xmlns="http://www.w3.org/2000/svg" xmlns:xlink="http://www.w3.org/1999/xlink" width="299.6263732910156" height="77.52747344970703" style=""><rect id="backgroundrect" width="100%" height="100%" x="0" y="0" fill="none" stroke="none" style="" class=""/><g class="currentLayer" style=""><title>Layer 1</title><defs transform="matrix(2.07675,0,0,-2.07675,-11.153,92.77) " stroke-width="0"><path id="a" d="M-84.525-27.457h326.05V78.457h-326.05z"/></defs><clipPath id="b" transform="matrix(2.07675,0,0,-2.07675,-11.153,92.77) " stroke-width="0"><use xlink:href="#a" overflow="visible" id="svg_2"/></clipPath><path d="M56.17315824999999,7.660631499999994 c-3.4764795000000004,-3.962439 -9.760725,-5.661220500000001 -17.79982425,-5.661220500000001 H15.041047749999999 a3.34149075,-3.34149075 0 0 1 -3.3020325,2.81814975 L2.0281322500000005,66.43681 a2.001987,-2.001987 0 0 1 1.9791427500000003,2.3134995000000003 h14.404338000000001 l3.6176985000000004,-22.94601075 l-0.11214450000000004,0.7185555000000002 a3.3311070000000003,-3.3311070000000003 0 0 0 3.2874952500000005,-2.81814975 h6.844968000000001 c13.44695625,0 23.97607875,-5.4618525 27.0517455,-21.2617665 c0.09137700000000003,-0.46726875000000007 0.17029350000000004,-0.9220770000000001 0.23882625000000005,-1.3665015000000003 c0.9137700000000002,-5.839821000000001 -0.006230250000000002,-9.8147205 -3.1649670000000003,-13.41372825 " fill="#003087" stroke-width="0" id="svg_4" class=""/><path d="M232.99034475741198,29.125121347900382 c-0.8805420000000003,5.7816719999999995 -5.2957125000000005,5.7816719999999995 -9.5655105,5.7816719999999995 h-2.4297975 l1.7050117500000002,-10.794946500000002 c0.10383750000000003,-0.6520995000000004 0.6645600000000003,-1.1318287500000002 1.3249665000000004,-1.1318287500000002 h1.11521475 c2.90745,0 5.6529135,0 7.069257,1.6551697500000002 c0.84523725,0.9906097500000002 1.1006775000000002,2.46094875 0.7808580000000003,4.4899335 m-1.8586912500000006,-15.085512000000001 h-16.107273000000003 a2.24289,-2.24289 0 0 1 -2.2138155000000004,1.8898425 L206.30203050741198,57.229779097900376 a1.3436572500000004,-1.3436572500000004 0 0 1 1.3249665000000004,1.5513322500000002 h8.265465 c0.7704742500000001,0 1.4267272500000003,-0.5607225 1.5471787500000005,-1.3208130000000002 l1.8483075000000004,-11.712870000000002 c0.17029350000000004,-1.0861402500000001 1.1089845,-1.8898425 2.2096620000000002,-1.8898425 h5.096344500000001 c10.6121925,0 16.7344515,-5.131649250000001 18.333548999999998,-15.309801 c0.7206322500000003,-4.4483985 0.029074500000000014,-7.9456455 -2.05390575,-10.39413375 c-2.29065525,-2.6914680000000004 -6.3507014999999996,-4.1161185 -11.739867750000002,-4.1161185 " fill="#009cde" stroke-width="0" id="svg_5" class="selected"/><path d="M118.10453475741197,29.125121347900382 c-0.8805420000000003,5.7816719999999995 -5.2957125000000005,5.7816719999999995 -9.56758725,5.7816719999999995 h-2.4297975 l1.7050117500000002,-10.794946500000002 c0.10383750000000003,-0.6520995000000004 0.6645600000000003,-1.1318287500000002 1.3249665000000004,-1.1318287500000002 h1.11521475 c2.90745,0 5.6529135,0 7.069257,1.6551697500000002 c0.8473140000000001,0.9906097500000002 1.10275425,2.46094875 0.7829347500000001,4.4899335 m-1.8586912500000006,-15.085512000000001 H100.13857050741196 c-1.1006775000000002,0 -2.0393685,0.8016255000000003 -2.21173875,1.8898425 L91.41622050741195,57.229779097900376 a1.3415805000000005,-1.3415805000000005 0 0 1 1.3249665000000004,1.5513322500000002 h7.6922820000000005 c1.1006775000000002,0 2.03729175,-0.8016255000000003 2.2096620000000002,-1.8898425 l1.7590072500000002,-11.14176375 c0.17029350000000004,-1.088217 1.1089845,-1.8898425 2.2096620000000002,-1.8898425 h5.096344500000001 c10.6121925,0 16.7344515,-5.133726 18.333548999999998,-15.31187775 c0.7206322500000003,-4.4483985 0.029074500000000014,-7.9456455 -2.05390575,-10.39413375 c-2.29065525,-2.6914680000000004 -6.3507014999999996,-4.1161185 -11.739867750000002,-4.1161185 M153.64188075741197,43.953116347900384 c-0.7476300000000002,4.4068635 -4.24280025,7.36623225 -8.705736,7.36623225 c-2.23665975,0 -4.028895,-0.7206322500000003 -5.179414500000001,-2.08298025 c-1.1422125,-1.3498875000000006 -1.5700230000000004,-3.27503475 -1.2086685000000001,-5.416164 c0.6936345000000004,-4.3694820000000005 4.2490305,-7.4223045 8.6434335,-7.4223045 c2.19097125,0 3.9665925000000004,0.7268625000000001 5.1420330000000005,2.101671 c1.1816707499999999,1.3851922500000005 1.6468627500000004,3.3207232500000003 1.3083525000000003,5.453545500000001 m10.749258000000001,-15.014902500000002 h-7.7130495 a1.3436572500000004,-1.3436572500000004 0 0 1 -1.3291200000000003,1.13598225 l-0.33643350000000016,2.1556665 l-0.5399550000000002,-0.7808580000000003 c-1.6697070000000005,-2.42356725 -5.39331975,-3.2355765 -9.110702250000001,-3.2355765 c-8.52090525,0 -15.799914000000001,6.4586925 -17.216257499999998,15.513322500000001 c-0.7372462500000002,4.52108475 0.30943575000000006,8.838648000000001 2.87214525,11.85201225 c2.3529577500000003,2.7683077500000004 5.711062500000001,3.9209040000000006 9.712959750000001,3.9209040000000006 c6.869889000000001,0 10.678648500000001,-4.411017 10.678648500000001,-4.411017 l-0.34474050000000017,2.143206 a1.3415805000000005,-1.3415805000000005 0 0 1 1.3270432500000002,1.5513322500000002 h6.944652000000001 c1.1006775000000002,0 2.0393685,-0.7995487500000001 2.21173875,-1.8898425 l4.170114,-26.401722750000005 a1.3436572500000004,-1.3436572500000004 0 0 1 -1.3291200000000003,-1.5513322500000002 " fill="#003087" stroke-width="0" id="svg_6" class="selected"/><path d="M268.52769075741196,43.953116347900384 c-0.7476300000000002,4.4068635 -4.24280025,7.36623225 -8.705736,7.36623225 c-2.23665975,0 -4.028895,-0.7206322500000003 -5.179414500000001,-2.08298025 c-1.1422125,-1.3498875000000006 -1.5700230000000004,-3.27503475 -1.2086685000000001,-5.416164 c0.6936345000000004,-4.3694820000000005 4.24695375,-7.4223045 8.6434335,-7.4223045 c2.19097125,0 3.9665925000000004,0.7268625000000001 5.1420330000000005,2.101671 c1.1816707499999999,1.3851922500000005 1.6468627500000004,3.3207232500000003 1.3083525000000003,5.453545500000001 m10.749258000000001,-15.014902500000002 h-7.7130495 a1.3436572500000004,-1.3436572500000004 0 0 1 -1.3291200000000003,1.13598225 l-0.33643350000000016,2.1556665 l-0.5399550000000002,-0.7808580000000003 c-1.6697070000000005,-2.42356725 -5.39331975,-3.2355765 -9.110702250000001,-3.2355765 c-8.518828500000001,0 -15.79783725,6.4586925 -17.216257499999998,15.513322500000001 c-0.7372462500000002,4.52108475 0.3115125000000002,8.838648000000001 2.8742220000000005,11.85201225 c2.3529577500000003,2.7683077500000004 5.711062500000001,3.9209040000000006 9.712959750000001,3.9209040000000006 c6.871965750000001,0 10.68072525,-4.411017 10.68072525,-4.411017 l-0.34474050000000017,2.143206 a1.3374270000000004,-1.3374270000000004 0 0 1 1.3228897500000003,1.5513322500000002 h6.94257525 c1.1006775000000002,0 2.0393685,-0.7995487500000001 2.2138155000000004,-1.8898425 l4.170114,-26.401722750000005 a1.3436572500000004,-1.3436572500000004 0 0 1 -1.3291200000000003,-1.5513322500000002 " fill="#009cde" stroke-width="0" id="svg_7" class="selected"/><path d="M205.47133050741198,28.94029059790038 h-7.7545845 c-0.7413997500000002,0 -1.4329575000000003,0.3675847500000001 -1.8483075000000004,0.98230275 l-10.695262500000002,15.750072 l-4.5335452499999995,-15.135354000000001 a2.24289,-2.24289 0 0 1 -2.14528275,-1.5990975 h-7.61959575 a1.3436572500000004,-1.3436572500000004 0 0 1 -1.2709710000000003,1.7776980000000004 l8.5354425,25.0580655 l-8.0287155,11.328671250000001 a1.3436572500000004,-1.3436572500000004 0 0 1 1.096524,2.118285 h7.7462775000000015 c0.7310160000000001,0 1.4184202500000005,-0.35927775000000006 1.8379237500000003,-0.9615352500000002 l25.7807745,-37.2112065 a1.3415805000000005,-1.3415805000000005 0 0 1 -1.1006775000000002,-2.10790125 " fill="#003087" stroke-width="0" id="svg_8" class="selected"/><path d="M288.36688350741196,15.175591597900393 l-6.612372000000001,42.056264250000005 a1.3436572500000004,-1.3436572500000004 0 0 1 1.3270432500000002,1.5513322500000002 h6.6476767500000005 c1.1006775000000002,0 2.0393685,-0.8016255000000003 2.21173875,-1.8898425 l6.5189182500000005,-41.302404 a1.3415805000000005,-1.3415805000000005 0 0 1 -1.3270432500000002,-1.5513322500000002 h-7.4389185 a1.3395037500000004,-1.3395037500000004 0 0 1 -1.3270432500000002,1.1339055000000002 " fill="#009cde" stroke-width="0" id="svg_9" class="selected"/><path d="M56.17315824999999,7.660631499999994 c-3.4764795000000004,-3.962439 -9.760725,-5.661220500000001 -17.79982425,-5.661220500000001 H15.041047749999999 a3.34149075,-3.34149075 0 0 1 -3.3020325,2.81814975 L2.0281322500000005,66.43681 a2.001987,-2.001987 0 0 1 1.9791427500000003,2.3134995000000003 h14.404338000000001 l3.6176985000000004,-22.94601075 l-0.11214450000000004,0.7185555000000002 a3.3311070000000003,-3.3311070000000003 0 0 0 3.2874952500000005,-2.81814975 h6.844968000000001 c13.44695625,0 23.97607875,-5.4618525 27.0517455,-21.2617665 c0.09137700000000003,-0.46726875000000007 0.17029350000000004,-0.9220770000000001 0.23882625000000005,-1.3665015000000003 c0.9137700000000002,-5.839821000000001 -0.006230250000000002,-9.8147205 -3.1649670000000003,-13.41372825 " fill="#003087" stroke-width="0" id="svg_10" class=""/><path d="M25.914910750000004,21.15327624999999 a2.924064,-2.924064 0 0 0 2.88460575,-2.46510225 h18.292014 c2.16605025,0 4.1867280000000004,0.14121900000000004 6.032958750000001,0.43611750000000005 a25.3488105,-25.3488105 0 0 0 2.99052,0.6687135000000002 a16.52469975,-16.52469975 0 0 0 3.2210392500000005,1.2834315000000003 c0.9179235000000001,-5.84189775 -0.004153500000000001,-9.8147205 -3.1628902500000002,-13.415805 c-3.478556250000001,-3.96036225 -9.760725,-5.65914375 -17.79982425,-5.65914375 H15.038971000000002 a3.34149075,-3.34149075 0 0 1 -3.2978790000000004,2.81814975 L2.0260555,66.4326565 a2.001987,-2.001987 0 0 1 1.9770660000000002,2.31557625 h14.406414750000001 l3.6176985000000004,-22.948087500000003 l3.8876760000000004,-24.646869000000002 z" fill="#003087" stroke-width="0" id="svg_11" class=""/><path d="M59.33812525,21.074359749999985 a37.992064500000005,-37.992064500000005 0 0 0 -0.23882625000000005,1.3665015000000003 c-3.0756667500000003,15.79783725 -13.604789250000001,21.2617665 -27.0517455,21.2617665 h-6.84704475 a3.3269535000000006,-3.3269535000000006 0 0 1 -3.2854185000000005,2.81814975 l-3.5055540000000005,22.2253785 l-0.9968400000000002,6.305013000000001 a1.7527770000000003,-1.7527770000000003 0 0 1 1.7320095000000002,2.026908 h12.14275725 c1.4371110000000005,0 2.65824,-1.0466820000000001 2.88460575,-2.46510225 l0.11837475000000003,-0.6188715000000001 l2.2885785000000003,-14.504022 l0.14537250000000002,-0.8016255000000002 a2.9219872500000004,-2.9219872500000004 0 0 0 2.8866825000000005,-2.46510225 h1.8171562500000003 c11.762712,0 20.97309825,-4.7765249999999995 23.66456625,-18.599373 c1.121445,-5.773365000000001 0.5399550000000001,-10.59765525 -2.4297975,-13.9848345 a11.596572,-11.596572 0 0 1 -3.32487675,-2.5647862500000005 " fill="#009cde" stroke-width="0" id="svg_12" class=""/><path d="M56.11708600000001,19.793004999999994 c-0.4693455000000001,-0.13914225000000005 -0.9532282500000001,-0.26374725 -1.4516482500000005,-0.37381500000000006 c-0.4984200000000001,-0.11006775000000003 -1.013454,-0.20767500000000003 -1.5409485000000003,-0.29074500000000003 c-1.8483075000000004,-0.30112875000000006 -3.8669085000000005,-0.4423477500000001 -6.0350355,-0.4423477500000001 h-18.28993725 a2.915757,-2.915757 0 0 1 -2.88460575,2.467179 l-3.8876760000000004,24.651022500000003 l-0.11214450000000004,0.7164787500000002 a3.3269535000000006,-3.3269535000000006 0 0 0 3.2854185000000005,-2.81814975 h6.84704475 c13.44695625,0 23.97607875,-5.4618525 27.0517455,-21.2617665 c0.09137700000000003,-0.46726875000000007 0.16821675000000005,-0.9200002500000002 0.23882625000000005,-1.3665015000000003 a16.6098465,-16.6098465 0 0 1 -2.5294815,-1.0674495000000002 c-0.22636575000000003,-0.07476300000000001 -0.4568850000000001,-0.14537250000000002 -0.6915577500000002,-0.21598200000000004 " fill="#012169" stroke-width="0" id="svg_13" class=""/></g></svg>