<svg xmlns="http://www.w3.org/2000/svg" viewBox="0 0 300 60">
  <g fill="none" fill-rule="evenodd">
    <path fill="#D44866" d="M35.862,53.721 L7.857,53.721 C7.613,53.721 7.431,53.539 7.431,53.295 L7.431,24.072 C12.058,30.769 22.712,35.396 28.861,35.822 C37.202,36.37 42.742,30.282 55.649,18.41 C56.136,17.984 56.379,18.471 56.136,18.775 C41.281,36.796 31.783,41.971 22.529,36.127 C26,42.154 31.357,48.972 35.862,53.721 Z M5.361,18.41 L5.361,53.904 C5.361,54.939 6.213,55.791 7.248,55.791 L54.857,55.791 C55.892,55.791 56.744,54.939 56.744,53.904 L56.744,18.471 C56.744,17.375 55.892,16.523 54.857,16.523 L15.772,16.523 C15.893,19.993 17.294,24.62 19.546,29.734 C8.77,25.411 1.464,14.27 17.111,7.452 C8.344,9.156 5.239,14.027 5.361,18.41 L5.361,18.41 Z"/>
    <path fill="#D44866" d="M24.599,4.955 L19.12,6.477 L18.937,9.461 L20.033,6.782 L24.599,4.955 Z M15.832,5.016 L25.573,4.529 L18.511,10.557 L18.389,6.965 L15.832,5.016 L15.832,5.016 Z"/>
    <path fill="#303436" d="M91.631 27.239L85.884 27.239C85.768 25.538 85.225 24.177 84.259 23.153 83.291 22.129 82.091 21.617 80.66 21.617 79.267 21.617 78.048 22.149 77.003 23.21 75.958 24.274 75.436 25.52 75.436 26.948 75.436 28.455 75.88 29.605 76.771 30.397 77.661 31.189 79.334 31.932 81.792 32.627 84.249 33.323 86.048 34 87.19 34.656 88.331 35.313 89.347 36.279 90.238 37.553 91.592 39.486 92.269 41.725 92.269 44.276 92.269 47.791 91.128 50.728 88.844 53.084 86.561 55.441 83.716 56.619 80.312 56.619 76.829 56.619 73.965 55.479 71.721 53.199 69.476 50.92 68.315 48.005 68.238 44.45L73.81 44.45C74.275 49.124 76.461 51.461 80.37 51.461 82.149 51.461 83.639 50.843 84.839 49.607 86.038 48.371 86.638 46.845 86.638 45.029 86.638 42.286 85.032 40.373 81.821 39.291L80.428 38.828 78.803 38.307C76.597 37.612 75.164 37.089 74.507 36.742 73.849 36.394 73.152 35.796 72.417 34.946 70.676 33.014 69.805 30.638 69.805 27.817 69.805 24.534 70.859 21.82 72.969 19.676 75.078 17.532 77.738 16.46 80.95 16.46 83.969 16.46 86.465 17.455 88.438 19.444 90.411 21.434 91.476 24.031 91.631 27.239M100.761 34.018C99.6 35.332 98.845 37.186 98.497 39.582L117.246 39.582C117.13 37.186 116.152 35.139 114.315 33.439 112.477 31.739 110.339 30.889 107.901 30.889 104.998 30.889 102.618 31.932 100.761 34.018zM116.259 46.767L121.716 46.767C120.632 49.781 118.832 52.176 116.318 53.953 113.802 55.73 110.977 56.619 107.843 56.619 103.78 56.619 100.297 55.122 97.395 52.127 94.492 49.135 93.041 45.531 93.041 41.32 93.041 37.071 94.492 33.439 97.395 30.425 100.297 27.412 103.817 25.906 107.959 25.906 111.983 25.906 115.437 27.383 118.32 30.339 121.202 33.294 122.644 36.838 122.644 40.972 122.644 41.591 122.587 42.518 122.471 43.753L98.497 43.753C99.078 46.131 100.229 48.041 101.951 49.479 103.673 50.916 105.714 51.635 108.075 51.635 111.635 51.635 114.363 50.013 116.259 46.767L116.259 46.767zM152.63 38.075L152.63 55.865 147.233 55.865 147.233 40.14C147.233 37.364 146.825 35.341 146.009 34.068 144.765 32.104 142.746 31.121 139.949 31.121 137.578 31.121 135.733 31.921 134.412 33.52 133.091 35.12 132.431 37.327 132.431 40.14L132.431 55.865 126.917 55.865 126.917 26.89 131.967 26.89 131.967 29.962C133.901 27.412 136.765 26.138 140.558 26.138 144.156 26.138 147.067 27.239 149.293 29.441 151.518 31.643 152.63 34.521 152.63 38.075M170.716 51.635C173.58 51.635 175.979 50.617 177.914 48.581 179.848 46.546 180.816 44.01 180.816 40.975 180.816 38.209 179.838 35.875 177.884 33.973 175.931 32.072 173.521 31.121 170.658 31.121 167.872 31.121 165.54 32.092 163.664 34.031 161.786 35.972 160.848 38.401 160.848 41.32 160.848 44.201 161.806 46.641 163.722 48.639 165.637 50.637 167.968 51.635 170.716 51.635zM185.866 17.213L185.866 55.865 180.816 55.865 180.816 51.751C178.223 54.996 174.76 56.619 170.426 56.619 166.169 56.619 162.608 55.15 159.745 52.215 156.882 49.279 155.449 45.608 155.449 41.204 155.449 36.994 156.852 33.429 159.659 30.512 162.464 27.596 165.878 26.138 169.903 26.138 171.954 26.138 173.967 26.562 175.94 27.412 177.914 28.263 179.423 29.364 180.468 30.715L180.468 17.213 185.866 17.213 185.866 17.213z"/>
    <polygon fill="#303436" points="191.422 55.865 196.82 55.865 196.82 17.213 191.422 17.213"/>
    <path fill="#303436" d="M215.918 51.635C218.665 51.635 221.016 50.644 222.971 48.66 224.925 46.676 225.902 44.277 225.902 41.465 225.902 38.575 224.934 36.12 222.999 34.098 221.064 32.074 218.705 31.063 215.918 31.063 213.17 31.063 210.829 32.065 208.894 34.068 206.959 36.071 205.992 38.518 205.992 41.407 205.992 44.219 206.969 46.628 208.923 48.631 210.877 50.633 213.209 51.635 215.918 51.635zM231.301 26.89L231.301 55.865 226.308 55.865 226.308 51.345C225.379 52.736 224.334 53.799 223.174 54.532 220.929 55.924 218.336 56.619 215.396 56.619 211.177 56.619 207.655 55.17 204.832 52.272 202.006 49.375 200.593 45.782 200.593 41.494 200.593 37.089 202.035 33.429 204.918 30.512 207.801 27.596 211.41 26.138 215.744 26.138 217.95 26.138 220.019 26.597 221.955 27.515 223.889 28.433 225.341 29.635 226.308 31.121L226.308 26.89 231.301 26.89 231.301 26.89zM262.266 38.075L262.266 55.865 256.868 55.865 256.868 40.14C256.868 37.364 256.46 35.341 255.645 34.068 254.4 32.104 252.382 31.121 249.584 31.121 247.213 31.121 245.367 31.921 244.047 33.52 242.726 35.12 242.066 37.327 242.066 40.14L242.066 55.865 236.551 55.865 236.551 26.89 241.602 26.89 241.602 29.962C243.536 27.412 246.4 26.138 250.192 26.138 253.792 26.138 256.703 27.239 258.928 29.441 261.153 31.643 262.266 34.521 262.266 38.075M272.749 34.018C271.588 35.332 270.834 37.186 270.485 39.582L289.234 39.582C289.118 37.186 288.14 35.139 286.302 33.439 284.464 31.739 282.326 30.889 279.889 30.889 276.986 30.889 274.607 31.932 272.749 34.018zM288.246 46.767L293.704 46.767C292.62 49.781 290.82 52.176 288.305 53.953 285.789 55.73 282.964 56.619 279.83 56.619 275.767 56.619 272.284 55.122 269.382 52.127 266.48 49.135 265.029 45.531 265.029 41.32 265.029 37.071 266.48 33.439 269.382 30.425 272.284 27.412 275.806 25.906 279.946 25.906 283.971 25.906 287.424 27.383 290.307 30.339 293.19 33.294 294.632 36.838 294.632 40.972 294.632 41.591 294.574 42.518 294.458 43.753L270.485 43.753C271.066 46.131 272.217 48.041 273.938 49.479 275.66 50.916 277.702 51.635 280.063 51.635 283.622 51.635 286.35 50.013 288.246 46.767L288.246 46.767z"/>
  </g>
</svg>
