<svg xmlns="http://www.w3.org/2000/svg" xmlns:xlink="http://www.w3.org/1999/xlink" version="1.1" xml:space="preserve" width="722" height="143" style=""><rect id="backgroundrect" width="100%" height="100%" x="0" y="0" fill="none" stroke="none" style="" class=""/>

<g class="currentLayer" style=""><title>Layer 1</title>
	
	
	
	
	
<g class=""><path fill-rule="evenodd" clip-rule="evenodd" fill="#9B5C8F" d="M22.700732821063127,1.8189893984636588e-12 h199.1 c12.6,0 22.8,10.007541239261627 22.8,22.369798064231873 V96.93579161167327 c0,12.362256824970245 -10.2,22.369798064231873 -22.8,22.369798064231873 h-71.4 l9.8,23.54715585708618 l-43.1,-23.54715585708618 h-94.3 c-12.6,0 -22.8,-10.007541239261627 -22.8,-22.369798064231873 V22.36979806423369 C-0.09926717893685598,10.105654388667972 10.100732821063133,1.8189893984636588e-12 22.700732821063127,1.8189893984636588e-12 z" id="svg_2" class=""/><path fill="#FFFFFF" d="M12.200732821063127,20.30942192673865 c1.4,-1.8641498386859912 3.5,-2.845281332731247 6.3,-3.0415076315402985 c5.1,-0.39245259761810347 8,1.9622629880905151 8.7,7.0641467571258545 c3.1,20.505648225545883 6.5,37.87167567014694 10.1,52.09808233380318 l21.9,-40.91318330168724 c2,-3.7282996773719788 4.5,-5.690562665462494 7.5,-5.886788964271545 c4.4,-0.29433944821357727 7.1,2.452828735113144 8.2,8.241504549980164 c2.5,13.049048870801926 5.7,24.135834753513336 9.5,33.55469709634781 c2.6,-24.920739948749542 7,-42.875446289777756 13.2,-53.962232172489166 c1.5,-2.747168183326721 3.7,-4.120752274990082 6.6,-4.316978573799133 c2.3,-0.19622629880905176 4.4,0.4905657470226291 6.3,1.9622629880905151 c1.9,1.4716972410678864 2.9,3.3358470797538757 3.1,5.592449516057968 c0.1,1.7660366892814636 -0.2,3.23773393034935 -1,4.709431171417236 c-3.9,7.0641467571258545 -7.1,18.93583783507347 -9.7,35.4188469350338 c-2.5,15.992443352937698 -3.4,28.45281332731247 -2.8,37.38110992312431 c0.2,2.452828735113144 -0.2,4.611318022012711 -1.2,6.4754678606987 c-1.2,2.1584892868995667 -3,3.3358470797538757 -5.3,3.5320733785629272 c-2.6,0.19622629880905176 -5.3,-0.9811314940452575 -7.9,-3.630186527967453 c-9.3,-9.320749193429947 -16.7,-23.252816408872604 -22.1,-41.79620164632797 c-6.5,12.558483123779297 -11.3,21.97734546661377 -14.4,28.256587028503418 c-5.9,11.08678588271141 -10.9,16.777348548173904 -15.1,17.07168799638748 c-2.7,0.19622629880905176 -5,-2.060376137495041 -7,-6.769807308912277 c-5.1,-12.852822571992874 -10.6,-37.67544937133789 -16.5,-74.46788039803505 C10.30073282106315,24.332061052324207 10.80073282106315,22.075458616020114 12.200732821063127,20.30942192673865 z" id="svg_3" class=""/><path fill="#FFFFFF" d="M227.20073282106313,35.713186383249194 c-3.6,-6.181128412485123 -8.9,-9.909428089857101 -16,-11.381125330924988 c-1.9,-0.39245259761810347 -3.7,-0.588678896427156 -5.4,-0.588678896427156 c-9.6,0 -17.4,4.905657470226288 -23.5,14.716972410678864 c-5.2,8.33961769938469 -7.8,17.56225374341011 -7.8,27.667908132076263 c0,7.554712504148483 1.6,14.030180364847183 4.8,19.4264035820961 c3.6,6.181128412485123 8.9,9.909428089857101 16,11.381125330924988 c1.9,0.39245259761810347 3.7,0.588678896427156 5.4,0.588678896427156 c9.7,0 17.5,-4.905657470226288 23.5,-14.716972410678864 c5.2,-8.437730848789215 7.8,-17.660366892814636 7.8,-27.76602128148079 C232.00073282106314,47.38865116238776 230.40073282106312,41.011296451093585 227.20073282106313,35.713186383249194 L227.20073282106313,35.713186383249194 zM214.60073282106316,62.89052876830283 c-1.4,6.4754678606987 -3.9,11.283012181520462 -7.6,14.520746111869812 c-2.9,2.5509418845176697 -5.6,3.630186527967453 -8.1,3.139620780944824 c-2.4,-0.4905657470226291 -4.4,-2.5509418845176697 -5.9,-6.377354711294174 c-1.2,-3.0415076315402985 -1.8,-6.083015263080597 -1.8,-8.928296595811844 c0,-2.452828735113144 0.2,-4.905657470226288 0.7000000000000006,-7.16225990653038 c0.9,-4.022639125585556 2.6,-7.947165101766586 5.3,-11.675464779138565 c3.3,-4.807544320821762 6.8,-6.769807308912277 10.4,-6.083015263080597 c2.4,0.4905657470226291 4.4,2.5509418845176697 5.9,6.377354711294174 c1.2,3.0415076315402985 1.8,6.083015263080597 1.8,8.928296595811844 C215.30073282106315,58.18109759688559 215.00073282106314,60.63392633199874 214.60073282106316,62.89052876830283 L214.60073282106316,62.89052876830283 z" id="svg_4" class=""/><path fill="#FFFFFF" d="M164.50073282106314,35.713186383249194 c-3.6,-6.181128412485123 -9,-9.909428089857101 -16,-11.381125330924988 c-1.9,-0.39245259761810347 -3.7,-0.588678896427156 -5.4,-0.588678896427156 c-9.6,0 -17.4,4.905657470226288 -23.5,14.716972410678864 c-5.2,8.33961769938469 -7.8,17.56225374341011 -7.8,27.667908132076263 c0,7.554712504148483 1.6,14.030180364847183 4.8,19.4264035820961 c3.6,6.181128412485123 8.9,9.909428089857101 16,11.381125330924988 c1.9,0.39245259761810347 3.7,0.588678896427156 5.4,0.588678896427156 c9.7,0 17.5,-4.905657470226288 23.5,-14.716972410678864 c5.2,-8.437730848789215 7.8,-17.660366892814636 7.8,-27.76602128148079 C169.30073282106315,47.38865116238776 167.70073282106313,41.011296451093585 164.50073282106314,35.713186383249194 L164.50073282106314,35.713186383249194 zM151.90073282106312,62.89052876830283 c-1.4,6.4754678606987 -3.9,11.283012181520462 -7.6,14.520746111869812 c-2.9,2.5509418845176697 -5.6,3.630186527967453 -8.1,3.139620780944824 c-2.4,-0.4905657470226291 -4.4,-2.5509418845176697 -5.9,-6.377354711294174 c-1.2,-3.0415076315402985 -1.8,-6.083015263080597 -1.8,-8.928296595811844 c0,-2.452828735113144 0.2,-4.905657470226288 0.7000000000000006,-7.16225990653038 c0.9,-4.022639125585556 2.6,-7.947165101766586 5.3,-11.675464779138565 c3.3,-4.807544320821762 6.8,-6.769807308912277 10.4,-6.083015263080597 c2.4,0.4905657470226291 4.4,2.5509418845176697 5.9,6.377354711294174 c1.2,3.0415076315402985 1.8,6.083015263080597 1.8,8.928296595811844 C152.60073282106316,58.18109759688559 152.40073282106312,60.63392633199874 151.90073282106312,62.89052876830283 L151.90073282106312,62.89052876830283 z" id="svg_5" class=""/><g id="svg_6" class="">
		<g id="svg_7">
			<path d="M269.9007328210631,34.83016803860846 c-6.7,6.4754678606987 -10,14.716972410678864 -10,24.72451364994049 c0,10.694333285093307 3.3,19.4264035820961 9.9,25.999984592199326 c6.6,6.573581010103226 15.2,9.909428089857101 25.9,9.909428089857101 c3.1,0 6.6,-0.4905657470226291 10.4,-1.569810390472412 v-15.894330203533173 c-3.5,0.9811314940452575 -6.5,1.4716972410678864 -9.1,1.4716972410678864 c-5.3,0 -9.5,-1.7660366892814636 -12.7,-5.199996918439865 c-3.2,-3.5320733785629272 -4.8,-8.241504549980164 -4.8,-14.226406663656235 c0,-5.592449516057968 1.6,-10.203767538070679 4.7,-13.735840916633606 c3.2,-3.630186527967453 7.1,-5.396223217248917 11.9,-5.396223217248917 c3.1,0 6.4,0.4905657470226291 10,1.4716972410678864 v-15.894330203533173 c-3.3,-0.8830183446407318 -7,-1.2754709422588348 -10.9,-1.2754709422588348 C285.00073282106314,25.116966247560413 276.60073282106316,28.354700177909763 269.9007328210631,34.83016803860846 zM339.30073282106315,25.116966247560413 c-9.2,0 -16.4,3.0415076315402985 -21.6,9.02640974521637 c-5.2,5.984902113676071 -7.7,14.422632962465286 -7.7,25.21507939696312 c0,11.675464779138565 2.6,20.60376137495041 7.7,26.78488978743553 c5.1,6.181128412485123 12.6,9.320749193429947 22.4,9.320749193429947 c9.5,0 16.8,-3.139620780944824 21.9,-9.320749193429947 c5.1,-6.181128412485123 7.7,-14.913198709487915 7.7,-26.09809774160385 c0,-11.184899032115936 -2.6,-19.818856179714203 -7.8,-25.9018714427948 C356.60073282106316,28.15847387910071 349.10073282106316,25.116966247560413 339.30073282106315,25.116966247560413 zM347.2007328210631,76.1358039379138 c-1.8,2.747168183326721 -4.5,4.120752274990082 -7.9,4.120752274990082 c-3.2,0 -5.6,-1.3735840916633606 -7.3,-4.120752274990082 c-1.7000000000000002,-2.747168183326721 -2.5,-8.241504549980164 -2.5,-16.581122249364853 c0,-12.852822571992874 3.3,-19.23017728328705 10,-19.23017728328705 c7,0 10.6,6.4754678606987 10.6,19.524516731500626 C350.00073282106314,67.89429938793364 349.00073282106314,73.38863575458709 347.2007328210631,76.1358039379138 zM419.10073282106316,26.981116086246402 l-3.6,15.01131185889244 c-0.9,3.8264128267765045 -1.8,7.750938802957535 -2.6,11.77357792854309 l-2,10.39999383687973 c-1.9,-10.39999383687973 -4.5,-22.762250661849976 -7.8,-37.18488362431526 h-23.2 l-8.7,66.81505474448204 h17.4 l4.7,-46.01506707072258 l11.9,46.01506707072258 h12.4 L429.00073282106314,47.87921690941039 l4.9,45.916953921318054 h18.2 l-9.2,-66.81505474448204 H419.10073282106316 zM502.4007328210631,26.981116086246402 l-3.6,15.01131185889244 c-0.9,3.8264128267765045 -1.8,7.750938802957535 -2.6,11.77357792854309 l-2,10.39999383687973 c-1.9,-10.39999383687973 -4.5,-22.762250661849976 -7.8,-37.18488362431526 h-23.2 l-8.7,66.81505474448204 h17.4 l4.7,-46.01506707072258 l11.9,46.01506707072258 h12.4 l11.3,-45.916953921318054 l4.9,45.916953921318054 h18.2 l-9.2,-66.81505474448204 H502.4007328210631 zM559.0007328210631,67.40373364091101 h16.3 v-13.833954066038132 H559.0007328210631 v-12.26414367556572 h18.8 v-14.226406663656235 h-37.2 v66.81505474448204 h37.3 v-14.226406663656235 H559.0007328210631 V67.40373364091101 zM629.7007328210632,56.80751350522223 c1.9,-3.0415076315402985 2.9,-6.181128412485123 2.9,-9.418862342834473 c0,-6.279241561889648 -2.5,-11.283012181520462 -7.5,-14.913198709487915 c-5,-3.630186527967453 -11.9,-5.494336366653442 -20.5,-5.494336366653442 h-21.4 v66.81505474448204 h18.4 v-30.415076315402985 h0.3000000000000003 l14.9,30.415076315402985 h19.4 l-14.7,-30.120736867189407 C625.0007328210631,62.10562357306662 627.8007328210631,59.84902113676253 629.7007328210632,56.80751350522223 zM601.5007328210631,55.72826886177245 v-15.894330203533173 c4.4,0.09811314940452598 7.5,0.7849051952362055 9.4,2.1584892868995667 c1.9,1.3735840916633606 2.8,3.5320733785629272 2.8,6.6716941595077515 C613.7007328210632,53.275440126659305 609.6007328210632,55.63015571236792 601.5007328210631,55.72826886177245 zM643.4007328210631,34.83016803860846 c-6.7,6.4754678606987 -10,14.716972410678864 -10,24.72451364994049 c0,10.694333285093307 3.3,19.4264035820961 9.9,25.999984592199326 c6.6,6.573581010103226 15.2,9.909428089857101 25.9,9.909428089857101 c3.1,0 6.6,-0.4905657470226291 10.4,-1.569810390472412 v-15.894330203533173 c-3.5,0.9811314940452575 -6.5,1.4716972410678864 -9.1,1.4716972410678864 c-5.3,0 -9.5,-1.7660366892814636 -12.7,-5.199996918439865 c-3.2,-3.5320733785629272 -4.8,-8.241504549980164 -4.8,-14.226406663656235 c0,-5.592449516057968 1.6,-10.203767538070679 4.7,-13.735840916633606 c3.2,-3.630186527967453 7.1,-5.396223217248917 11.9,-5.396223217248917 c3.1,0 6.4,0.4905657470226291 10,1.4716972410678864 v-15.894330203533173 c-3.3,-0.8830183446407318 -7,-1.2754709422588348 -10.9,-1.2754709422588348 C658.6007328210632,25.116966247560413 650.1007328210632,28.354700177909763 643.4007328210631,34.83016803860846 zM703.1007328210632,79.47165101766768 v-12.166030526161194 h16.3 v-13.833954066038132 h-16.3 v-12.26414367556572 H722.0007328210631 v-14.226406663656235 h-37.2 v66.81505474448204 h37.3 v-14.226406663656235 H703.1007328210632 z" id="svg_8"/>
		</g>
	</g></g></g></svg>