<?xml version="1.0" encoding="utf-8"?>
<!-- Generator: Adobe Illustrator 16.0.4, SVG Export Plug-In . SVG Version: 6.00 Build 0)  -->
<!DOCTYPE svg PUBLIC "-//W3C//DTD SVG 1.1//EN" "http://www.w3.org/Graphics/SVG/1.1/DTD/svg11.dtd">
<svg width="80" fill="#000000 !important" viewBox="474 -494 188 182" version="1.1" class="middle logo" xmlns="http://www.w3.org/2000/svg" xmlns:xlink="http://www.w3.org/1999/xlink" xlink:href="#logo">
<desc>MayPower</desc>
<defs></defs>
<path d="M523.624772,-491.860488 C520.92335,-491.828136 514.196561,-491.693291 509.698895,-491.137854 C505.466386,-491.087064 502.193104,-490.177771 498.36358,-487.675235 C498.018096,-487.449466 498.004788,-486.903481 497.672611,-486.659275 C497.488353,-486.523814 497.152068,-486.811144 496.981643,-486.659275 C495.835225,-485.637684 494.765762,-484.513476 493.872284,-483.272743 C493.366508,-482.570395 491.958788,-480.902171 492.835831,-480.902171 C493.118389,-480.902171 496.837172,-485.154084 500.701996,-487.137675 C503.635322,-488.643181 507.000687,-488.013888 507.000687,-488.013888 C507.000687,-488.013888 506.750743,-487.87334 506.536234,-487.53208 C505.834374,-486.415498 503.686175,-484.311101 503.891329,-482.595437 C504.054501,-481.230854 505.38203,-484.316476 506.309719,-484.966009 C507.084449,-485.508446 508.049398,-487.016272 509.764563,-487.137675 C511.822881,-487.283366 514.601342,-485.981969 514.601342,-485.981969 C514.601342,-485.981969 514.479438,-485.429896 514.255858,-485.304662 C512.824246,-484.502774 511.083651,-484.242498 509.764562,-483.272743 C506.105888,-480.582994 503.401543,-477.303055 501.818423,-473.113148 C501.331836,-471.82534 501.754,-470.277625 501.127454,-469.04931 C500.941762,-468.685269 500.297009,-469.373233 500.091001,-469.726617 C499.799664,-470.226377 499.976831,-470.890823 499.745517,-471.419883 C499.617208,-471.713352 499.108098,-471.782248 499.054549,-472.097189 C498.751039,-473.882241 498.632207,-475.707534 498.709064,-477.51564 C498.748599,-478.445701 499.080633,-479.348227 499.400033,-480.224865 C499.659862,-480.938 499.97297,-481.650983 500.436486,-482.256784 L501.472939,-482.93409 C501.611132,-483.114705 501.700947,-483.643325 501.472939,-483.611397 C496.018207,-482.847557 495.025756,-478.144189 494.666576,-473.760753 C494.594487,-472.880972 495.110624,-471.28595 495.001877,-470.539775 C494.969305,-470.316275 494.063924,-470.617342 493.872284,-470.742576 C493.330244,-471.096791 492.851707,-471.565866 492.490347,-472.097189 C491.460312,-473.611692 490.188922,-475.075477 489.726472,-476.838333 C489.123512,-479.136817 489.291378,-481.578417 489.380988,-483.95005 C489.407945,-484.663504 490.800302,-485.981969 490.071957,-485.981969 C487.870077,-485.981969 486.717758,-479.868184 486.617114,-479.547559 C485.296838,-480.248568 486.200209,-476.615234 486.271629,-475.145067 C486.3168,-474.215253 486.618403,-473.303416 486.962598,-472.435842 C487.429264,-471.259572 489.265827,-470.178154 488.69002,-469.04931 C488.615018,-468.902272 485.701684,-468.646167 483.76929,-467.84467 C482.17401,-467.182998 481.489243,-465.938376 481.489243,-465.938376 C481.489243,-465.938376 484.892496,-467.583052 488.69002,-467.15446 C492.3281,-466.743864 491.16887,-467.010545 495.404238,-466.340086 C496.512298,-466.16468 499.895337,-463.674409 501.127454,-463.473342 C504.526599,-462.918639 505.838937,-465.295404 508.749222,-465.182432 C513.202837,-465.009552 518.60679,-462.552782 519.092638,-462.6149 C520.175979,-462.753412 519.640502,-464.704923 520.129091,-465.662779 C522.2993,-469.917375 529.604616,-474.302548 529.457167,-474.129108 C527.538382,-471.872094 525.477869,-468.763973 525.311355,-465.662779 C525.250526,-464.529873 524.558873,-461.917495 525.65684,-462.276247 C527.077112,-462.74031 526.584821,-465.099333 527.384261,-466.340085 C527.993035,-467.284918 529.102734,-469.592757 529.802651,-468.710657 C530.933888,-467.284969 529.619307,-465.089393 529.802651,-463.292207 C529.853897,-462.789878 529.993979,-462.060034 530.49362,-461.937594 C532.948628,-461.335977 535.948672,-464.017019 540.16718,-461.260288 C545.164273,-457.994763 543.70759,-454.841641 543.967508,-449.74608 C544.15179,-446.133306 545.466066,-444.756806 545.003961,-439.925138 C544.860548,-438.425648 545.16727,-436.463479 543.967508,-435.522647 C542.884656,-434.673494 541.202728,-435.984366 539.821696,-435.8613 C538.624313,-435.754599 537.41787,-435.417694 536.366853,-434.845341 L536.712337,-434.168034 C536.510999,-434.058391 537.240443,-434.327677 537.403306,-434.168034 C541.023122,-430.619791 541.830646,-424.037735 538.439759,-419.605948 C537.360431,-418.1953 535.804232,-417.177337 534.293947,-416.219417 C533.800943,-415.906721 532.809515,-416.40477 532.566526,-415.880763 C532.089984,-414.853102 532.833263,-413.592378 532.566526,-412.494232 C531.598368,-408.50837 529.427795,-407.034228 525.65684,-405.043862 C524.500744,-404.433658 523.157514,-404.201804 521.856512,-404.027903 C520.601353,-403.860129 519.311345,-403.860129 518.056185,-404.027903 C516.755183,-404.201804 515.430279,-404.468262 514.255858,-405.043862 C513.527513,-405.400834 512.995415,-406.083206 512.528436,-406.737128 C512.172796,-407.23514 511.925172,-407.828602 511.837468,-408.430394 C511.690891,-409.436142 511.690891,-410.472524 511.837468,-411.478272 C511.925172,-412.080064 512.172796,-412.673526 512.528436,-413.171538 C512.995415,-413.82546 513.557589,-414.454127 514.255858,-414.864804 C515.319429,-415.490329 516.64713,-415.593892 517.710701,-416.219417 C518.40897,-416.630094 518.959166,-417.267139 519.438122,-417.912682 C519.8925,-418.525099 520.386025,-419.192341 520.474575,-419.944601 C520.738581,-422.187409 520.633042,-424.465327 520.474575,-426.717665 C520.401526,-427.755941 520.16158,-428.792982 519.783607,-429.765543 C515.354362,-441.162418 518.015325,-438.948992 528.07523,-440.263791 C530.098892,-440.528278 537.746132,-445.654772 536.366853,-447.375508 C535.217402,-448.809519 532.99641,-448.993027 531.184589,-449.407427 C529.49862,-449.793041 527.732394,-449.80889 526.002324,-449.74608 C524.602285,-449.695252 523.180437,-449.517994 521.856512,-449.068774 C504.830487,-443.291682 521.194759,-430.919171 515.292311,-422.653827 C512.194862,-418.316392 507.914996,-420.621908 503.20036,-420.621908 C499.770972,-420.621908 497.683044,-419.252686 495.254221,-422.653827 C489.896819,-430.15593 504.197436,-444.412997 489.726472,-448.73012 C488.041166,-449.232898 486.301937,-449.631215 484.544208,-449.74608 C481.792866,-449.925876 476.362047,-449.350169 474.179679,-447.375508 C473.644489,-446.891254 474.433641,-445.914744 474.870648,-445.343589 C481.258971,-436.994242 487.417463,-442.865799 491.799378,-438.570526 C494.367268,-436.05341 489.380542,-425.931119 490.071957,-420.283255 C490.823538,-414.143915 502.122659,-415.602772 498.36358,-407.414434 C495.719756,-401.655436 486.078776,-403.630762 482.125818,-406.398475 C480.997391,-407.188556 480.51577,-408.692345 479.361943,-409.446353 C479.058934,-409.644366 478.909361,-408.77158 479.016459,-408.430394 C484.903999,-389.67423 509.629875,-411.387164 518.056185,-395.900227 C518.327153,-395.402207 518.176833,-394.758854 518.056185,-394.206961 C515.964423,-384.638418 503.392921,-381.676413 495.599706,-386.417938 C493.868637,-387.471149 492.427937,-388.960085 491.10841,-390.481776 C490.441309,-391.251082 490.017114,-392.22236 489.726472,-393.191001 C489.432221,-394.171676 490.423819,-396.23888 489.380988,-396.23888 C488.135327,-396.23888 487.751532,-394.33204 487.308082,-393.191001 C486.809333,-391.907671 486.462399,-390.492062 486.617114,-389.127163 C486.818194,-387.353221 487.37948,-385.560923 488.344535,-384.047366 C488.679515,-383.521996 489.147267,-383.109041 489.652606,-382.7263 L483.013758,-382.7263 L483.013758,-374.230507 L495.078832,-374.230507 L509.618794,-358.756027 L523.849394,-374.230507 L536.842551,-374.230507 L536.842551,-320.524686 L523.709342,-320.524686 L523.709342,-355.266396 L509.162891,-340.999236 L494.769471,-355.116303 L494.769471,-320.221536 L494.769471,-320.524958 L483.013758,-320.524958 L483.013758,-312.029164 L483.322482,-312.029164 L541.061293,-312.029164 L595.427111,-312.029164 L595.427111,-319.482772 C591.75836,-320.853557 587.827614,-322.095813 583.634756,-323.209576 C579.441898,-324.323339 574.987053,-325.137231 570.270087,-325.651275 L570.270087,-382.452906 C571.143599,-382.281558 572.541198,-382.110212 574.462924,-381.938864 C576.384651,-381.767516 578.393699,-381.639007 580.490128,-381.553333 C582.586557,-381.467658 584.55193,-381.424822 586.386306,-381.424822 L590.448117,-381.424822 C599.532643,-381.424822 608.354984,-382.495732 616.915403,-384.637584 C625.475822,-386.779436 633.118938,-390.163511 639.844982,-394.789912 C646.571025,-399.416312 651.943044,-405.327735 655.9612,-412.524358 C659.979356,-419.72098 661.988404,-428.373932 661.988404,-438.483474 C661.988404,-449.10706 660.023031,-457.974194 656.092227,-465.085143 C652.161422,-472.196091 647.007777,-477.893332 640.631139,-482.177036 C634.2545,-486.46074 626.960783,-489.502124 618.749769,-491.30128 C610.538755,-493.100436 602.153164,-494 593.592745,-494 C586.08054,-494 578.219049,-493.657309 570.008035,-492.971916 C561.797021,-492.286524 554.197579,-491.943832 547.209482,-491.943832 L523.624772,-491.943832 L523.624772,-491.860488 Z M570.270087,-479.349806 L570.270087,-396.075016 C571.143599,-395.73232 572.410173,-395.518138 574.069846,-395.432464 C575.729519,-395.34679 577.476517,-395.218281 579.310893,-395.046933 C581.145268,-394.875584 582.935941,-394.789912 584.682966,-394.789912 L588.875803,-394.789912 C594.990388,-394.789912 600.755482,-395.603803 606.171257,-397.231611 C611.587032,-398.859418 616.347602,-401.472439 620.453109,-405.07075 C624.558616,-408.669061 627.834238,-413.209719 630.280072,-418.69286 C632.725906,-424.176002 633.948804,-430.772807 633.948804,-438.483474 C633.948804,-452.534023 629.887034,-463.071777 621.763371,-470.097051 C613.639708,-477.122326 602.415245,-480.63491 588.089646,-480.63491 C583.896788,-480.63491 580.490141,-480.549238 577.869605,-480.377889 C575.249068,-480.206541 572.715921,-479.86385 570.270087,-479.349806 Z" id="Shape" stroke="none" fill="#000" fill-rule="evenodd"></path>
</svg>
